<ttFont>
    <TTGlyph name="A" xMin="-55" yMin="0" xMax="545" yMax="732">
      <contour>
        <pt x="545" y="0" on="1"/>
        <pt x="405" y="0" on="1"/>
        <pt x="364" y="210" on="1"/>
        <pt x="168" y="210" on="1"/>
        <pt x="69" y="0" on="1"/>
        <pt x="-55" y="0" on="1"/>
        <pt x="289" y="732" on="1"/>
        <pt x="397" y="732" on="1"/>
      </contour>
      <contour>
        <pt x="343" y="308" on="1"/>
        <pt x="338" y="333" on="0"/>
        <pt x="309" y="558" on="1"/>
        <pt x="301" y="538" on="0"/>
        <pt x="236" y="357" on="0"/>
        <pt x="214" y="308" on="1"/>
      </contour>
    </TTGlyph>
    <TTGlyph name="AE" xMin="-55" yMin="0" xMax="887" yMax="732">
      <contour>
        <pt x="887" y="732" on="1"/>
        <pt x="873" y="633" on="1"/>
        <pt x="606" y="633" on="1"/>
        <pt x="577" y="426" on="1"/>
        <pt x="792" y="426" on="1"/>
        <pt x="778" y="327" on="1"/>
        <pt x="563" y="327" on="1"/>
        <pt x="531" y="99" on="1"/>
        <pt x="798" y="99" on="1"/>
        <pt x="784" y="0" on="1"/>
        <pt x="379" y="0" on="1"/>
        <pt x="409" y="210" on="1"/>
        <pt x="204" y="210" on="1"/>
        <pt x="67" y="0" on="1"/>
        <pt x="-55" y="0" on="1"/>
        <pt x="378" y="670" on="1"/>
        <pt x="373" y="732" on="1"/>
      </contour>
      <contour>
        <pt x="466" y="633" on="1"/>
        <pt x="429" y="562" on="1"/>
        <pt x="268" y="308" on="1"/>
        <pt x="422" y="308" on="1"/>
      </contour>
    </TTGlyph>
    <TTGlyph name="Aacute" xMin="-55" yMin="0" xMax="554" yMax="936">
      <component glyphName="acute" x="256" y="181" flags="0x4"/>
      <component glyphName="A" x="0" y="0" flags="0x4"/>
    </TTGlyph>
    <TTGlyph name="Acircumflex" xMin="-55" yMin="0" xMax="545" yMax="916">
      <component glyphName="circumflex" x="215" y="183" flags="0x4"/>
      <component glyphName="A" x="0" y="0" flags="0x4"/>
    </TTGlyph>
    <TTGlyph name="Adieresis" xMin="-55" yMin="0" xMax="545" yMax="881">
      <component glyphName="dieresis" x="204" y="197" flags="0x4"/>
      <component glyphName="A" x="0" y="0" flags="0x4"/>
    </TTGlyph>
    <TTGlyph name="Agrave" xMin="-55" yMin="0" xMax="545" yMax="936">
      <component glyphName="grave" x="148" y="181" flags="0x4"/>
      <component glyphName="A" x="0" y="0" flags="0x4"/>
    </TTGlyph>
    <TTGlyph name="Aring" xMin="-55" yMin="0" xMax="545" yMax="977">
      <component glyphName="ring" x="213" y="232" flags="0x4"/>
      <component glyphName="A" x="0" y="0" flags="0x4"/>
    </TTGlyph>
    <TTGlyph name="Atilde" xMin="-55" yMin="0" xMax="545" yMax="871">
      <component glyphName="tilde" x="205" y="187" flags="0x4"/>
      <component glyphName="A" x="0" y="0" flags="0x4"/>
    </TTGlyph>
    <TTGlyph name="B" xMin="11" yMin="0" xMax="549" yMax="732">
      <contour>
        <pt x="549" y="589" on="1"/>
        <pt x="549" y="517" on="0"/>
        <pt x="454" y="410" on="0"/>
        <pt x="383" y="399" on="1"/>
        <pt x="449" y="388" on="0"/>
        <pt x="533" y="295" on="0"/>
        <pt x="533" y="229" on="1"/>
        <pt x="533" y="119" on="0"/>
        <pt x="368" y="0" on="0"/>
        <pt x="254" y="0" on="1"/>
        <pt x="11" y="0" on="1"/>
        <pt x="101" y="671" on="1"/>
        <pt x="95" y="732" on="1"/>
        <pt x="343" y="732" on="1"/>
        <pt x="382" y="732" on="0"/>
        <pt x="449" y="720" on="0"/>
        <pt x="513" y="690" on="0"/>
        <pt x="549" y="631" on="0"/>
      </contour>
      <contour>
        <pt x="408" y="559" on="1"/>
        <pt x="408" y="633" on="0"/>
        <pt x="321" y="633" on="1"/>
        <pt x="227" y="633" on="1"/>
        <pt x="202" y="446" on="1"/>
        <pt x="299" y="446" on="1"/>
        <pt x="346" y="446" on="0"/>
        <pt x="408" y="512" on="0"/>
      </contour>
      <contour>
        <pt x="397" y="239" on="1"/>
        <pt x="397" y="292" on="0"/>
        <pt x="319" y="347" on="0"/>
        <pt x="263" y="347" on="1"/>
        <pt x="189" y="347" on="1"/>
        <pt x="156" y="99" on="1"/>
        <pt x="258" y="99" on="1"/>
        <pt x="319" y="99" on="0"/>
        <pt x="397" y="178" on="0"/>
      </contour>
    </TTGlyph>
    <TTGlyph name="C" xMin="17" yMin="-12" xMax="622" yMax="746">
      <contour>
        <pt x="622" y="675" on="1"/>
        <pt x="541" y="583" on="1"/>
        <pt x="519" y="614" on="0"/>
        <pt x="438" y="649" on="0"/>
        <pt x="398" y="649" on="1"/>
        <pt x="338" y="649" on="0"/>
        <pt x="243" y="587" on="0"/>
        <pt x="188" y="488" on="0"/>
        <pt x="160" y="376" on="0"/>
        <pt x="160" y="320" on="1"/>
        <pt x="160" y="263" on="0"/>
        <pt x="188" y="161" on="0"/>
        <pt x="266" y="82" on="0"/>
        <pt x="324" y="82" on="1"/>
        <pt x="412" y="82" on="0"/>
        <pt x="496" y="157" on="1"/>
        <pt x="543" y="62" on="1"/>
        <pt x="423" y="-12" on="0"/>
        <pt x="304" y="-12" on="1"/>
        <pt x="165" y="-12" on="0"/>
        <pt x="17" y="152" on="0"/>
        <pt x="17" y="293" on="1"/>
        <pt x="17" y="380" on="0"/>
        <pt x="70" y="541" on="0"/>
        <pt x="166" y="669" on="0"/>
        <pt x="316" y="746" on="0"/>
        <pt x="406" y="746" on="1"/>
        <pt x="464" y="746" on="0"/>
        <pt x="588" y="710" on="0"/>
      </contour>
    </TTGlyph>
    <TTGlyph name="Ccedilla" xMin="17" yMin="-220" xMax="622" yMax="746">
      <contour>
        <pt x="622" y="675" on="1"/>
        <pt x="541" y="583" on="1"/>
        <pt x="519" y="614" on="0"/>
        <pt x="438" y="649" on="0"/>
        <pt x="398" y="649" on="1"/>
        <pt x="338" y="649" on="0"/>
        <pt x="243" y="587" on="0"/>
        <pt x="188" y="488" on="0"/>
        <pt x="160" y="376" on="0"/>
        <pt x="160" y="320" on="1"/>
        <pt x="160" y="263" on="0"/>
        <pt x="188" y="161" on="0"/>
        <pt x="266" y="82" on="0"/>
        <pt x="324" y="82" on="1"/>
        <pt x="412" y="82" on="0"/>
        <pt x="496" y="157" on="1"/>
        <pt x="543" y="62" on="1"/>
        <pt x="438" y="-2" on="0"/>
        <pt x="344" y="-10" on="1"/>
        <pt x="323" y="-42" on="1"/>
        <pt x="373" y="-67" on="0"/>
        <pt x="373" y="-112" on="1"/>
        <pt x="373" y="-197" on="0"/>
        <pt x="215" y="-220" on="1"/>
        <pt x="199" y="-158" on="1"/>
        <pt x="201" y="-158" on="0"/>
        <pt x="220" y="-155" on="0"/>
        <pt x="230" y="-153" on="0"/>
        <pt x="248" y="-149" on="0"/>
        <pt x="258" y="-144" on="0"/>
        <pt x="270" y="-136" on="0"/>
        <pt x="275" y="-125" on="0"/>
        <pt x="275" y="-118" on="1"/>
        <pt x="275" y="-99" on="0"/>
        <pt x="218" y="-82" on="1"/>
        <pt x="267" y="-10" on="1"/>
        <pt x="145" y="1" on="0"/>
        <pt x="17" y="162" on="0"/>
        <pt x="17" y="293" on="1"/>
        <pt x="17" y="380" on="0"/>
        <pt x="70" y="541" on="0"/>
        <pt x="166" y="669" on="0"/>
        <pt x="316" y="746" on="0"/>
        <pt x="406" y="746" on="1"/>
        <pt x="464" y="746" on="0"/>
        <pt x="588" y="710" on="0"/>
      </contour>
    </TTGlyph>
    <TTGlyph name="D" xMin="11" yMin="0" xMax="647" yMax="732">
      <contour>
        <pt x="647" y="435" on="1"/>
        <pt x="647" y="319" on="0"/>
        <pt x="556" y="123" on="0"/>
        <pt x="376" y="0" on="0"/>
        <pt x="258" y="0" on="1"/>
        <pt x="11" y="0" on="1"/>
        <pt x="101" y="671" on="1"/>
        <pt x="94" y="732" on="1"/>
        <pt x="357" y="732" on="1"/>
        <pt x="495" y="732" on="0"/>
        <pt x="647" y="573" on="0"/>
      </contour>
      <contour>
        <pt x="505" y="423" on="1"/>
        <pt x="505" y="515" on="0"/>
        <pt x="423" y="633" on="0"/>
        <pt x="335" y="633" on="1"/>
        <pt x="227" y="633" on="1"/>
        <pt x="156" y="99" on="1"/>
        <pt x="266" y="99" on="1"/>
        <pt x="327" y="99" on="0"/>
        <pt x="422" y="158" on="0"/>
        <pt x="477" y="255" on="0"/>
        <pt x="505" y="366" on="0"/>
      </contour>
    </TTGlyph>
    <TTGlyph name="Delta" xMin="-30" yMin="0" xMax="573" yMax="732">
      <contour>
        <pt x="564" y="0" on="1"/>
        <pt x="-30" y="0" on="1"/>
        <pt x="-21" y="67" on="1"/>
        <pt x="312" y="732" on="1"/>
        <pt x="415" y="732" on="1"/>
        <pt x="573" y="67" on="1"/>
      </contour>
      <contour>
        <pt x="103" y="99" on="1"/>
        <pt x="424" y="99" on="1"/>
        <pt x="377" y="298" on="0"/>
        <pt x="338" y="487" on="1"/>
        <pt x="335" y="505" on="0"/>
        <pt x="330" y="581" on="0"/>
        <pt x="329" y="586" on="1"/>
        <pt x="301" y="506" on="0"/>
        <pt x="291" y="486" on="1"/>
        <pt x="171" y="232" on="0"/>
      </contour>
    </TTGlyph>
    <TTGlyph name="E" xMin="11" yMin="0" xMax="532" yMax="732">
      <contour>
        <pt x="532" y="732" on="1"/>
        <pt x="519" y="633" on="1"/>
        <pt x="226" y="633" on="1"/>
        <pt x="198" y="426" on="1"/>
        <pt x="422" y="426" on="1"/>
        <pt x="409" y="327" on="1"/>
        <pt x="185" y="327" on="1"/>
        <pt x="155" y="99" on="1"/>
        <pt x="447" y="99" on="1"/>
        <pt x="434" y="0" on="1"/>
        <pt x="11" y="0" on="1"/>
        <pt x="101" y="671" on="1"/>
        <pt x="94" y="732" on="1"/>
      </contour>
    </TTGlyph>
    <TTGlyph name="Eacute" xMin="11" yMin="0" xMax="547" yMax="936">
      <component glyphName="acute" x="249" y="181" flags="0x4"/>
      <component glyphName="E" x="0" y="0" flags="0x4"/>
    </TTGlyph>
    <TTGlyph name="Ecircumflex" xMin="11" yMin="0" xMax="532" yMax="916">
      <component glyphName="circumflex" x="201" y="183" flags="0x4"/>
      <component glyphName="E" x="0" y="0" flags="0x4"/>
    </TTGlyph>
    <TTGlyph name="Edieresis" xMin="11" yMin="0" xMax="532" yMax="882">
      <component glyphName="dieresis" x="189" y="198" flags="0x4"/>
      <component glyphName="E" x="0" y="0" flags="0x4"/>
    </TTGlyph>
    <TTGlyph name="Egrave" xMin="11" yMin="0" xMax="532" yMax="936">
      <component glyphName="grave" x="135" y="181" flags="0x4"/>
      <component glyphName="E" x="0" y="0" flags="0x4"/>
    </TTGlyph>
    <TTGlyph name="Eth" xMin="-24" yMin="0" xMax="647" yMax="732">
      <contour>
        <pt x="258" y="0" on="1"/>
        <pt x="11" y="0" on="1"/>
        <pt x="54" y="324" on="1"/>
        <pt x="-24" y="324" on="1"/>
        <pt x="-13" y="412" on="1"/>
        <pt x="66" y="412" on="1"/>
        <pt x="100" y="672" on="1"/>
        <pt x="100" y="675" on="0"/>
        <pt x="94" y="729" on="0"/>
        <pt x="93" y="732" on="1"/>
        <pt x="356" y="732" on="1"/>
        <pt x="495" y="732" on="0"/>
        <pt x="647" y="572" on="0"/>
        <pt x="647" y="435" on="1"/>
        <pt x="647" y="341" on="0"/>
        <pt x="577" y="157" on="0"/>
        <pt x="509" y="95" on="1"/>
        <pt x="406" y="0" on="0"/>
      </contour>
      <contour>
        <pt x="155" y="99" on="1"/>
        <pt x="266" y="99" on="1"/>
        <pt x="344" y="99" on="0"/>
        <pt x="456" y="198" on="0"/>
        <pt x="505" y="340" on="0"/>
        <pt x="505" y="422" on="1"/>
        <pt x="505" y="515" on="0"/>
        <pt x="423" y="633" on="0"/>
        <pt x="335" y="633" on="1"/>
        <pt x="226" y="633" on="1"/>
        <pt x="197" y="412" on="1"/>
        <pt x="340" y="412" on="1"/>
        <pt x="328" y="324" on="1"/>
        <pt x="185" y="324" on="1"/>
      </contour>
    </TTGlyph>
    <TTGlyph name="Euro" xMin="22" yMin="-12" xMax="515" yMax="510">
      <contour>
        <pt x="466" y="35" on="1"/>
        <pt x="415" y="9" on="0"/>
        <pt x="343" y="-12" on="0"/>
        <pt x="295" y="-12" on="1"/>
        <pt x="209" y="-12" on="0"/>
        <pt x="103" y="84" on="0"/>
        <pt x="96" y="173" on="1"/>
        <pt x="22" y="173" on="1"/>
        <pt x="29" y="220" on="1"/>
        <pt x="97" y="220" on="1"/>
        <pt x="98" y="250" on="0"/>
        <pt x="106" y="282" on="1"/>
        <pt x="37" y="282" on="1"/>
        <pt x="43" y="329" on="1"/>
        <pt x="119" y="329" on="1"/>
        <pt x="152" y="417" on="0"/>
        <pt x="286" y="510" on="0"/>
        <pt x="378" y="510" on="1"/>
        <pt x="413" y="510" on="0"/>
        <pt x="489" y="484" on="0"/>
        <pt x="515" y="462" on="1"/>
        <pt x="448" y="386" on="1"/>
        <pt x="404" y="425" on="0"/>
        <pt x="357" y="425" on="1"/>
        <pt x="321" y="425" on="0"/>
        <pt x="261" y="368" on="0"/>
        <pt x="245" y="329" on="1"/>
        <pt x="406" y="329" on="1"/>
        <pt x="400" y="282" on="1"/>
        <pt x="230" y="282" on="1"/>
        <pt x="222" y="242" on="0"/>
        <pt x="222" y="220" on="1"/>
        <pt x="392" y="220" on="1"/>
        <pt x="385" y="173" on="1"/>
        <pt x="224" y="173" on="1"/>
        <pt x="230" y="128" on="0"/>
        <pt x="282" y="72" on="0"/>
        <pt x="324" y="72" on="1"/>
        <pt x="343" y="72" on="0"/>
        <pt x="383" y="88" on="0"/>
        <pt x="407" y="104" on="0"/>
        <pt x="429" y="121" on="1"/>
      </contour>
    </TTGlyph>
    <TTGlyph name="F" xMin="11" yMin="0" xMax="502" yMax="732">
      <contour>
        <pt x="502" y="732" on="1"/>
        <pt x="489" y="633" on="1"/>
        <pt x="227" y="633" on="1"/>
        <pt x="199" y="426" on="1"/>
        <pt x="402" y="426" on="1"/>
        <pt x="389" y="327" on="1"/>
        <pt x="186" y="327" on="1"/>
        <pt x="142" y="0" on="1"/>
        <pt x="11" y="0" on="1"/>
        <pt x="101" y="671" on="1"/>
        <pt x="95" y="732" on="1"/>
      </contour>
    </TTGlyph>
    <TTGlyph name="G" xMin="17" yMin="-11" xMax="655" yMax="744">
      <contour>
        <pt x="655" y="665" on="1"/>
        <pt x="575" y="583" on="1"/>
        <pt x="530" y="622" on="0"/>
        <pt x="464" y="650" on="0"/>
        <pt x="409" y="650" on="1"/>
        <pt x="344" y="650" on="0"/>
        <pt x="244" y="587" on="0"/>
        <pt x="187" y="485" on="0"/>
        <pt x="158" y="369" on="0"/>
        <pt x="158" y="308" on="1"/>
        <pt x="158" y="252" on="0"/>
        <pt x="184" y="157" on="0"/>
        <pt x="258" y="85" on="0"/>
        <pt x="316" y="85" on="1"/>
        <pt x="384" y="85" on="0"/>
        <pt x="477" y="176" on="0"/>
        <pt x="486" y="240" on="1"/>
        <pt x="494" y="302" on="1"/>
        <pt x="350" y="302" on="1"/>
        <pt x="361" y="390" on="1"/>
        <pt x="638" y="390" on="1"/>
        <pt x="600" y="130" on="0"/>
        <pt x="589" y="-1" on="1"/>
        <pt x="521" y="-1" on="1"/>
        <pt x="500" y="75" on="1"/>
        <pt x="447" y="30" on="0"/>
        <pt x="347" y="-11" on="0"/>
        <pt x="281" y="-11" on="1"/>
        <pt x="151" y="-11" on="0"/>
        <pt x="17" y="151" on="0"/>
        <pt x="17" y="284" on="1"/>
        <pt x="17" y="376" on="0"/>
        <pt x="71" y="541" on="0"/>
        <pt x="171" y="669" on="0"/>
        <pt x="327" y="744" on="0"/>
        <pt x="422" y="744" on="1"/>
        <pt x="486" y="744" on="0"/>
        <pt x="621" y="705" on="0"/>
      </contour>
    </TTGlyph>
    <TTGlyph name="H" xMin="11" yMin="0" xMax="663" yMax="732">
      <contour>
        <pt x="663" y="732" on="1"/>
        <pt x="565" y="0" on="1"/>
        <pt x="433" y="0" on="1"/>
        <pt x="477" y="327" on="1"/>
        <pt x="185" y="327" on="1"/>
        <pt x="142" y="0" on="1"/>
        <pt x="11" y="0" on="1"/>
        <pt x="101" y="671" on="1"/>
        <pt x="95" y="732" on="1"/>
        <pt x="239" y="732" on="1"/>
        <pt x="198" y="426" on="1"/>
        <pt x="490" y="426" on="1"/>
        <pt x="531" y="732" on="1"/>
      </contour>
    </TTGlyph>
    <TTGlyph name="I" xMin="11" yMin="0" xMax="239" yMax="732">
      <contour>
        <pt x="239" y="732" on="1"/>
        <pt x="142" y="0" on="1"/>
        <pt x="11" y="0" on="1"/>
        <pt x="101" y="671" on="1"/>
        <pt x="95" y="732" on="1"/>
      </contour>
    </TTGlyph>
    <TTGlyph name="Iacute" xMin="11" yMin="0" xMax="389" yMax="936">
      <component glyphName="acute" x="91" y="181" flags="0x4"/>
      <component glyphName="I" x="0" y="0" flags="0x4"/>
    </TTGlyph>
    <TTGlyph name="Icircumflex" xMin="11" yMin="0" xMax="324" yMax="916">
      <component glyphName="circumflex" x="49" y="183" flags="0x4"/>
      <component glyphName="I" x="0" y="0" flags="0x4"/>
    </TTGlyph>
    <TTGlyph name="Idieresis" xMin="11" yMin="0" xMax="318" yMax="881">
      <component glyphName="dieresis" x="41" y="197" flags="0x4"/>
      <component glyphName="I" x="0" y="0" flags="0x4"/>
    </TTGlyph>
    <TTGlyph name="Igrave" xMin="-13" yMin="0" xMax="241" yMax="936">
      <component glyphName="grave" x="-17" y="181" flags="0x4"/>
      <component glyphName="I" x="0" y="0" flags="0x4"/>
    </TTGlyph>
    <TTGlyph name="J" xMin="-226" yMin="-230" xMax="243" yMax="732">
      <contour>
        <pt x="243" y="732" on="1"/>
        <pt x="157" y="81" on="1"/>
        <pt x="151" y="37" on="0"/>
        <pt x="144" y="-10" on="0"/>
        <pt x="126" y="-87" on="0"/>
        <pt x="106" y="-129" on="0"/>
        <pt x="70" y="-183" on="0"/>
        <pt x="24" y="-210" on="0"/>
        <pt x="-42" y="-230" on="0"/>
        <pt x="-84" y="-230" on="1"/>
        <pt x="-162" y="-230" on="0"/>
        <pt x="-226" y="-186" on="1"/>
        <pt x="-164" y="-103" on="1"/>
        <pt x="-132" y="-139" on="0"/>
        <pt x="-90" y="-139" on="1"/>
        <pt x="-61" y="-139" on="0"/>
        <pt x="-18" y="-102" on="0"/>
        <pt x="6" y="-34" on="0"/>
        <pt x="16" y="13" on="0"/>
        <pt x="21" y="47" on="1"/>
        <pt x="105" y="671" on="1"/>
        <pt x="99" y="732" on="1"/>
      </contour>
    </TTGlyph>
    <TTGlyph name="K" xMin="11" yMin="0" xMax="588" yMax="732">
      <contour>
        <pt x="588" y="732" on="1"/>
        <pt x="330" y="387" on="1"/>
        <pt x="515" y="0" on="1"/>
        <pt x="361" y="0" on="1"/>
        <pt x="192" y="377" on="1"/>
        <pt x="142" y="0" on="1"/>
        <pt x="11" y="0" on="1"/>
        <pt x="101" y="671" on="1"/>
        <pt x="95" y="732" on="1"/>
        <pt x="239" y="732" on="1"/>
        <pt x="192" y="383" on="1"/>
        <pt x="447" y="732" on="1"/>
      </contour>
    </TTGlyph>
    <TTGlyph name="L" xMin="11" yMin="0" xMax="428" yMax="732">
      <contour>
        <pt x="428" y="99" on="1"/>
        <pt x="415" y="0" on="1"/>
        <pt x="11" y="0" on="1"/>
        <pt x="101" y="671" on="1"/>
        <pt x="96" y="732" on="1"/>
        <pt x="240" y="732" on="1"/>
        <pt x="156" y="99" on="1"/>
      </contour>
    </TTGlyph>
    <TTGlyph name="Lslash" xMin="-6" yMin="0" xMax="444" yMax="732">
      <contour>
        <pt x="431" y="0" on="1"/>
        <pt x="26" y="0" on="1"/>
        <pt x="59" y="245" on="1"/>
        <pt x="-6" y="215" on="1"/>
        <pt x="5" y="312" on="1"/>
        <pt x="71" y="342" on="1"/>
        <pt x="115" y="672" on="1"/>
        <pt x="115" y="676" on="0"/>
        <pt x="111" y="730" on="0"/>
        <pt x="111" y="732" on="1"/>
        <pt x="255" y="732" on="1"/>
        <pt x="212" y="406" on="1"/>
        <pt x="411" y="498" on="1"/>
        <pt x="398" y="400" on="1"/>
        <pt x="199" y="309" on="1"/>
        <pt x="171" y="99" on="1"/>
        <pt x="444" y="99" on="1"/>
      </contour>
    </TTGlyph>
    <TTGlyph name="M" xMin="11" yMin="-1" xMax="819" yMax="732">
      <contour>
        <pt x="819" y="732" on="1"/>
        <pt x="721" y="0" on="1"/>
        <pt x="590" y="0" on="1"/>
        <pt x="656" y="496" on="1"/>
        <pt x="658" y="510" on="0"/>
        <pt x="669" y="560" on="0"/>
        <pt x="670" y="568" on="1"/>
        <pt x="650" y="520" on="0"/>
        <pt x="638" y="496" on="1"/>
        <pt x="402" y="-1" on="1"/>
        <pt x="314" y="-1" on="1"/>
        <pt x="205" y="496" on="1"/>
        <pt x="193" y="551" on="0"/>
        <pt x="191" y="568" on="1"/>
        <pt x="188" y="507" on="0"/>
        <pt x="187" y="496" on="1"/>
        <pt x="120" y="0" on="1"/>
        <pt x="11" y="0" on="1"/>
        <pt x="100" y="671" on="1"/>
        <pt x="95" y="732" on="1"/>
        <pt x="287" y="732" on="1"/>
        <pt x="379" y="311" on="1"/>
        <pt x="386" y="282" on="0"/>
        <pt x="390" y="190" on="1"/>
        <pt x="413" y="268" on="0"/>
        <pt x="432" y="307" on="1"/>
        <pt x="632" y="732" on="1"/>
      </contour>
    </TTGlyph>
    <TTGlyph name="N" xMin="11" yMin="-5" xMax="671" yMax="732">
      <contour>
        <pt x="671" y="732" on="1"/>
        <pt x="572" y="-5" on="1"/>
        <pt x="465" y="-5" on="1"/>
        <pt x="220" y="497" on="1"/>
        <pt x="214" y="509" on="0"/>
        <pt x="189" y="564" on="1"/>
        <pt x="189" y="557" on="0"/>
        <pt x="188" y="529" on="0"/>
        <pt x="187" y="506" on="0"/>
        <pt x="186" y="497" on="1"/>
        <pt x="119" y="0" on="1"/>
        <pt x="11" y="0" on="1"/>
        <pt x="100" y="671" on="1"/>
        <pt x="95" y="732" on="1"/>
        <pt x="254" y="732" on="1"/>
        <pt x="470" y="293" on="1"/>
        <pt x="473" y="287" on="0"/>
        <pt x="482" y="267" on="0"/>
        <pt x="494" y="237" on="0"/>
        <pt x="499" y="227" on="1"/>
        <pt x="500" y="237" on="0"/>
        <pt x="501" y="290" on="0"/>
        <pt x="503" y="304" on="1"/>
        <pt x="560" y="732" on="1"/>
      </contour>
    </TTGlyph>
    <TTGlyph name="Ntilde" xMin="11" yMin="-5" xMax="671" yMax="870">
      <component glyphName="tilde" x="273" y="186" flags="0x4"/>
      <component glyphName="N" x="0" y="0" flags="0x4"/>
    </TTGlyph>
    <TTGlyph name="O" xMin="17" yMin="-11" xMax="690" yMax="743">
      <contour>
        <pt x="690" y="439" on="1"/>
        <pt x="690" y="352" on="0"/>
        <pt x="637" y="191" on="0"/>
        <pt x="541" y="65" on="0"/>
        <pt x="390" y="-11" on="0"/>
        <pt x="300" y="-11" on="1"/>
        <pt x="164" y="-11" on="0"/>
        <pt x="17" y="157" on="0"/>
        <pt x="17" y="295" on="1"/>
        <pt x="17" y="412" on="0"/>
        <pt x="104" y="613" on="0"/>
        <pt x="282" y="743" on="0"/>
        <pt x="401" y="743" on="1"/>
        <pt x="540" y="743" on="0"/>
        <pt x="690" y="579" on="0"/>
      </contour>
      <contour>
        <pt x="549" y="434" on="1"/>
        <pt x="549" y="526" on="0"/>
        <pt x="475" y="648" on="0"/>
        <pt x="390" y="648" on="1"/>
        <pt x="340" y="648" on="0"/>
        <pt x="258" y="602" on="0"/>
        <pt x="207" y="529" on="0"/>
        <pt x="172" y="435" on="0"/>
        <pt x="157" y="343" on="0"/>
        <pt x="157" y="298" on="1"/>
        <pt x="157" y="207" on="0"/>
        <pt x="231" y="84" on="0"/>
        <pt x="316" y="84" on="1"/>
        <pt x="378" y="84" on="0"/>
        <pt x="473" y="152" on="0"/>
        <pt x="524" y="261" on="0"/>
        <pt x="549" y="377" on="0"/>
      </contour>
    </TTGlyph>
    <TTGlyph name="OE" xMin="17" yMin="-11" xMax="1018" yMax="743">
      <contour>
        <pt x="1018" y="732" on="1"/>
        <pt x="1005" y="633" on="1"/>
        <pt x="712" y="633" on="1"/>
        <pt x="684" y="426" on="1"/>
        <pt x="908" y="426" on="1"/>
        <pt x="895" y="327" on="1"/>
        <pt x="671" y="327" on="1"/>
        <pt x="641" y="99" on="1"/>
        <pt x="933" y="99" on="1"/>
        <pt x="920" y="0" on="1"/>
        <pt x="497" y="0" on="1"/>
        <pt x="506" y="68" on="1"/>
        <pt x="460" y="24" on="0"/>
        <pt x="363" y="-11" on="0"/>
        <pt x="300" y="-11" on="1"/>
        <pt x="164" y="-11" on="0"/>
        <pt x="17" y="157" on="0"/>
        <pt x="17" y="295" on="1"/>
        <pt x="17" y="412" on="0"/>
        <pt x="104" y="613" on="0"/>
        <pt x="282" y="743" on="0"/>
        <pt x="401" y="743" on="1"/>
        <pt x="516" y="743" on="0"/>
        <pt x="586" y="667" on="1"/>
        <pt x="595" y="732" on="1"/>
      </contour>
      <contour>
        <pt x="549" y="434" on="1"/>
        <pt x="549" y="526" on="0"/>
        <pt x="475" y="648" on="0"/>
        <pt x="390" y="648" on="1"/>
        <pt x="340" y="648" on="0"/>
        <pt x="258" y="602" on="0"/>
        <pt x="207" y="529" on="0"/>
        <pt x="172" y="435" on="0"/>
        <pt x="157" y="343" on="0"/>
        <pt x="157" y="298" on="1"/>
        <pt x="157" y="207" on="0"/>
        <pt x="231" y="84" on="0"/>
        <pt x="316" y="84" on="1"/>
        <pt x="378" y="84" on="0"/>
        <pt x="473" y="152" on="0"/>
        <pt x="524" y="261" on="0"/>
        <pt x="549" y="377" on="0"/>
      </contour>
    </TTGlyph>
    <TTGlyph name="Oacute" xMin="17" yMin="-11" xMax="690" yMax="936">
      <component glyphName="acute" x="339" y="181" flags="0x4"/>
      <component glyphName="O" x="0" y="0" flags="0x4"/>
    </TTGlyph>
    <TTGlyph name="Ocircumflex" xMin="17" yMin="-11" xMax="690" yMax="916">
      <component glyphName="circumflex" x="287" y="183" flags="0x4"/>
      <component glyphName="O" x="0" y="0" flags="0x4"/>
    </TTGlyph>
    <TTGlyph name="Odieresis" xMin="17" yMin="-11" xMax="690" yMax="881">
      <component glyphName="dieresis" x="281" y="197" flags="0x4"/>
      <component glyphName="O" x="0" y="0" flags="0x4"/>
    </TTGlyph>
    <TTGlyph name="Ograve" xMin="17" yMin="-11" xMax="690" yMax="936">
      <component glyphName="grave" x="215" y="181" flags="0x4"/>
      <component glyphName="O" x="0" y="0" flags="0x4"/>
    </TTGlyph>
    <TTGlyph name="Omega" xMin="0" yMin="0" xMax="724" yMax="743">
      <contour>
        <pt x="684" y="0" on="1"/>
        <pt x="404" y="0" on="1"/>
        <pt x="414" y="76" on="1"/>
        <pt x="458" y="92" on="0"/>
        <pt x="527" y="172" on="0"/>
        <pt x="564" y="273" on="0"/>
        <pt x="582" y="374" on="0"/>
        <pt x="582" y="422" on="1"/>
        <pt x="582" y="517" on="0"/>
        <pt x="508" y="644" on="0"/>
        <pt x="426" y="644" on="1"/>
        <pt x="376" y="644" on="0"/>
        <pt x="293" y="592" on="0"/>
        <pt x="242" y="511" on="0"/>
        <pt x="207" y="410" on="0"/>
        <pt x="193" y="317" on="0"/>
        <pt x="193" y="276" on="1"/>
        <pt x="193" y="116" on="0"/>
        <pt x="289" y="76" on="1"/>
        <pt x="279" y="0" on="1"/>
        <pt x="0" y="0" on="1"/>
        <pt x="12" y="99" on="1"/>
        <pt x="76" y="99" on="1"/>
        <pt x="143" y="93" on="1"/>
        <pt x="103" y="121" on="0"/>
        <pt x="56" y="243" on="0"/>
        <pt x="56" y="314" on="1"/>
        <pt x="56" y="495" on="0"/>
        <pt x="273" y="743" on="0"/>
        <pt x="439" y="743" on="1"/>
        <pt x="576" y="743" on="0"/>
        <pt x="724" y="575" on="0"/>
        <pt x="724" y="437" on="1"/>
        <pt x="724" y="336" on="0"/>
        <pt x="635" y="134" on="0"/>
        <pt x="564" y="93" on="1"/>
        <pt x="633" y="99" on="1"/>
        <pt x="697" y="99" on="1"/>
      </contour>
    </TTGlyph>
    <TTGlyph name="Oslash" xMin="12" yMin="-66" xMax="695" yMax="770">
      <contour>
        <pt x="695" y="439" on="1"/>
        <pt x="695" y="352" on="0"/>
        <pt x="642" y="191" on="0"/>
        <pt x="545" y="65" on="0"/>
        <pt x="395" y="-11" on="0"/>
        <pt x="304" y="-11" on="1"/>
        <pt x="218" y="-11" on="0"/>
        <pt x="154" y="25" on="1"/>
        <pt x="83" y="-66" on="1"/>
        <pt x="12" y="-11" on="1"/>
        <pt x="86" y="84" on="1"/>
        <pt x="22" y="163" on="0"/>
        <pt x="22" y="295" on="1"/>
        <pt x="22" y="412" on="0"/>
        <pt x="109" y="613" on="0"/>
        <pt x="287" y="743" on="0"/>
        <pt x="406" y="743" on="1"/>
        <pt x="505" y="743" on="0"/>
        <pt x="570" y="702" on="1"/>
        <pt x="624" y="770" on="1"/>
        <pt x="695" y="715" on="1"/>
        <pt x="637" y="641" on="1"/>
        <pt x="695" y="564" on="0"/>
      </contour>
      <contour>
        <pt x="498" y="610" on="1"/>
        <pt x="458" y="648" on="0"/>
        <pt x="395" y="648" on="1"/>
        <pt x="345" y="648" on="0"/>
        <pt x="263" y="602" on="0"/>
        <pt x="212" y="529" on="0"/>
        <pt x="177" y="435" on="0"/>
        <pt x="162" y="343" on="0"/>
        <pt x="162" y="298" on="1"/>
        <pt x="162" y="243" on="0"/>
        <pt x="175" y="198" on="1"/>
      </contour>
      <contour>
        <pt x="554" y="434" on="1"/>
        <pt x="554" y="483" on="0"/>
        <pt x="544" y="523" on="1"/>
        <pt x="225" y="116" on="1"/>
        <pt x="263" y="84" on="0"/>
        <pt x="321" y="84" on="1"/>
        <pt x="383" y="84" on="0"/>
        <pt x="478" y="152" on="0"/>
        <pt x="529" y="261" on="0"/>
        <pt x="554" y="377" on="0"/>
      </contour>
    </TTGlyph>
    <TTGlyph name="Otilde" xMin="17" yMin="-11" xMax="690" yMax="871">
      <component glyphName="tilde" x="272" y="187" flags="0x4"/>
      <component glyphName="O" x="0" y="0" flags="0x4"/>
    </TTGlyph>
    <TTGlyph name="P" xMin="11" yMin="0" xMax="541" yMax="732">
      <contour>
        <pt x="541" y="541" on="1"/>
        <pt x="541" y="421" on="0"/>
        <pt x="383" y="294" on="0"/>
        <pt x="258" y="294" on="1"/>
        <pt x="181" y="294" on="1"/>
        <pt x="142" y="0" on="1"/>
        <pt x="11" y="0" on="1"/>
        <pt x="101" y="671" on="1"/>
        <pt x="95" y="732" on="1"/>
        <pt x="316" y="732" on="1"/>
        <pt x="414" y="732" on="0"/>
        <pt x="541" y="638" on="0"/>
      </contour>
      <contour>
        <pt x="402" y="538" on="1"/>
        <pt x="402" y="584" on="0"/>
        <pt x="354" y="633" on="0"/>
        <pt x="308" y="633" on="1"/>
        <pt x="227" y="633" on="1"/>
        <pt x="195" y="391" on="1"/>
        <pt x="275" y="391" on="1"/>
        <pt x="334" y="391" on="0"/>
        <pt x="402" y="478" on="0"/>
      </contour>
    </TTGlyph>
    <TTGlyph name="Q" xMin="17" yMin="-216" xMax="1070" yMax="744">
      <contour>
        <pt x="1070" y="-160" on="1"/>
        <pt x="1016" y="-179" on="0"/>
        <pt x="953" y="-199" on="0"/>
        <pt x="859" y="-216" on="0"/>
        <pt x="814" y="-216" on="1"/>
        <pt x="761" y="-216" on="0"/>
        <pt x="628" y="-176" on="0"/>
        <pt x="535" y="-132" on="0"/>
        <pt x="387" y="-56" on="0"/>
        <pt x="357" y="-42" on="1"/>
        <pt x="344" y="-36" on="0"/>
        <pt x="311" y="-25" on="0"/>
        <pt x="289" y="-19" on="0"/>
        <pt x="249" y="-10" on="0"/>
        <pt x="240" y="-8" on="1"/>
        <pt x="17" y="46" on="0"/>
        <pt x="17" y="290" on="1"/>
        <pt x="17" y="407" on="0"/>
        <pt x="105" y="611" on="0"/>
        <pt x="286" y="744" on="0"/>
        <pt x="405" y="744" on="1"/>
        <pt x="542" y="744" on="0"/>
        <pt x="690" y="572" on="0"/>
        <pt x="690" y="433" on="1"/>
        <pt x="690" y="306" on="0"/>
        <pt x="575" y="83" on="0"/>
        <pt x="468" y="27" on="1"/>
        <pt x="546" y="-16" on="0"/>
        <pt x="646" y="-67" on="0"/>
        <pt x="807" y="-122" on="0"/>
        <pt x="866" y="-122" on="1"/>
        <pt x="926" y="-122" on="0"/>
        <pt x="1046" y="-87" on="1"/>
      </contour>
      <contour>
        <pt x="551" y="432" on="1"/>
        <pt x="551" y="489" on="0"/>
        <pt x="525" y="581" on="0"/>
        <pt x="450" y="648" on="0"/>
        <pt x="392" y="648" on="1"/>
        <pt x="332" y="648" on="0"/>
        <pt x="237" y="578" on="0"/>
        <pt x="185" y="468" on="0"/>
        <pt x="158" y="352" on="0"/>
        <pt x="158" y="297" on="1"/>
        <pt x="158" y="207" on="0"/>
        <pt x="233" y="85" on="0"/>
        <pt x="317" y="85" on="1"/>
        <pt x="378" y="85" on="0"/>
        <pt x="472" y="153" on="0"/>
        <pt x="525" y="260" on="0"/>
        <pt x="551" y="376" on="0"/>
      </contour>
    </TTGlyph>
    <TTGlyph name="R" xMin="11" yMin="0" xMax="543" yMax="732">
      <contour>
        <pt x="543" y="552" on="1"/>
        <pt x="543" y="477" on="0"/>
        <pt x="445" y="366" on="0"/>
        <pt x="369" y="347" on="1"/>
        <pt x="535" y="0" on="1"/>
        <pt x="387" y="0" on="1"/>
        <pt x="238" y="326" on="1"/>
        <pt x="186" y="326" on="1"/>
        <pt x="142" y="0" on="1"/>
        <pt x="11" y="0" on="1"/>
        <pt x="101" y="671" on="1"/>
        <pt x="95" y="732" on="1"/>
        <pt x="334" y="732" on="1"/>
        <pt x="423" y="732" on="0"/>
        <pt x="543" y="641" on="0"/>
      </contour>
      <contour>
        <pt x="404" y="549" on="1"/>
        <pt x="404" y="589" on="0"/>
        <pt x="349" y="632" on="0"/>
        <pt x="308" y="632" on="1"/>
        <pt x="226" y="632" on="1"/>
        <pt x="199" y="424" on="1"/>
        <pt x="259" y="424" on="1"/>
        <pt x="325" y="424" on="0"/>
        <pt x="404" y="484" on="0"/>
      </contour>
    </TTGlyph>
    <TTGlyph name="S" xMin="-36" yMin="-12" xMax="509" yMax="744">
      <contour>
        <pt x="509" y="684" on="1"/>
        <pt x="450" y="592" on="1"/>
        <pt x="428" y="616" on="0"/>
        <pt x="342" y="648" on="0"/>
        <pt x="307" y="648" on="1"/>
        <pt x="262" y="648" on="0"/>
        <pt x="198" y="595" on="0"/>
        <pt x="198" y="550" on="1"/>
        <pt x="198" y="521" on="0"/>
        <pt x="237" y="472" on="0"/>
        <pt x="295" y="441" on="0"/>
        <pt x="363" y="399" on="0"/>
        <pt x="421" y="357" on="0"/>
        <pt x="460" y="285" on="0"/>
        <pt x="460" y="240" on="1"/>
        <pt x="460" y="127" on="0"/>
        <pt x="299" y="-12" on="0"/>
        <pt x="183" y="-12" on="1"/>
        <pt x="53" y="-12" on="0"/>
        <pt x="-36" y="49" on="1"/>
        <pt x="27" y="157" on="1"/>
        <pt x="93" y="84" on="0"/>
        <pt x="184" y="84" on="1"/>
        <pt x="238" y="84" on="0"/>
        <pt x="317" y="151" on="0"/>
        <pt x="317" y="204" on="1"/>
        <pt x="317" y="240" on="0"/>
        <pt x="263" y="296" on="0"/>
        <pt x="186" y="338" on="0"/>
        <pt x="108" y="384" on="0"/>
        <pt x="54" y="462" on="0"/>
        <pt x="54" y="514" on="1"/>
        <pt x="54" y="629" on="0"/>
        <pt x="213" y="744" on="0"/>
        <pt x="333" y="744" on="1"/>
        <pt x="374" y="744" on="0"/>
        <pt x="481" y="709" on="0"/>
      </contour>
    </TTGlyph>
    <TTGlyph name="Scaron" xMin="-36" yMin="-12" xMax="509" yMax="917">
      <component glyphName="caron" x="185" y="184" flags="0x4"/>
      <component glyphName="S" x="0" y="0" flags="0x4"/>
    </TTGlyph>
    <TTGlyph name="T" xMin="30" yMin="0" xMax="568" yMax="732">
      <contour>
        <pt x="568" y="732" on="1"/>
        <pt x="554" y="633" on="1"/>
        <pt x="359" y="633" on="1"/>
        <pt x="274" y="0" on="1"/>
        <pt x="138" y="0" on="1"/>
        <pt x="222" y="633" on="1"/>
        <pt x="30" y="633" on="1"/>
        <pt x="43" y="732" on="1"/>
      </contour>
    </TTGlyph>
    <TTGlyph name="Thorn" xMin="29" yMin="0" xMax="544" yMax="732">
      <contour>
        <pt x="159" y="0" on="1"/>
        <pt x="29" y="0" on="1"/>
        <pt x="118" y="671" on="1"/>
        <pt x="118" y="672" on="0"/>
        <pt x="113" y="729" on="0"/>
        <pt x="113" y="732" on="1"/>
        <pt x="258" y="732" on="1"/>
        <pt x="243" y="617" on="1"/>
        <pt x="317" y="617" on="1"/>
        <pt x="420" y="617" on="0"/>
        <pt x="544" y="532" on="0"/>
        <pt x="544" y="437" on="1"/>
        <pt x="544" y="372" on="0"/>
        <pt x="495" y="270" on="0"/>
        <pt x="413" y="210" on="0"/>
        <pt x="315" y="179" on="0"/>
        <pt x="261" y="179" on="1"/>
        <pt x="183" y="179" on="1"/>
      </contour>
      <contour>
        <pt x="197" y="276" on="1"/>
        <pt x="277" y="276" on="1"/>
        <pt x="333" y="276" on="0"/>
        <pt x="403" y="359" on="0"/>
        <pt x="403" y="422" on="1"/>
        <pt x="403" y="467" on="0"/>
        <pt x="356" y="518" on="0"/>
        <pt x="310" y="518" on="1"/>
        <pt x="229" y="518" on="1"/>
      </contour>
    </TTGlyph>
    <TTGlyph name="U" xMin="35" yMin="-11" xMax="648" yMax="732">
      <contour>
        <pt x="648" y="732" on="1"/>
        <pt x="587" y="278" on="1"/>
        <pt x="568" y="138" on="0"/>
        <pt x="421" y="-11" on="0"/>
        <pt x="274" y="-11" on="1"/>
        <pt x="160" y="-11" on="0"/>
        <pt x="35" y="103" on="0"/>
        <pt x="35" y="216" on="1"/>
        <pt x="35" y="250" on="0"/>
        <pt x="39" y="278" on="1"/>
        <pt x="92" y="672" on="1"/>
        <pt x="85" y="732" on="1"/>
        <pt x="234" y="732" on="1"/>
        <pt x="169" y="243" on="1"/>
        <pt x="167" y="225" on="0"/>
        <pt x="167" y="216" on="1"/>
        <pt x="167" y="155" on="0"/>
        <pt x="239" y="84" on="0"/>
        <pt x="301" y="84" on="1"/>
        <pt x="372" y="84" on="0"/>
        <pt x="466" y="178" on="0"/>
        <pt x="475" y="245" on="1"/>
        <pt x="541" y="732" on="1"/>
      </contour>
    </TTGlyph>
    <TTGlyph name="Uacute" xMin="35" yMin="-11" xMax="648" yMax="936">
      <component glyphName="acute" x="313" y="181" flags="0x4"/>
      <component glyphName="U" x="0" y="0" flags="0x4"/>
    </TTGlyph>
    <TTGlyph name="Ucircumflex" xMin="35" yMin="-11" xMax="648" yMax="916">
      <component glyphName="circumflex" x="262" y="183" flags="0x4"/>
      <component glyphName="U" x="0" y="0" flags="0x4"/>
    </TTGlyph>
    <TTGlyph name="Udieresis" xMin="35" yMin="-11" xMax="648" yMax="884">
      <component glyphName="dieresis" x="257" y="200" flags="0x4"/>
      <component glyphName="U" x="0" y="0" flags="0x4"/>
    </TTGlyph>
    <TTGlyph name="Ugrave" xMin="35" yMin="-11" xMax="648" yMax="936">
      <component glyphName="grave" x="192" y="181" flags="0x4"/>
      <component glyphName="U" x="0" y="0" flags="0x4"/>
    </TTGlyph>
    <TTGlyph name="V" xMin="35" yMin="-1" xMax="616" yMax="732">
      <contour>
        <pt x="616" y="732" on="1"/>
        <pt x="278" y="-1" on="1"/>
        <pt x="176" y="-1" on="1"/>
        <pt x="35" y="732" on="1"/>
        <pt x="174" y="732" on="1"/>
        <pt x="253" y="314" on="1"/>
        <pt x="256" y="298" on="0"/>
        <pt x="262" y="241" on="0"/>
        <pt x="263" y="220" on="1"/>
        <pt x="264" y="200" on="1"/>
        <pt x="290" y="292" on="0"/>
        <pt x="311" y="337" on="1"/>
        <pt x="492" y="732" on="1"/>
      </contour>
    </TTGlyph>
    <TTGlyph name="W" xMin="35" yMin="-2" xMax="930" yMax="732">
      <contour>
        <pt x="930" y="732" on="1"/>
        <pt x="646" y="-2" on="1"/>
        <pt x="512" y="-2" on="1"/>
        <pt x="460" y="414" on="1"/>
        <pt x="456" y="526" on="1"/>
        <pt x="424" y="415" on="0"/>
        <pt x="403" y="361" on="1"/>
        <pt x="260" y="-2" on="1"/>
        <pt x="128" y="-2" on="1"/>
        <pt x="35" y="732" on="1"/>
        <pt x="172" y="732" on="1"/>
        <pt x="225" y="309" on="1"/>
        <pt x="234" y="182" on="1"/>
        <pt x="258" y="292" on="0"/>
        <pt x="280" y="346" on="1"/>
        <pt x="435" y="732" on="1"/>
        <pt x="554" y="732" on="1"/>
        <pt x="608" y="307" on="1"/>
        <pt x="614" y="182" on="1"/>
        <pt x="645" y="292" on="0"/>
        <pt x="666" y="346" on="1"/>
        <pt x="818" y="732" on="1"/>
      </contour>
    </TTGlyph>
    <TTGlyph name="X" xMin="-50" yMin="0" xMax="616" yMax="732">
      <contour>
        <pt x="616" y="732" on="1"/>
        <pt x="370" y="391" on="1"/>
        <pt x="537" y="0" on="1"/>
        <pt x="386" y="0" on="1"/>
        <pt x="273" y="260" on="1"/>
        <pt x="96" y="0" on="1"/>
        <pt x="-50" y="0" on="1"/>
        <pt x="224" y="377" on="1"/>
        <pt x="70" y="732" on="1"/>
        <pt x="221" y="732" on="1"/>
        <pt x="319" y="510" on="1"/>
        <pt x="471" y="732" on="1"/>
      </contour>
    </TTGlyph>
    <TTGlyph name="Y" xMin="35" yMin="0" xMax="578" yMax="732">
      <contour>
        <pt x="578" y="732" on="1"/>
        <pt x="315" y="327" on="1"/>
        <pt x="271" y="0" on="1"/>
        <pt x="141" y="0" on="1"/>
        <pt x="184" y="330" on="1"/>
        <pt x="35" y="732" on="1"/>
        <pt x="181" y="732" on="1"/>
        <pt x="277" y="472" on="1"/>
        <pt x="448" y="732" on="1"/>
      </contour>
    </TTGlyph>
    <TTGlyph name="Yacute" xMin="35" yMin="0" xMax="578" yMax="937">
      <component glyphName="acute" x="238" y="182" flags="0x4"/>
      <component glyphName="Y" x="0" y="0" flags="0x4"/>
    </TTGlyph>
    <TTGlyph name="Ydieresis" xMin="35" yMin="0" xMax="578" yMax="884">
      <component glyphName="dieresis" x="182" y="200" flags="0x4"/>
      <component glyphName="Y" x="0" y="0" flags="0x4"/>
    </TTGlyph>
    <TTGlyph name="Z" xMin="-17" yMin="0" xMax="561" yMax="732">
      <contour>
        <pt x="561" y="659" on="1"/>
        <pt x="164" y="99" on="1"/>
        <pt x="494" y="99" on="1"/>
        <pt x="480" y="0" on="1"/>
        <pt x="-17" y="0" on="1"/>
        <pt x="-17" y="82" on="1"/>
        <pt x="377" y="633" on="1"/>
        <pt x="81" y="633" on="1"/>
        <pt x="94" y="732" on="1"/>
        <pt x="561" y="732" on="1"/>
      </contour>
    </TTGlyph>
    <TTGlyph name="Zcaron" xMin="-17" yMin="0" xMax="561" yMax="916">
      <component glyphName="caron" x="196" y="183" flags="0x4"/>
      <component glyphName="Z" x="0" y="0" flags="0x4"/>
    </TTGlyph>
    <TTGlyph name="a" xMin="21" yMin="-12" xMax="530" yMax="509">
      <contour>
        <pt x="530" y="22" on="1"/>
        <pt x="483" y="-9" on="0"/>
        <pt x="424" y="-9" on="1"/>
        <pt x="394" y="-9" on="0"/>
        <pt x="348" y="30" on="0"/>
        <pt x="342" y="59" on="1"/>
        <pt x="338" y="59" on="1"/>
        <pt x="285" y="-12" on="0"/>
        <pt x="192" y="-12" on="1"/>
        <pt x="107" y="-12" on="0"/>
        <pt x="21" y="109" on="0"/>
        <pt x="21" y="197" on="1"/>
        <pt x="21" y="275" on="0"/>
        <pt x="81" y="415" on="0"/>
        <pt x="207" y="509" on="0"/>
        <pt x="290" y="509" on="1"/>
        <pt x="363" y="509" on="0"/>
        <pt x="410" y="459" on="1"/>
        <pt x="433" y="500" on="1"/>
        <pt x="496" y="500" on="1"/>
        <pt x="442" y="130" on="1"/>
        <pt x="440" y="116" on="0"/>
        <pt x="440" y="109" on="1"/>
        <pt x="440" y="73" on="0"/>
        <pt x="465" y="73" on="1"/>
        <pt x="482" y="73" on="0"/>
        <pt x="513" y="85" on="1"/>
      </contour>
      <contour>
        <pt x="368" y="387" on="1"/>
        <pt x="328" y="427" on="0"/>
        <pt x="282" y="427" on="1"/>
        <pt x="244" y="427" on="0"/>
        <pt x="186" y="376" on="0"/>
        <pt x="156" y="300" on="0"/>
        <pt x="142" y="227" on="0"/>
        <pt x="142" y="197" on="1"/>
        <pt x="142" y="71" on="0"/>
        <pt x="215" y="71" on="1"/>
        <pt x="251" y="71" on="0"/>
        <pt x="305" y="127" on="0"/>
        <pt x="340" y="230" on="0"/>
        <pt x="359" y="324" on="0"/>
      </contour>
    </TTGlyph>
    <TTGlyph name="aacute" xMin="21" yMin="-12" xMax="530" yMax="757">
      <component glyphName="acute" x="229" y="2" flags="0x4"/>
      <component glyphName="a" x="0" y="0" flags="0x4"/>
    </TTGlyph>
    <TTGlyph name="acircumflex" xMin="21" yMin="-12" xMax="530" yMax="737">
      <component glyphName="circumflex" x="193" y="4" flags="0x4"/>
      <component glyphName="a" x="0" y="0" flags="0x4"/>
    </TTGlyph>
    <TTGlyph name="acute" xMin="21" yMin="590" xMax="298" yMax="755">
      <contour>
        <pt x="298" y="755" on="1"/>
        <pt x="124" y="590" on="1"/>
        <pt x="21" y="590" on="1"/>
        <pt x="153" y="755" on="1"/>
      </contour>
    </TTGlyph>
    <TTGlyph name="adieresis" xMin="21" yMin="-12" xMax="530" yMax="694">
      <component glyphName="dieresis" x="170" y="10" flags="0x4"/>
      <component glyphName="a" x="0" y="0" flags="0x4"/>
    </TTGlyph>
    <TTGlyph name="ae" xMin="21" yMin="-12" xMax="752" yMax="510">
      <contour>
        <pt x="443" y="426" on="1"/>
        <pt x="482" y="472" on="0"/>
        <pt x="578" y="510" on="0"/>
        <pt x="617" y="510" on="1"/>
        <pt x="680" y="510" on="0"/>
        <pt x="752" y="451" on="0"/>
        <pt x="752" y="394" on="1"/>
        <pt x="752" y="362" on="0"/>
        <pt x="723" y="298" on="0"/>
        <pt x="659" y="235" on="0"/>
        <pt x="534" y="195" on="0"/>
        <pt x="449" y="194" on="1"/>
        <pt x="453" y="137" on="0"/>
        <pt x="509" y="76" on="0"/>
        <pt x="550" y="76" on="1"/>
        <pt x="614" y="76" on="0"/>
        <pt x="694" y="137" on="1"/>
        <pt x="736" y="54" on="1"/>
        <pt x="733" y="51" on="0"/>
        <pt x="721" y="42" on="0"/>
        <pt x="682" y="20" on="0"/>
        <pt x="639" y="2" on="0"/>
        <pt x="572" y="-12" on="0"/>
        <pt x="538" y="-12" on="1"/>
        <pt x="423" y="-12" on="0"/>
        <pt x="368" y="72" on="1"/>
        <pt x="296" y="-12" on="0"/>
        <pt x="192" y="-12" on="1"/>
        <pt x="107" y="-12" on="0"/>
        <pt x="21" y="109" on="0"/>
        <pt x="21" y="197" on="1"/>
        <pt x="21" y="275" on="0"/>
        <pt x="81" y="415" on="0"/>
        <pt x="207" y="509" on="0"/>
        <pt x="290" y="509" on="1"/>
        <pt x="392" y="509" on="0"/>
      </contour>
      <contour>
        <pt x="629" y="392" on="1"/>
        <pt x="629" y="426" on="0"/>
        <pt x="590" y="426" on="1"/>
        <pt x="557" y="426" on="0"/>
        <pt x="471" y="352" on="0"/>
        <pt x="455" y="279" on="1"/>
        <pt x="533" y="281" on="0"/>
        <pt x="629" y="346" on="0"/>
      </contour>
      <contour>
        <pt x="368" y="387" on="1"/>
        <pt x="328" y="427" on="0"/>
        <pt x="282" y="427" on="1"/>
        <pt x="244" y="427" on="0"/>
        <pt x="186" y="376" on="0"/>
        <pt x="156" y="300" on="0"/>
        <pt x="142" y="227" on="0"/>
        <pt x="142" y="197" on="1"/>
        <pt x="142" y="71" on="0"/>
        <pt x="215" y="71" on="1"/>
        <pt x="251" y="71" on="0"/>
        <pt x="305" y="127" on="0"/>
        <pt x="340" y="230" on="0"/>
        <pt x="359" y="324" on="0"/>
      </contour>
    </TTGlyph>
    <TTGlyph name="agrave" xMin="21" yMin="-12" xMax="530" yMax="757">
      <component glyphName="a" x="0" y="0" flags="0x204"/>
      <component glyphName="grave" x="98" y="2" flags="0x4"/>
    </TTGlyph>
    <TTGlyph name="ampersand" xMin="0" yMin="-12" xMax="649" yMax="694">
      <contour>
        <pt x="649" y="312" on="1"/>
        <pt x="649" y="202" on="0"/>
        <pt x="528" y="202" on="1"/>
        <pt x="484" y="93" on="0"/>
        <pt x="330" y="-12" on="0"/>
        <pt x="213" y="-12" on="1"/>
        <pt x="116" y="-12" on="0"/>
        <pt x="0" y="87" on="0"/>
        <pt x="0" y="182" on="1"/>
        <pt x="0" y="246" on="0"/>
        <pt x="60" y="359" on="0"/>
        <pt x="112" y="400" on="1"/>
        <pt x="91" y="439" on="0"/>
        <pt x="91" y="479" on="1"/>
        <pt x="91" y="550" on="0"/>
        <pt x="177" y="651" on="0"/>
        <pt x="299" y="694" on="0"/>
        <pt x="368" y="694" on="1"/>
        <pt x="422" y="694" on="0"/>
        <pt x="529" y="654" on="0"/>
        <pt x="563" y="616" on="1"/>
        <pt x="503" y="555" on="1"/>
        <pt x="478" y="580" on="0"/>
        <pt x="405" y="615" on="0"/>
        <pt x="373" y="615" on="1"/>
        <pt x="305" y="615" on="0"/>
        <pt x="209" y="535" on="0"/>
        <pt x="209" y="469" on="1"/>
        <pt x="209" y="459" on="0"/>
        <pt x="210" y="454" on="1"/>
        <pt x="264" y="473" on="0"/>
        <pt x="315" y="473" on="1"/>
        <pt x="365" y="473" on="0"/>
        <pt x="437" y="437" on="0"/>
        <pt x="437" y="392" on="1"/>
        <pt x="437" y="349" on="0"/>
        <pt x="342" y="300" on="0"/>
        <pt x="294" y="300" on="1"/>
        <pt x="226" y="300" on="0"/>
        <pt x="177" y="331" on="1"/>
        <pt x="132" y="270" on="0"/>
        <pt x="132" y="197" on="1"/>
        <pt x="132" y="142" on="0"/>
        <pt x="194" y="83" on="0"/>
        <pt x="250" y="83" on="1"/>
        <pt x="356" y="83" on="0"/>
        <pt x="411" y="159" on="1"/>
        <pt x="426" y="183" on="0"/>
        <pt x="426" y="195" on="1"/>
        <pt x="426" y="220" on="0"/>
        <pt x="398" y="220" on="1"/>
        <pt x="386" y="220" on="0"/>
        <pt x="367" y="204" on="0"/>
        <pt x="365" y="192" on="1"/>
        <pt x="287" y="192" on="1"/>
        <pt x="287" y="243" on="0"/>
        <pt x="353" y="291" on="0"/>
        <pt x="406" y="291" on="1"/>
        <pt x="532" y="279" on="1"/>
        <pt x="547" y="279" on="0"/>
        <pt x="570" y="298" on="0"/>
        <pt x="571" y="312" on="1"/>
      </contour>
      <contour>
        <pt x="341" y="391" on="1"/>
        <pt x="341" y="407" on="0"/>
        <pt x="310" y="407" on="1"/>
        <pt x="274" y="407" on="0"/>
        <pt x="243" y="389" on="1"/>
        <pt x="264" y="371" on="0"/>
        <pt x="290" y="371" on="1"/>
        <pt x="304" y="371" on="0"/>
        <pt x="341" y="381" on="0"/>
      </contour>
    </TTGlyph>
    <TTGlyph name="approxequal" xMin="74" yMin="79" xMax="583" yMax="428">
      <contour>
        <pt x="513" y="417" on="1"/>
        <pt x="583" y="372" on="1"/>
        <pt x="561" y="330" on="0"/>
        <pt x="484" y="270" on="0"/>
        <pt x="441" y="270" on="1"/>
        <pt x="392" y="270" on="0"/>
        <pt x="248" y="340" on="0"/>
        <pt x="225" y="340" on="1"/>
        <pt x="183" y="340" on="0"/>
        <pt x="144" y="281" on="1"/>
        <pt x="74" y="326" on="1"/>
        <pt x="96" y="368" on="0"/>
        <pt x="173" y="428" on="0"/>
        <pt x="216" y="428" on="1"/>
        <pt x="265" y="428" on="0"/>
        <pt x="409" y="358" on="0"/>
        <pt x="432" y="358" on="1"/>
        <pt x="474" y="358" on="0"/>
      </contour>
      <contour>
        <pt x="513" y="226" on="1"/>
        <pt x="583" y="181" on="1"/>
        <pt x="561" y="139" on="0"/>
        <pt x="484" y="79" on="0"/>
        <pt x="441" y="79" on="1"/>
        <pt x="392" y="79" on="0"/>
        <pt x="248" y="149" on="0"/>
        <pt x="225" y="149" on="1"/>
        <pt x="183" y="149" on="0"/>
        <pt x="144" y="90" on="1"/>
        <pt x="74" y="135" on="1"/>
        <pt x="96" y="177" on="0"/>
        <pt x="173" y="237" on="0"/>
        <pt x="216" y="237" on="1"/>
        <pt x="265" y="237" on="0"/>
        <pt x="409" y="167" on="0"/>
        <pt x="432" y="167" on="1"/>
        <pt x="474" y="167" on="0"/>
      </contour>
    </TTGlyph>
    <TTGlyph name="aring" xMin="21" yMin="-12" xMax="530" yMax="776">
      <component glyphName="ring" x="191" y="31" flags="0x4"/>
      <component glyphName="a" x="0" y="0" flags="0x4"/>
    </TTGlyph>
    <TTGlyph name="asciicircum" xMin="48" yMin="0" xMax="570" yMax="498">
      <contour>
        <pt x="570" y="0" on="1"/>
        <pt x="479" y="0" on="1"/>
        <pt x="309" y="368" on="1"/>
        <pt x="136" y="0" on="1"/>
        <pt x="48" y="0" on="1"/>
        <pt x="283" y="498" on="1"/>
        <pt x="335" y="498" on="1"/>
      </contour>
    </TTGlyph>
    <TTGlyph name="asciitilde" xMin="35" yMin="189" xMax="524" yMax="357">
      <contour>
        <pt x="524" y="299" on="1"/>
        <pt x="499" y="258" on="0"/>
        <pt x="419" y="194" on="0"/>
        <pt x="380" y="194" on="1"/>
        <pt x="340" y="194" on="0"/>
        <pt x="209" y="264" on="0"/>
        <pt x="174" y="264" on="1"/>
        <pt x="150" y="264" on="0"/>
        <pt x="110" y="218" on="0"/>
        <pt x="98" y="189" on="1"/>
        <pt x="35" y="244" on="1"/>
        <pt x="55" y="289" on="0"/>
        <pt x="132" y="354" on="0"/>
        <pt x="174" y="354" on="1"/>
        <pt x="220" y="354" on="0"/>
        <pt x="358" y="284" on="0"/>
        <pt x="380" y="284" on="1"/>
        <pt x="425" y="284" on="0"/>
        <pt x="464" y="357" on="1"/>
      </contour>
    </TTGlyph>
    <TTGlyph name="asterisk" xMin="54" yMin="353" xMax="456" yMax="741">
      <contour>
        <pt x="456" y="555" on="1"/>
        <pt x="295" y="528" on="1"/>
        <pt x="394" y="422" on="1"/>
        <pt x="296" y="353" on="1"/>
        <pt x="244" y="494" on="1"/>
        <pt x="154" y="356" on="1"/>
        <pt x="77" y="420" on="1"/>
        <pt x="204" y="531" on="1"/>
        <pt x="54" y="552" on="1"/>
        <pt x="98" y="659" on="1"/>
        <pt x="228" y="585" on="1"/>
        <pt x="221" y="741" on="1"/>
        <pt x="332" y="741" on="1"/>
        <pt x="285" y="585" on="1"/>
        <pt x="430" y="663" on="1"/>
      </contour>
    </TTGlyph>
    <TTGlyph name="at" xMin="45" yMin="-135" xMax="787" yMax="622">
      <contour>
        <pt x="451" y="-69" on="1"/>
        <pt x="466" y="-122" on="1"/>
        <pt x="420" y="-135" on="0"/>
        <pt x="367" y="-135" on="1"/>
        <pt x="227" y="-135" on="0"/>
        <pt x="45" y="52" on="0"/>
        <pt x="45" y="192" on="1"/>
        <pt x="45" y="271" on="0"/>
        <pt x="103" y="423" on="0"/>
        <pt x="205" y="546" on="0"/>
        <pt x="362" y="622" on="0"/>
        <pt x="454" y="622" on="1"/>
        <pt x="595" y="622" on="0"/>
        <pt x="787" y="454" on="0"/>
        <pt x="787" y="311" on="1"/>
        <pt x="787" y="210" on="0"/>
        <pt x="678" y="51" on="0"/>
        <pt x="591" y="51" on="1"/>
        <pt x="514" y="51" on="0"/>
        <pt x="483" y="107" on="1"/>
        <pt x="462" y="80" on="0"/>
        <pt x="398" y="50" on="0"/>
        <pt x="369" y="50" on="1"/>
        <pt x="306" y="50" on="0"/>
        <pt x="241" y="140" on="0"/>
        <pt x="241" y="206" on="1"/>
        <pt x="241" y="288" on="0"/>
        <pt x="355" y="440" on="0"/>
        <pt x="446" y="440" on="1"/>
        <pt x="499" y="440" on="0"/>
        <pt x="532" y="403" on="1"/>
        <pt x="549" y="433" on="1"/>
        <pt x="596" y="433" on="1"/>
        <pt x="558" y="196" on="0"/>
        <pt x="558" y="162" on="1"/>
        <pt x="558" y="107" on="0"/>
        <pt x="595" y="107" on="1"/>
        <pt x="651" y="107" on="0"/>
        <pt x="723" y="232" on="0"/>
        <pt x="723" y="311" on="1"/>
        <pt x="723" y="429" on="0"/>
        <pt x="569" y="568" on="0"/>
        <pt x="454" y="568" on="1"/>
        <pt x="352" y="568" on="0"/>
        <pt x="190" y="455" on="0"/>
        <pt x="109" y="285" on="0"/>
        <pt x="109" y="192" on="1"/>
        <pt x="109" y="75" on="0"/>
        <pt x="255" y="-81" on="0"/>
        <pt x="367" y="-81" on="1"/>
        <pt x="409" y="-81" on="0"/>
      </contour>
      <contour>
        <pt x="501" y="349" on="1"/>
        <pt x="471" y="378" on="0"/>
        <pt x="440" y="378" on="1"/>
        <pt x="405" y="378" on="0"/>
        <pt x="353" y="312" on="0"/>
        <pt x="332" y="237" on="0"/>
        <pt x="332" y="206" on="1"/>
        <pt x="332" y="112" on="0"/>
        <pt x="386" y="112" on="1"/>
        <pt x="413" y="112" on="0"/>
        <pt x="453" y="154" on="0"/>
        <pt x="479" y="232" on="0"/>
        <pt x="494" y="301" on="0"/>
      </contour>
    </TTGlyph>
    <TTGlyph name="atilde" xMin="21" yMin="-12" xMax="530" yMax="685">
      <component glyphName="tilde" x="190" y="1" flags="0x4"/>
      <component glyphName="a" x="0" y="0" flags="0x4"/>
    </TTGlyph>
    <TTGlyph name="b" xMin="27" yMin="-11" xMax="497" yMax="768">
      <contour>
        <pt x="497" y="301" on="1"/>
        <pt x="497" y="223" on="0"/>
        <pt x="423" y="83" on="0"/>
        <pt x="274" y="-11" on="0"/>
        <pt x="179" y="-11" on="1"/>
        <pt x="82" y="-11" on="0"/>
        <pt x="27" y="40" on="1"/>
        <pt x="117" y="713" on="1"/>
        <pt x="112" y="768" on="1"/>
        <pt x="239" y="768" on="1"/>
        <pt x="198" y="460" on="1"/>
        <pt x="251" y="510" on="0"/>
        <pt x="326" y="510" on="1"/>
        <pt x="412" y="510" on="0"/>
        <pt x="497" y="397" on="0"/>
      </contour>
      <contour>
        <pt x="376" y="325" on="1"/>
        <pt x="376" y="426" on="0"/>
        <pt x="305" y="426" on="1"/>
        <pt x="276" y="426" on="0"/>
        <pt x="208" y="382" on="0"/>
        <pt x="184" y="354" on="1"/>
        <pt x="151" y="108" on="1"/>
        <pt x="150" y="104" on="0"/>
        <pt x="150" y="98" on="1"/>
        <pt x="150" y="71" on="0"/>
        <pt x="192" y="71" on="1"/>
        <pt x="274" y="71" on="0"/>
        <pt x="376" y="233" on="0"/>
      </contour>
    </TTGlyph>
    <TTGlyph name="backslash" xMin="-18" yMin="0" xMax="345" yMax="732">
      <contour>
        <pt x="345" y="0" on="1"/>
        <pt x="251" y="0" on="1"/>
        <pt x="-18" y="732" on="1"/>
        <pt x="75" y="732" on="1"/>
      </contour>
    </TTGlyph>
    <TTGlyph name="bar" xMin="70" yMin="-116" xMax="168" yMax="745">
      <contour>
        <pt x="168" y="-116" on="1"/>
        <pt x="70" y="-116" on="1"/>
        <pt x="70" y="745" on="1"/>
        <pt x="168" y="745" on="1"/>
      </contour>
    </TTGlyph>
    <TTGlyph name="braceleft" xMin="38" yMin="-147" xMax="357" yMax="739">
      <contour>
        <pt x="357" y="739" on="1"/>
        <pt x="348" y="677" on="1"/>
        <pt x="299" y="677" on="0"/>
        <pt x="260" y="643" on="0"/>
        <pt x="253" y="593" on="1"/>
        <pt x="231" y="427" on="1"/>
        <pt x="218" y="325" on="0"/>
        <pt x="162" y="296" on="1"/>
        <pt x="199" y="273" on="0"/>
        <pt x="199" y="209" on="1"/>
        <pt x="199" y="187" on="0"/>
        <pt x="196" y="166" on="1"/>
        <pt x="174" y="0" on="1"/>
        <pt x="171" y="-22" on="0"/>
        <pt x="171" y="-38" on="1"/>
        <pt x="171" y="-66" on="0"/>
        <pt x="199" y="-84" on="0"/>
        <pt x="237" y="-84" on="1"/>
        <pt x="247" y="-84" on="1"/>
        <pt x="238" y="-147" on="1"/>
        <pt x="195" y="-147" on="1"/>
        <pt x="63" y="-147" on="0"/>
        <pt x="63" y="-19" on="1"/>
        <pt x="63" y="2" on="0"/>
        <pt x="66" y="24" on="1"/>
        <pt x="88" y="183" on="1"/>
        <pt x="89" y="188" on="0"/>
        <pt x="89" y="199" on="1"/>
        <pt x="89" y="226" on="0"/>
        <pt x="64" y="265" on="0"/>
        <pt x="38" y="266" on="1"/>
        <pt x="46" y="327" on="1"/>
        <pt x="106" y="327" on="0"/>
        <pt x="119" y="416" on="1"/>
        <pt x="139" y="569" on="1"/>
        <pt x="149" y="647" on="0"/>
        <pt x="230" y="739" on="0"/>
        <pt x="301" y="739" on="1"/>
      </contour>
    </TTGlyph>
    <TTGlyph name="braceright" xMin="-10" yMin="-147" xMax="308" yMax="739">
      <contour>
        <pt x="308" y="328" on="1"/>
        <pt x="300" y="267" on="1"/>
        <pt x="270" y="267" on="0"/>
        <pt x="232" y="216" on="0"/>
        <pt x="228" y="183" on="1"/>
        <pt x="207" y="24" on="1"/>
        <pt x="183" y="-147" on="0"/>
        <pt x="33" y="-147" on="1"/>
        <pt x="-10" y="-147" on="1"/>
        <pt x="-2" y="-85" on="1"/>
        <pt x="52" y="-85" on="0"/>
        <pt x="86" y="-55" on="0"/>
        <pt x="93" y="0" on="1"/>
        <pt x="115" y="166" on="1"/>
        <pt x="128" y="267" on="0"/>
        <pt x="184" y="296" on="1"/>
        <pt x="147" y="319" on="0"/>
        <pt x="147" y="383" on="1"/>
        <pt x="147" y="406" on="0"/>
        <pt x="150" y="427" on="1"/>
        <pt x="172" y="593" on="1"/>
        <pt x="174" y="604" on="0"/>
        <pt x="174" y="623" on="1"/>
        <pt x="174" y="653" on="0"/>
        <pt x="143" y="676" on="0"/>
        <pt x="105" y="676" on="1"/>
        <pt x="99" y="676" on="1"/>
        <pt x="108" y="739" on="1"/>
        <pt x="163" y="739" on="1"/>
        <pt x="283" y="739" on="0"/>
        <pt x="283" y="610" on="1"/>
        <pt x="283" y="590" on="0"/>
        <pt x="280" y="569" on="1"/>
        <pt x="259" y="416" on="1"/>
        <pt x="258" y="409" on="0"/>
        <pt x="258" y="393" on="1"/>
        <pt x="258" y="329" on="0"/>
      </contour>
    </TTGlyph>
    <TTGlyph name="bracketleft" xMin="20" yMin="-132" xMax="343" yMax="732">
      <contour>
        <pt x="343" y="732" on="1"/>
        <pt x="335" y="673" on="1"/>
        <pt x="241" y="673" on="1"/>
        <pt x="141" y="-73" on="1"/>
        <pt x="235" y="-73" on="1"/>
        <pt x="227" y="-132" on="1"/>
        <pt x="20" y="-132" on="1"/>
        <pt x="136" y="732" on="1"/>
      </contour>
    </TTGlyph>
    <TTGlyph name="bracketright" xMin="-12" yMin="-132" xMax="310" yMax="732">
      <contour>
        <pt x="310" y="732" on="1"/>
        <pt x="195" y="-132" on="1"/>
        <pt x="-12" y="-132" on="1"/>
        <pt x="-4" y="-73" on="1"/>
        <pt x="90" y="-73" on="1"/>
        <pt x="189" y="673" on="1"/>
        <pt x="96" y="673" on="1"/>
        <pt x="103" y="732" on="1"/>
      </contour>
    </TTGlyph>
    <TTGlyph name="breve" xMin="-3" yMin="572" xMax="300" yMax="732">
      <contour>
        <pt x="300" y="732" on="1"/>
        <pt x="280" y="656" on="0"/>
        <pt x="200" y="572" on="0"/>
        <pt x="127" y="572" on="1"/>
        <pt x="64" y="572" on="0"/>
        <pt x="-3" y="643" on="0"/>
        <pt x="-3" y="702" on="1"/>
        <pt x="-1" y="732" on="1"/>
        <pt x="66" y="732" on="1"/>
        <pt x="72" y="662" on="0"/>
        <pt x="139" y="662" on="1"/>
        <pt x="206" y="662" on="0"/>
        <pt x="231" y="732" on="1"/>
      </contour>
    </TTGlyph>
    <TTGlyph name="brokenbar" xMin="70" yMin="-116" xMax="168" yMax="745">
      <contour>
        <pt x="168" y="392" on="1"/>
        <pt x="70" y="392" on="1"/>
        <pt x="70" y="745" on="1"/>
        <pt x="168" y="745" on="1"/>
      </contour>
      <contour>
        <pt x="168" y="-116" on="1"/>
        <pt x="70" y="-116" on="1"/>
        <pt x="70" y="237" on="1"/>
        <pt x="168" y="237" on="1"/>
      </contour>
    </TTGlyph>
    <TTGlyph name="bullet" xMin="65" yMin="201" xMax="377" yMax="513">
      <contour>
        <pt x="331" y="467" on="1"/>
        <pt x="377" y="422" on="0"/>
        <pt x="377" y="292" on="0"/>
        <pt x="287" y="201" on="0"/>
        <pt x="222" y="201" on="1"/>
        <pt x="157" y="201" on="0"/>
        <pt x="65" y="292" on="0"/>
        <pt x="65" y="422" on="0"/>
        <pt x="156" y="513" on="0"/>
        <pt x="221" y="513" on="1"/>
        <pt x="286" y="513" on="0"/>
      </contour>
    </TTGlyph>
    <TTGlyph name="c" xMin="21" yMin="-12" xMax="441" yMax="510">
      <contour>
        <pt x="441" y="462" on="1"/>
        <pt x="372" y="383" on="1"/>
        <pt x="330" y="427" on="0"/>
        <pt x="282" y="427" on="1"/>
        <pt x="246" y="427" on="0"/>
        <pt x="191" y="381" on="0"/>
        <pt x="162" y="311" on="0"/>
        <pt x="147" y="241" on="0"/>
        <pt x="147" y="209" on="1"/>
        <pt x="147" y="152" on="0"/>
        <pt x="193" y="76" on="0"/>
        <pt x="244" y="76" on="1"/>
        <pt x="295" y="76" on="0"/>
        <pt x="354" y="121" on="1"/>
        <pt x="391" y="35" on="1"/>
        <pt x="303" y="-12" on="0"/>
        <pt x="221" y="-12" on="1"/>
        <pt x="131" y="-12" on="0"/>
        <pt x="21" y="107" on="0"/>
        <pt x="21" y="197" on="1"/>
        <pt x="21" y="327" on="0"/>
        <pt x="173" y="510" on="0"/>
        <pt x="296" y="510" on="1"/>
        <pt x="332" y="510" on="0"/>
        <pt x="415" y="484" on="0"/>
      </contour>
    </TTGlyph>
    <TTGlyph name="caron" xMin="2" yMin="588" xMax="295" yMax="733">
      <contour>
        <pt x="295" y="733" on="1"/>
        <pt x="179" y="588" on="1"/>
        <pt x="81" y="588" on="1"/>
        <pt x="2" y="733" on="1"/>
        <pt x="80" y="733" on="1"/>
        <pt x="140" y="659" on="1"/>
        <pt x="219" y="733" on="1"/>
      </contour>
    </TTGlyph>
    <TTGlyph name="ccedilla" xMin="17" yMin="-220" xMax="437" yMax="510">
      <contour>
        <pt x="437" y="462" on="1"/>
        <pt x="368" y="383" on="1"/>
        <pt x="326" y="427" on="0"/>
        <pt x="279" y="427" on="1"/>
        <pt x="243" y="427" on="0"/>
        <pt x="188" y="382" on="0"/>
        <pt x="158" y="311" on="0"/>
        <pt x="144" y="241" on="0"/>
        <pt x="144" y="209" on="1"/>
        <pt x="144" y="152" on="0"/>
        <pt x="189" y="76" on="0"/>
        <pt x="240" y="76" on="1"/>
        <pt x="290" y="76" on="0"/>
        <pt x="351" y="121" on="1"/>
        <pt x="387" y="35" on="1"/>
        <pt x="317" y="-2" on="0"/>
        <pt x="255" y="-10" on="1"/>
        <pt x="234" y="-42" on="1"/>
        <pt x="284" y="-67" on="0"/>
        <pt x="284" y="-112" on="1"/>
        <pt x="284" y="-197" on="0"/>
        <pt x="126" y="-220" on="1"/>
        <pt x="110" y="-158" on="1"/>
        <pt x="112" y="-158" on="0"/>
        <pt x="131" y="-155" on="0"/>
        <pt x="141" y="-153" on="0"/>
        <pt x="159" y="-149" on="0"/>
        <pt x="169" y="-144" on="0"/>
        <pt x="181" y="-136" on="0"/>
        <pt x="186" y="-125" on="0"/>
        <pt x="186" y="-118" on="1"/>
        <pt x="186" y="-99" on="0"/>
        <pt x="129" y="-82" on="1"/>
        <pt x="179" y="-9" on="1"/>
        <pt x="105" y="4" on="0"/>
        <pt x="17" y="118" on="0"/>
        <pt x="17" y="197" on="1"/>
        <pt x="17" y="327" on="0"/>
        <pt x="169" y="510" on="0"/>
        <pt x="292" y="510" on="1"/>
        <pt x="328" y="510" on="0"/>
        <pt x="411" y="484" on="0"/>
      </contour>
    </TTGlyph>
    <TTGlyph name="cedilla" xMin="35" yMin="-220" xMax="209" yMax="13">
      <contour>
        <pt x="209" y="-112" on="1"/>
        <pt x="209" y="-197" on="0"/>
        <pt x="51" y="-220" on="1"/>
        <pt x="35" y="-158" on="1"/>
        <pt x="37" y="-158" on="0"/>
        <pt x="56" y="-155" on="0"/>
        <pt x="66" y="-153" on="0"/>
        <pt x="84" y="-149" on="0"/>
        <pt x="94" y="-144" on="0"/>
        <pt x="106" y="-136" on="0"/>
        <pt x="111" y="-125" on="0"/>
        <pt x="111" y="-118" on="1"/>
        <pt x="111" y="-99" on="0"/>
        <pt x="54" y="-82" on="1"/>
        <pt x="119" y="13" on="1"/>
        <pt x="195" y="13" on="1"/>
        <pt x="159" y="-42" on="1"/>
        <pt x="209" y="-67" on="0"/>
      </contour>
    </TTGlyph>
    <TTGlyph name="cent" xMin="20" yMin="-128" xMax="440" yMax="622">
      <contour>
        <pt x="440" y="462" on="1"/>
        <pt x="373" y="386" on="1"/>
        <pt x="329" y="425" on="0"/>
        <pt x="282" y="425" on="1"/>
        <pt x="238" y="425" on="0"/>
        <pt x="173" y="347" on="0"/>
        <pt x="147" y="252" on="0"/>
        <pt x="147" y="209" on="1"/>
        <pt x="147" y="151" on="0"/>
        <pt x="194" y="72" on="0"/>
        <pt x="248" y="72" on="1"/>
        <pt x="291" y="72" on="0"/>
        <pt x="354" y="121" on="1"/>
        <pt x="390" y="35" on="1"/>
        <pt x="303" y="-12" on="0"/>
        <pt x="222" y="-12" on="1"/>
        <pt x="208" y="-12" on="1"/>
        <pt x="182" y="-128" on="1"/>
        <pt x="113" y="-128" on="1"/>
        <pt x="160" y="-5" on="1"/>
        <pt x="89" y="12" on="0"/>
        <pt x="20" y="119" on="0"/>
        <pt x="20" y="196" on="1"/>
        <pt x="20" y="319" on="0"/>
        <pt x="157" y="497" on="0"/>
        <pt x="276" y="509" on="1"/>
        <pt x="300" y="622" on="1"/>
        <pt x="370" y="622" on="1"/>
        <pt x="329" y="508" on="1"/>
        <pt x="395" y="499" on="0"/>
      </contour>
    </TTGlyph>
    <TTGlyph name="circumflex" xMin="-18" yMin="588" xMax="275" yMax="733">
      <contour>
        <pt x="275" y="588" on="1"/>
        <pt x="197" y="588" on="1"/>
        <pt x="137" y="662" on="1"/>
        <pt x="58" y="588" on="1"/>
        <pt x="-18" y="588" on="1"/>
        <pt x="98" y="733" on="1"/>
        <pt x="196" y="733" on="1"/>
      </contour>
    </TTGlyph>
    <TTGlyph name="colon" xMin="23" yMin="-12" xMax="223" yMax="432">
      <contour>
        <pt x="100" y="-12" on="1"/>
        <pt x="69" y="-12" on="0"/>
        <pt x="23" y="34" on="0"/>
        <pt x="23" y="65" on="1"/>
        <pt x="23" y="97" on="0"/>
        <pt x="68" y="143" on="0"/>
        <pt x="100" y="143" on="1"/>
        <pt x="132" y="143" on="0"/>
        <pt x="178" y="97" on="0"/>
        <pt x="178" y="33" on="0"/>
        <pt x="132" y="-12" on="0"/>
      </contour>
      <contour>
        <pt x="145" y="277" on="1"/>
        <pt x="114" y="277" on="0"/>
        <pt x="68" y="323" on="0"/>
        <pt x="68" y="354" on="1"/>
        <pt x="68" y="386" on="0"/>
        <pt x="113" y="432" on="0"/>
        <pt x="145" y="432" on="1"/>
        <pt x="177" y="432" on="0"/>
        <pt x="223" y="386" on="0"/>
        <pt x="223" y="322" on="0"/>
        <pt x="177" y="277" on="0"/>
      </contour>
    </TTGlyph>
    <TTGlyph name="comma" xMin="5" yMin="-134" xMax="181" yMax="139">
      <contour>
        <pt x="181" y="62" on="1"/>
        <pt x="181" y="7" on="0"/>
        <pt x="95" y="-97" on="0"/>
        <pt x="38" y="-134" on="1"/>
        <pt x="5" y="-93" on="1"/>
        <pt x="61" y="-46" on="0"/>
        <pt x="61" y="-16" on="1"/>
        <pt x="61" y="-10" on="0"/>
        <pt x="25" y="33" on="0"/>
        <pt x="25" y="59" on="1"/>
        <pt x="25" y="93" on="0"/>
        <pt x="72" y="139" on="0"/>
        <pt x="104" y="139" on="1"/>
        <pt x="138" y="139" on="0"/>
        <pt x="181" y="94" on="0"/>
      </contour>
    </TTGlyph>
    <TTGlyph name="copyright" xMin="39" yMin="-27" xMax="593" yMax="527">
      <contour>
        <pt x="316" y="-27" on="1"/>
        <pt x="201" y="-27" on="0"/>
        <pt x="39" y="135" on="0"/>
        <pt x="39" y="365" on="0"/>
        <pt x="201" y="527" on="0"/>
        <pt x="316" y="527" on="1"/>
        <pt x="430" y="527" on="0"/>
        <pt x="593" y="364" on="0"/>
        <pt x="593" y="136" on="0"/>
        <pt x="430" y="-27" on="0"/>
      </contour>
      <contour>
        <pt x="483" y="82" on="1"/>
        <pt x="553" y="152" on="0"/>
        <pt x="553" y="348" on="0"/>
        <pt x="414" y="487" on="0"/>
        <pt x="316" y="487" on="1"/>
        <pt x="218" y="487" on="0"/>
        <pt x="79" y="348" on="0"/>
        <pt x="79" y="152" on="0"/>
        <pt x="218" y="13" on="0"/>
        <pt x="316" y="13" on="1"/>
        <pt x="414" y="13" on="0"/>
      </contour>
      <contour>
        <pt x="450" y="386" on="1"/>
        <pt x="399" y="330" on="1"/>
        <pt x="367" y="357" on="0"/>
        <pt x="338" y="357" on="1"/>
        <pt x="298" y="357" on="0"/>
        <pt x="254" y="270" on="0"/>
        <pt x="254" y="225" on="1"/>
        <pt x="254" y="143" on="0"/>
        <pt x="317" y="143" on="1"/>
        <pt x="353" y="143" on="0"/>
        <pt x="388" y="176" on="1"/>
        <pt x="417" y="112" on="1"/>
        <pt x="350" y="80" on="0"/>
        <pt x="296" y="80" on="1"/>
        <pt x="232" y="80" on="0"/>
        <pt x="160" y="152" on="0"/>
        <pt x="160" y="216" on="1"/>
        <pt x="160" y="303" on="0"/>
        <pt x="267" y="421" on="0"/>
        <pt x="353" y="421" on="1"/>
        <pt x="407" y="421" on="0"/>
      </contour>
    </TTGlyph>
    <TTGlyph name="currency" xMin="37" yMin="104" xMax="496" yMax="562">
      <contour>
        <pt x="427" y="104" on="1"/>
        <pt x="375" y="155" on="1"/>
        <pt x="327" y="121" on="0"/>
        <pt x="266" y="121" on="1"/>
        <pt x="205" y="121" on="0"/>
        <pt x="157" y="155" on="1"/>
        <pt x="106" y="104" on="1"/>
        <pt x="37" y="173" on="1"/>
        <pt x="93" y="228" on="1"/>
        <pt x="68" y="276" on="0"/>
        <pt x="68" y="388" on="0"/>
        <pt x="93" y="436" on="1"/>
        <pt x="37" y="493" on="1"/>
        <pt x="106" y="562" on="1"/>
        <pt x="158" y="509" on="1"/>
        <pt x="206" y="543" on="0"/>
        <pt x="266" y="543" on="1"/>
        <pt x="326" y="543" on="0"/>
        <pt x="374" y="509" on="1"/>
        <pt x="427" y="562" on="1"/>
        <pt x="496" y="493" on="1"/>
        <pt x="439" y="436" on="1"/>
        <pt x="465" y="386" on="0"/>
        <pt x="465" y="278" on="0"/>
        <pt x="439" y="229" on="1"/>
        <pt x="496" y="173" on="1"/>
      </contour>
      <contour>
        <pt x="266" y="205" on="1"/>
        <pt x="308" y="205" on="0"/>
        <pt x="370" y="271" on="0"/>
        <pt x="370" y="334" on="1"/>
        <pt x="370" y="387" on="0"/>
        <pt x="314" y="459" on="0"/>
        <pt x="267" y="459" on="1"/>
        <pt x="221" y="459" on="0"/>
        <pt x="163" y="387" on="0"/>
        <pt x="163" y="332" on="1"/>
        <pt x="163" y="272" on="0"/>
        <pt x="227" y="205" on="0"/>
      </contour>
    </TTGlyph>
    <TTGlyph name="d" xMin="21" yMin="-12" xMax="534" yMax="769">
      <contour>
        <pt x="534" y="769" on="1"/>
        <pt x="442" y="131" on="1"/>
        <pt x="440" y="117" on="0"/>
        <pt x="440" y="110" on="1"/>
        <pt x="440" y="74" on="0"/>
        <pt x="465" y="74" on="1"/>
        <pt x="482" y="74" on="0"/>
        <pt x="513" y="86" on="1"/>
        <pt x="530" y="22" on="1"/>
        <pt x="483" y="-9" on="0"/>
        <pt x="424" y="-9" on="1"/>
        <pt x="394" y="-9" on="0"/>
        <pt x="347" y="29" on="0"/>
        <pt x="339" y="59" on="1"/>
        <pt x="286" y="-12" on="0"/>
        <pt x="192" y="-12" on="1"/>
        <pt x="107" y="-12" on="0"/>
        <pt x="21" y="109" on="0"/>
        <pt x="21" y="197" on="1"/>
        <pt x="21" y="320" on="0"/>
        <pt x="161" y="509" on="0"/>
        <pt x="280" y="509" on="1"/>
        <pt x="348" y="509" on="0"/>
        <pt x="381" y="477" on="1"/>
        <pt x="412" y="714" on="1"/>
        <pt x="407" y="769" on="1"/>
      </contour>
      <contour>
        <pt x="369" y="387" on="1"/>
        <pt x="329" y="427" on="0"/>
        <pt x="283" y="427" on="1"/>
        <pt x="245" y="427" on="0"/>
        <pt x="187" y="377" on="0"/>
        <pt x="157" y="302" on="0"/>
        <pt x="143" y="230" on="0"/>
        <pt x="143" y="200" on="1"/>
        <pt x="143" y="71" on="0"/>
        <pt x="216" y="71" on="1"/>
        <pt x="246" y="71" on="0"/>
        <pt x="294" y="112" on="0"/>
        <pt x="324" y="170" on="0"/>
        <pt x="349" y="263" on="0"/>
        <pt x="362" y="336" on="0"/>
      </contour>
    </TTGlyph>
    <TTGlyph name="dagger" xMin="46" yMin="-138" xMax="455" yMax="740">
      <contour>
        <pt x="455" y="481" on="1"/>
        <pt x="388" y="430" on="1"/>
        <pt x="278" y="452" on="1"/>
        <pt x="283" y="309" on="1"/>
        <pt x="191" y="-138" on="1"/>
        <pt x="147" y="-138" on="1"/>
        <pt x="172" y="309" on="1"/>
        <pt x="215" y="452" on="1"/>
        <pt x="101" y="430" on="1"/>
        <pt x="46" y="485" on="1"/>
        <pt x="116" y="539" on="1"/>
        <pt x="223" y="514" on="1"/>
        <pt x="217" y="658" on="1"/>
        <pt x="282" y="740" on="1"/>
        <pt x="331" y="658" on="1"/>
        <pt x="286" y="514" on="1"/>
        <pt x="402" y="539" on="1"/>
      </contour>
    </TTGlyph>
    <TTGlyph name="daggerdbl" xMin="29" yMin="-139" xMax="487" yMax="740">
      <contour>
        <pt x="487" y="481" on="1"/>
        <pt x="420" y="430" on="1"/>
        <pt x="310" y="452" on="1"/>
        <pt x="316" y="309" on="1"/>
        <pt x="272" y="145" on="1"/>
        <pt x="382" y="165" on="1"/>
        <pt x="438" y="112" on="1"/>
        <pt x="367" y="58" on="1"/>
        <pt x="267" y="83" on="1"/>
        <pt x="267" y="-61" on="1"/>
        <pt x="203" y="-139" on="1"/>
        <pt x="153" y="-61" on="1"/>
        <pt x="198" y="83" on="1"/>
        <pt x="84" y="58" on="1"/>
        <pt x="29" y="117" on="1"/>
        <pt x="98" y="165" on="1"/>
        <pt x="204" y="145" on="1"/>
        <pt x="204" y="309" on="1"/>
        <pt x="247" y="452" on="1"/>
        <pt x="133" y="430" on="1"/>
        <pt x="79" y="485" on="1"/>
        <pt x="148" y="539" on="1"/>
        <pt x="256" y="514" on="1"/>
        <pt x="249" y="658" on="1"/>
        <pt x="315" y="740" on="1"/>
        <pt x="363" y="658" on="1"/>
        <pt x="318" y="514" on="1"/>
        <pt x="435" y="539" on="1"/>
      </contour>
    </TTGlyph>
    <TTGlyph name="degree" xMin="49" yMin="448" xMax="340" yMax="738">
      <contour>
        <pt x="340" y="593" on="1"/>
        <pt x="340" y="532" on="0"/>
        <pt x="255" y="448" on="0"/>
        <pt x="194" y="448" on="1"/>
        <pt x="134" y="448" on="0"/>
        <pt x="49" y="533" on="0"/>
        <pt x="49" y="653" on="0"/>
        <pt x="134" y="738" on="0"/>
        <pt x="194" y="738" on="1"/>
        <pt x="254" y="738" on="0"/>
        <pt x="340" y="653" on="0"/>
      </contour>
      <contour>
        <pt x="250" y="536" on="1"/>
        <pt x="273" y="560" on="0"/>
        <pt x="273" y="626" on="0"/>
        <pt x="227" y="674" on="0"/>
        <pt x="194" y="674" on="1"/>
        <pt x="161" y="674" on="0"/>
        <pt x="116" y="626" on="0"/>
        <pt x="116" y="560" on="0"/>
        <pt x="161" y="512" on="0"/>
        <pt x="194" y="512" on="1"/>
        <pt x="227" y="512" on="0"/>
      </contour>
    </TTGlyph>
    <TTGlyph name="dieresis" xMin="-6" yMin="562" xMax="277" yMax="684">
      <contour>
        <pt x="219" y="566" on="1"/>
        <pt x="196" y="566" on="0"/>
        <pt x="162" y="600" on="0"/>
        <pt x="162" y="646" on="0"/>
        <pt x="196" y="680" on="0"/>
        <pt x="219" y="680" on="1"/>
        <pt x="243" y="680" on="0"/>
        <pt x="277" y="647" on="0"/>
        <pt x="277" y="599" on="0"/>
        <pt x="243" y="566" on="0"/>
      </contour>
      <contour>
        <pt x="98" y="666" on="1"/>
        <pt x="116" y="648" on="0"/>
        <pt x="116" y="598" on="0"/>
        <pt x="81" y="562" on="0"/>
        <pt x="55" y="562" on="1"/>
        <pt x="29" y="562" on="0"/>
        <pt x="-6" y="598" on="0"/>
        <pt x="-6" y="648" on="0"/>
        <pt x="29" y="684" on="0"/>
        <pt x="55" y="684" on="1"/>
        <pt x="81" y="684" on="0"/>
      </contour>
    </TTGlyph>
    <TTGlyph name="divide" xMin="68" yMin="-11" xMax="564" yMax="509">
      <contour>
        <pt x="564" y="204" on="1"/>
        <pt x="68" y="204" on="1"/>
        <pt x="68" y="292" on="1"/>
        <pt x="564" y="292" on="1"/>
      </contour>
      <contour>
        <pt x="315" y="-11" on="1"/>
        <pt x="284" y="-11" on="0"/>
        <pt x="238" y="35" on="0"/>
        <pt x="238" y="66" on="1"/>
        <pt x="238" y="98" on="0"/>
        <pt x="283" y="144" on="0"/>
        <pt x="315" y="144" on="1"/>
        <pt x="347" y="144" on="0"/>
        <pt x="393" y="98" on="0"/>
        <pt x="393" y="34" on="0"/>
        <pt x="347" y="-11" on="0"/>
      </contour>
      <contour>
        <pt x="314" y="354" on="1"/>
        <pt x="283" y="354" on="0"/>
        <pt x="237" y="400" on="0"/>
        <pt x="237" y="431" on="1"/>
        <pt x="237" y="463" on="0"/>
        <pt x="282" y="509" on="0"/>
        <pt x="314" y="509" on="1"/>
        <pt x="346" y="509" on="0"/>
        <pt x="392" y="463" on="0"/>
        <pt x="392" y="399" on="0"/>
        <pt x="346" y="354" on="0"/>
      </contour>
    </TTGlyph>
    <TTGlyph name="dollar" xMin="11" yMin="-125" xMax="404" yMax="624">
      <contour>
        <pt x="373" y="180" on="1"/>
        <pt x="373" y="101" on="0"/>
        <pt x="273" y="-7" on="0"/>
        <pt x="185" y="-13" on="1"/>
        <pt x="160" y="-125" on="1"/>
        <pt x="91" y="-125" on="1"/>
        <pt x="136" y="-12" on="1"/>
        <pt x="66" y="-5" on="0"/>
        <pt x="11" y="29" on="1"/>
        <pt x="63" y="111" on="1"/>
        <pt x="123" y="71" on="0"/>
        <pt x="165" y="71" on="1"/>
        <pt x="198" y="71" on="0"/>
        <pt x="245" y="109" on="0"/>
        <pt x="245" y="144" on="1"/>
        <pt x="245" y="167" on="0"/>
        <pt x="208" y="198" on="0"/>
        <pt x="154" y="219" on="0"/>
        <pt x="100" y="244" on="0"/>
        <pt x="63" y="295" on="0"/>
        <pt x="63" y="332" on="1"/>
        <pt x="63" y="412" on="0"/>
        <pt x="180" y="506" on="0"/>
        <pt x="256" y="510" on="1"/>
        <pt x="280" y="624" on="1"/>
        <pt x="348" y="624" on="1"/>
        <pt x="304" y="508" on="1"/>
        <pt x="367" y="500" on="0"/>
        <pt x="404" y="479" on="1"/>
        <pt x="354" y="395" on="1"/>
        <pt x="315" y="429" on="0"/>
        <pt x="264" y="429" on="1"/>
        <pt x="235" y="429" on="0"/>
        <pt x="191" y="399" on="0"/>
        <pt x="191" y="369" on="1"/>
        <pt x="191" y="348" on="0"/>
        <pt x="228" y="318" on="0"/>
        <pt x="282" y="297" on="0"/>
        <pt x="336" y="271" on="0"/>
        <pt x="373" y="219" on="0"/>
      </contour>
    </TTGlyph>
    <TTGlyph name="dotaccent" xMin="83" yMin="564" xMax="205" yMax="686">
      <contour>
        <pt x="187" y="668" on="1"/>
        <pt x="205" y="650" on="0"/>
        <pt x="205" y="600" on="0"/>
        <pt x="170" y="564" on="0"/>
        <pt x="144" y="564" on="1"/>
        <pt x="118" y="564" on="0"/>
        <pt x="83" y="600" on="0"/>
        <pt x="83" y="650" on="0"/>
        <pt x="118" y="686" on="0"/>
        <pt x="144" y="686" on="1"/>
        <pt x="170" y="686" on="0"/>
      </contour>
    </TTGlyph>
    <TTGlyph name="dotlessi" xMin="27" yMin="0" xMax="207" yMax="497">
      <contour>
        <pt x="207" y="497" on="1"/>
        <pt x="148" y="55" on="1"/>
        <pt x="151" y="0" on="1"/>
        <pt x="27" y="0" on="1"/>
        <pt x="86" y="443" on="1"/>
        <pt x="83" y="497" on="1"/>
      </contour>
    </TTGlyph>
    <TTGlyph name="e" xMin="21" yMin="-12" xMax="452" yMax="510">
      <contour>
        <pt x="452" y="394" on="1"/>
        <pt x="452" y="362" on="0"/>
        <pt x="423" y="298" on="0"/>
        <pt x="359" y="235" on="0"/>
        <pt x="233" y="195" on="0"/>
        <pt x="148" y="194" on="1"/>
        <pt x="152" y="137" on="0"/>
        <pt x="209" y="76" on="0"/>
        <pt x="250" y="76" on="1"/>
        <pt x="314" y="76" on="0"/>
        <pt x="394" y="137" on="1"/>
        <pt x="436" y="54" on="1"/>
        <pt x="433" y="51" on="0"/>
        <pt x="421" y="42" on="0"/>
        <pt x="382" y="20" on="0"/>
        <pt x="339" y="2" on="0"/>
        <pt x="272" y="-12" on="0"/>
        <pt x="238" y="-12" on="1"/>
        <pt x="144" y="-12" on="0"/>
        <pt x="21" y="102" on="0"/>
        <pt x="21" y="201" on="1"/>
        <pt x="21" y="253" on="0"/>
        <pt x="58" y="360" on="0"/>
        <pt x="126" y="452" on="0"/>
        <pt x="234" y="510" on="0"/>
        <pt x="299" y="510" on="1"/>
        <pt x="367" y="510" on="0"/>
        <pt x="452" y="450" on="0"/>
      </contour>
      <contour>
        <pt x="329" y="392" on="1"/>
        <pt x="329" y="426" on="0"/>
        <pt x="290" y="426" on="1"/>
        <pt x="257" y="426" on="0"/>
        <pt x="171" y="352" on="0"/>
        <pt x="155" y="279" on="1"/>
        <pt x="233" y="281" on="0"/>
        <pt x="329" y="346" on="0"/>
      </contour>
    </TTGlyph>
    <TTGlyph name="eacute" xMin="21" yMin="-12" xMax="517" yMax="757">
      <component glyphName="acute" x="219" y="2" flags="0x4"/>
      <component glyphName="e" x="0" y="0" flags="0x4"/>
    </TTGlyph>
    <TTGlyph name="ecircumflex" xMin="21" yMin="-12" xMax="452" yMax="737">
      <component glyphName="circumflex" x="163" y="4" flags="0x4"/>
      <component glyphName="e" x="0" y="0" flags="0x4"/>
    </TTGlyph>
    <TTGlyph name="edieresis" xMin="21" yMin="-12" xMax="452" yMax="694">
      <component glyphName="dieresis" x="151" y="10" flags="0x4"/>
      <component glyphName="e" x="0" y="0" flags="0x4"/>
    </TTGlyph>
    <TTGlyph name="egrave" xMin="21" yMin="-12" xMax="452" yMax="757">
      <component glyphName="e" x="0" y="0" flags="0x4"/>
      <component glyphName="grave" x="77" y="2" flags="0x4"/>
    </TTGlyph>
    <TTGlyph name="eight" xMin="11" yMin="-12" xMax="458" yMax="732">
      <contour>
        <pt x="429" y="202" on="1"/>
        <pt x="429" y="108" on="0"/>
        <pt x="299" y="-12" on="0"/>
        <pt x="194" y="-12" on="1"/>
        <pt x="117" y="-12" on="0"/>
        <pt x="11" y="71" on="0"/>
        <pt x="11" y="146" on="1"/>
        <pt x="11" y="171" on="0"/>
        <pt x="18" y="213" on="0"/>
        <pt x="40" y="252" on="0"/>
        <pt x="54" y="278" on="0"/>
        <pt x="94" y="315" on="0"/>
        <pt x="109" y="329" on="0"/>
        <pt x="160" y="369" on="0"/>
        <pt x="166" y="374" on="1"/>
        <pt x="159" y="381" on="1"/>
        <pt x="132" y="411" on="0"/>
        <pt x="106" y="444" on="0"/>
        <pt x="84" y="500" on="0"/>
        <pt x="84" y="532" on="1"/>
        <pt x="84" y="622" on="0"/>
        <pt x="209" y="732" on="0"/>
        <pt x="292" y="732" on="1"/>
        <pt x="363" y="732" on="0"/>
        <pt x="458" y="659" on="0"/>
        <pt x="458" y="593" on="1"/>
        <pt x="458" y="567" on="0"/>
        <pt x="446" y="520" on="0"/>
        <pt x="435" y="491" on="0"/>
        <pt x="399" y="450" on="0"/>
        <pt x="387" y="437" on="0"/>
        <pt x="334" y="392" on="0"/>
        <pt x="329" y="388" on="1"/>
        <pt x="333" y="383" on="0"/>
        <pt x="341" y="375" on="1"/>
        <pt x="372" y="341" on="0"/>
        <pt x="401" y="304" on="0"/>
        <pt x="429" y="238" on="0"/>
      </contour>
      <contour>
        <pt x="269" y="456" on="1"/>
        <pt x="295" y="476" on="0"/>
        <pt x="324" y="503" on="0"/>
        <pt x="351" y="554" on="0"/>
        <pt x="351" y="583" on="1"/>
        <pt x="351" y="613" on="0"/>
        <pt x="323" y="653" on="0"/>
        <pt x="293" y="653" on="1"/>
        <pt x="259" y="653" on="0"/>
        <pt x="214" y="592" on="0"/>
        <pt x="214" y="554" on="1"/>
        <pt x="214" y="545" on="0"/>
        <pt x="217" y="529" on="0"/>
        <pt x="225" y="512" on="0"/>
        <pt x="230" y="502" on="0"/>
        <pt x="244" y="484" on="0"/>
        <pt x="249" y="478" on="0"/>
        <pt x="267" y="458" on="0"/>
      </contour>
      <contour>
        <pt x="198" y="69" on="1"/>
        <pt x="241" y="69" on="0"/>
        <pt x="301" y="137" on="0"/>
        <pt x="301" y="181" on="1"/>
        <pt x="301" y="196" on="0"/>
        <pt x="292" y="224" on="0"/>
        <pt x="272" y="253" on="0"/>
        <pt x="258" y="270" on="0"/>
        <pt x="229" y="302" on="0"/>
        <pt x="225" y="306" on="1"/>
        <pt x="221" y="303" on="0"/>
        <pt x="180" y="270" on="0"/>
        <pt x="168" y="259" on="0"/>
        <pt x="139" y="229" on="0"/>
        <pt x="129" y="207" on="0"/>
        <pt x="118" y="173" on="0"/>
        <pt x="118" y="154" on="1"/>
        <pt x="118" y="116" on="0"/>
        <pt x="161" y="69" on="0"/>
      </contour>
    </TTGlyph>
    <TTGlyph name="ellipsis" xMin="89" yMin="-12" xMax="739" yMax="143">
      <component glyphName="period" x="59" y="0" flags="0x4"/>
      <component glyphName="period" x="306" y="0" flags="0x4"/>
      <component glyphName="period" x="554" y="0" flags="0x4"/>
    </TTGlyph>
    <TTGlyph name="emdash" xMin="33" yMin="211" xMax="873" yMax="305">
      <contour>
        <pt x="873" y="305" on="1"/>
        <pt x="859" y="211" on="1"/>
        <pt x="33" y="211" on="1"/>
        <pt x="47" y="305" on="1"/>
      </contour>
    </TTGlyph>
    <TTGlyph name="endash" xMin="31" yMin="211" xMax="521" yMax="305">
      <contour>
        <pt x="521" y="305" on="1"/>
        <pt x="507" y="211" on="1"/>
        <pt x="31" y="211" on="1"/>
        <pt x="45" y="305" on="1"/>
      </contour>
    </TTGlyph>
    <TTGlyph name="equal" xMin="68" yMin="109" xMax="564" yMax="390">
      <contour>
        <pt x="564" y="109" on="1"/>
        <pt x="68" y="109" on="1"/>
        <pt x="68" y="197" on="1"/>
        <pt x="564" y="197" on="1"/>
      </contour>
      <contour>
        <pt x="564" y="302" on="1"/>
        <pt x="68" y="302" on="1"/>
        <pt x="68" y="390" on="1"/>
        <pt x="564" y="390" on="1"/>
      </contour>
    </TTGlyph>
    <TTGlyph name="eth" xMin="16" yMin="-11" xMax="483" yMax="783">
      <contour>
        <pt x="451" y="723" on="1"/>
        <pt x="357" y="672" on="1"/>
        <pt x="483" y="482" on="0"/>
        <pt x="483" y="307" on="1"/>
        <pt x="483" y="175" on="0"/>
        <pt x="335" y="-11" on="0"/>
        <pt x="215" y="-11" on="1"/>
        <pt x="121" y="-11" on="0"/>
        <pt x="16" y="110" on="0"/>
        <pt x="16" y="206" on="1"/>
        <pt x="16" y="329" on="0"/>
        <pt x="170" y="510" on="0"/>
        <pt x="284" y="510" on="1"/>
        <pt x="296" y="510" on="0"/>
        <pt x="314" y="508" on="1"/>
        <pt x="285" y="578" on="0"/>
        <pt x="260" y="619" on="1"/>
        <pt x="165" y="568" on="1"/>
        <pt x="130" y="626" on="1"/>
        <pt x="224" y="677" on="1"/>
        <pt x="202" y="707" on="0"/>
        <pt x="182" y="731" on="1"/>
        <pt x="273" y="783" on="1"/>
        <pt x="281" y="774" on="0"/>
        <pt x="312" y="737" on="0"/>
        <pt x="319" y="728" on="1"/>
        <pt x="421" y="783" on="1"/>
      </contour>
      <contour>
        <pt x="226" y="72" on="1"/>
        <pt x="267" y="72" on="0"/>
        <pt x="323" y="126" on="0"/>
        <pt x="348" y="210" on="0"/>
        <pt x="357" y="276" on="0"/>
        <pt x="357" y="306" on="1"/>
        <pt x="357" y="428" on="0"/>
        <pt x="273" y="428" on="1"/>
        <pt x="234" y="428" on="0"/>
        <pt x="178" y="372" on="0"/>
        <pt x="152" y="289" on="0"/>
        <pt x="142" y="223" on="0"/>
        <pt x="142" y="198" on="1"/>
        <pt x="142" y="72" on="0"/>
      </contour>
    </TTGlyph>
    <TTGlyph name="exclam" xMin="21" yMin="-15" xMax="264" yMax="722">
      <contour>
        <pt x="264" y="680" on="1"/>
        <pt x="264" y="671" on="0"/>
        <pt x="263" y="667" on="1"/>
        <pt x="169" y="209" on="1"/>
        <pt x="81" y="222" on="1"/>
        <pt x="117" y="688" on="1"/>
        <pt x="119" y="706" on="0"/>
        <pt x="133" y="722" on="0"/>
        <pt x="150" y="722" on="1"/>
        <pt x="165" y="722" on="0"/>
        <pt x="230" y="712" on="1"/>
        <pt x="264" y="706" on="0"/>
      </contour>
      <contour>
        <pt x="98" y="-15" on="1"/>
        <pt x="67" y="-15" on="0"/>
        <pt x="21" y="31" on="0"/>
        <pt x="21" y="62" on="1"/>
        <pt x="21" y="94" on="0"/>
        <pt x="66" y="140" on="0"/>
        <pt x="98" y="140" on="1"/>
        <pt x="130" y="140" on="0"/>
        <pt x="176" y="94" on="0"/>
        <pt x="176" y="30" on="0"/>
        <pt x="130" y="-15" on="0"/>
      </contour>
    </TTGlyph>
    <TTGlyph name="exclamdown" xMin="0" yMin="-130" xMax="238" yMax="609">
      <contour>
        <pt x="184" y="371" on="1"/>
        <pt x="148" y="-96" on="1"/>
        <pt x="146" y="-114" on="0"/>
        <pt x="132" y="-130" on="0"/>
        <pt x="114" y="-130" on="1"/>
        <pt x="106" y="-130" on="0"/>
        <pt x="35" y="-119" on="1"/>
        <pt x="0" y="-113" on="0"/>
        <pt x="0" y="-87" on="1"/>
        <pt x="0" y="-82" on="0"/>
        <pt x="2" y="-74" on="1"/>
        <pt x="96" y="383" on="1"/>
      </contour>
      <contour>
        <pt x="160" y="454" on="1"/>
        <pt x="129" y="454" on="0"/>
        <pt x="83" y="500" on="0"/>
        <pt x="83" y="531" on="1"/>
        <pt x="83" y="563" on="0"/>
        <pt x="128" y="609" on="0"/>
        <pt x="160" y="609" on="1"/>
        <pt x="192" y="609" on="0"/>
        <pt x="238" y="563" on="0"/>
        <pt x="238" y="499" on="0"/>
        <pt x="192" y="454" on="0"/>
      </contour>
    </TTGlyph>
    <TTGlyph name="f" xMin="-170" yMin="-230" xMax="501" yMax="776">
      <contour>
        <pt x="501" y="733" on="1"/>
        <pt x="452" y="654" on="1"/>
        <pt x="408" y="694" on="0"/>
        <pt x="354" y="694" on="1"/>
        <pt x="322" y="694" on="0"/>
        <pt x="271" y="654" on="0"/>
        <pt x="242" y="587" on="0"/>
        <pt x="227" y="529" on="0"/>
        <pt x="222" y="497" on="1"/>
        <pt x="340" y="497" on="1"/>
        <pt x="329" y="414" on="1"/>
        <pt x="211" y="414" on="1"/>
        <pt x="149" y="-47" on="1"/>
        <pt x="124" y="-230" on="0"/>
        <pt x="-33" y="-230" on="1"/>
        <pt x="-70" y="-230" on="0"/>
        <pt x="-151" y="-208" on="0"/>
        <pt x="-170" y="-186" on="1"/>
        <pt x="-122" y="-120" on="1"/>
        <pt x="-110" y="-132" on="0"/>
        <pt x="-65" y="-151" on="0"/>
        <pt x="-49" y="-151" on="1"/>
        <pt x="20" y="-151" on="0"/>
        <pt x="36" y="-35" on="1"/>
        <pt x="97" y="414" on="1"/>
        <pt x="18" y="414" on="1"/>
        <pt x="28" y="497" on="1"/>
        <pt x="107" y="497" on="1"/>
        <pt x="115" y="559" on="0"/>
        <pt x="146" y="653" on="0"/>
        <pt x="201" y="733" on="0"/>
        <pt x="294" y="776" on="0"/>
        <pt x="357" y="776" on="1"/>
        <pt x="438" y="776" on="0"/>
      </contour>
    </TTGlyph>
    <TTGlyph name="fi" xMin="-170" yMin="-230" xMax="525" yMax="776">
      <contour>
        <pt x="525" y="631" on="1"/>
        <pt x="413" y="600" on="1"/>
        <pt x="413" y="634" on="0"/>
        <pt x="374" y="694" on="0"/>
        <pt x="344" y="694" on="1"/>
        <pt x="250" y="694" on="0"/>
        <pt x="222" y="497" on="1"/>
        <pt x="509" y="497" on="1"/>
        <pt x="450" y="55" on="1"/>
        <pt x="452" y="0" on="1"/>
        <pt x="328" y="0" on="1"/>
        <pt x="384" y="414" on="1"/>
        <pt x="211" y="414" on="1"/>
        <pt x="149" y="-47" on="1"/>
        <pt x="124" y="-230" on="0"/>
        <pt x="-33" y="-230" on="1"/>
        <pt x="-70" y="-230" on="0"/>
        <pt x="-151" y="-208" on="0"/>
        <pt x="-170" y="-186" on="1"/>
        <pt x="-122" y="-120" on="1"/>
        <pt x="-110" y="-132" on="0"/>
        <pt x="-65" y="-151" on="0"/>
        <pt x="-49" y="-151" on="1"/>
        <pt x="20" y="-151" on="0"/>
        <pt x="36" y="-35" on="1"/>
        <pt x="97" y="414" on="1"/>
        <pt x="18" y="414" on="1"/>
        <pt x="28" y="497" on="1"/>
        <pt x="107" y="497" on="1"/>
        <pt x="115" y="559" on="0"/>
        <pt x="145" y="653" on="0"/>
        <pt x="199" y="733" on="0"/>
        <pt x="289" y="776" on="0"/>
        <pt x="350" y="776" on="1"/>
        <pt x="370" y="776" on="0"/>
        <pt x="418" y="763" on="0"/>
        <pt x="473" y="733" on="0"/>
        <pt x="517" y="672" on="0"/>
      </contour>
    </TTGlyph>
    <TTGlyph name="five" xMin="-17" yMin="-207" xMax="386" yMax="498">
      <contour>
        <pt x="386" y="498" on="1"/>
        <pt x="353" y="377" on="1"/>
        <pt x="175" y="377" on="1"/>
        <pt x="154" y="327" on="1"/>
        <pt x="321" y="229" on="0"/>
        <pt x="321" y="82" on="1"/>
        <pt x="321" y="20" on="0"/>
        <pt x="263" y="-86" on="0"/>
        <pt x="169" y="-156" on="0"/>
        <pt x="61" y="-199" on="0"/>
        <pt x="4" y="-207" on="1"/>
        <pt x="-17" y="-145" on="1"/>
        <pt x="72" y="-117" on="0"/>
        <pt x="195" y="-8" on="0"/>
        <pt x="195" y="77" on="1"/>
        <pt x="195" y="137" on="0"/>
        <pt x="90" y="244" on="0"/>
        <pt x="26" y="273" on="1"/>
        <pt x="123" y="498" on="1"/>
      </contour>
    </TTGlyph>
    <TTGlyph name="fl" xMin="-170" yMin="-230" xMax="549" yMax="776">
      <contour>
        <pt x="549" y="769" on="1"/>
        <pt x="453" y="54" on="1"/>
        <pt x="456" y="0" on="1"/>
        <pt x="329" y="0" on="1"/>
        <pt x="411" y="617" on="1"/>
        <pt x="412" y="622" on="0"/>
        <pt x="412" y="633" on="1"/>
        <pt x="412" y="694" on="0"/>
        <pt x="354" y="694" on="1"/>
        <pt x="322" y="694" on="0"/>
        <pt x="271" y="654" on="0"/>
        <pt x="242" y="587" on="0"/>
        <pt x="227" y="529" on="0"/>
        <pt x="222" y="497" on="1"/>
        <pt x="340" y="497" on="1"/>
        <pt x="329" y="414" on="1"/>
        <pt x="211" y="414" on="1"/>
        <pt x="149" y="-47" on="1"/>
        <pt x="124" y="-230" on="0"/>
        <pt x="-33" y="-230" on="1"/>
        <pt x="-70" y="-230" on="0"/>
        <pt x="-151" y="-208" on="0"/>
        <pt x="-170" y="-186" on="1"/>
        <pt x="-122" y="-120" on="1"/>
        <pt x="-110" y="-132" on="0"/>
        <pt x="-65" y="-151" on="0"/>
        <pt x="-49" y="-151" on="1"/>
        <pt x="20" y="-151" on="0"/>
        <pt x="36" y="-35" on="1"/>
        <pt x="97" y="414" on="1"/>
        <pt x="18" y="414" on="1"/>
        <pt x="28" y="497" on="1"/>
        <pt x="107" y="497" on="1"/>
        <pt x="115" y="559" on="0"/>
        <pt x="146" y="653" on="0"/>
        <pt x="201" y="733" on="0"/>
        <pt x="294" y="776" on="0"/>
        <pt x="357" y="776" on="1"/>
        <pt x="378" y="776" on="0"/>
        <pt x="435" y="757" on="0"/>
        <pt x="452" y="745" on="1"/>
      </contour>
    </TTGlyph>
    <TTGlyph name="florin" xMin="-131" yMin="-230" xMax="670" yMax="776">
      <contour>
        <pt x="670" y="733" on="1"/>
        <pt x="610" y="654" on="1"/>
        <pt x="589" y="676" on="0"/>
        <pt x="548" y="694" on="0"/>
        <pt x="517" y="694" on="1"/>
        <pt x="475" y="694" on="0"/>
        <pt x="404" y="620" on="0"/>
        <pt x="370" y="542" on="0"/>
        <pt x="357" y="497" on="1"/>
        <pt x="475" y="497" on="1"/>
        <pt x="453" y="414" on="1"/>
        <pt x="335" y="414" on="1"/>
        <pt x="208" y="-47" on="1"/>
        <pt x="157" y="-230" on="0"/>
        <pt x="0" y="-230" on="1"/>
        <pt x="-36" y="-230" on="0"/>
        <pt x="-115" y="-208" on="0"/>
        <pt x="-131" y="-186" on="1"/>
        <pt x="-73" y="-120" on="1"/>
        <pt x="-62" y="-132" on="0"/>
        <pt x="-21" y="-151" on="0"/>
        <pt x="-5" y="-151" on="1"/>
        <pt x="65" y="-151" on="0"/>
        <pt x="97" y="-35" on="1"/>
        <pt x="221" y="414" on="1"/>
        <pt x="142" y="414" on="1"/>
        <pt x="163" y="497" on="1"/>
        <pt x="242" y="497" on="1"/>
        <pt x="259" y="559" on="0"/>
        <pt x="303" y="653" on="0"/>
        <pt x="370" y="734" on="0"/>
        <pt x="468" y="776" on="0"/>
        <pt x="532" y="776" on="1"/>
        <pt x="612" y="776" on="0"/>
      </contour>
    </TTGlyph>
    <TTGlyph name="four" xMin="1" yMin="-184" xMax="502" yMax="498">
      <contour>
        <pt x="502" y="99" on="1"/>
        <pt x="485" y="-1" on="1"/>
        <pt x="390" y="-1" on="1"/>
        <pt x="366" y="-184" on="1"/>
        <pt x="247" y="-184" on="1"/>
        <pt x="271" y="-1" on="1"/>
        <pt x="1" y="-1" on="1"/>
        <pt x="1" y="57" on="1"/>
        <pt x="331" y="498" on="1"/>
        <pt x="455" y="498" on="1"/>
        <pt x="403" y="99" on="1"/>
      </contour>
      <contour>
        <pt x="284" y="99" on="1"/>
        <pt x="314" y="329" on="1"/>
        <pt x="143" y="99" on="1"/>
      </contour>
    </TTGlyph>
    <TTGlyph name="fraction" xMin="-175" yMin="-27" xMax="304" yMax="753">
      <contour>
        <pt x="-96" y="-27" on="1"/>
        <pt x="-175" y="-27" on="1"/>
        <pt x="224" y="753" on="1"/>
        <pt x="304" y="753" on="1"/>
      </contour>
    </TTGlyph>
    <TTGlyph name="g" xMin="-5" yMin="-230" xMax="500" yMax="521">
      <contour>
        <pt x="500" y="521" on="1"/>
        <pt x="439" y="66" on="1"/>
        <pt x="421" y="-68" on="0"/>
        <pt x="285" y="-230" on="0"/>
        <pt x="171" y="-230" on="1"/>
        <pt x="62" y="-230" on="0"/>
        <pt x="-5" y="-174" on="1"/>
        <pt x="51" y="-93" on="1"/>
        <pt x="59" y="-106" on="0"/>
        <pt x="131" y="-150" on="0"/>
        <pt x="165" y="-150" on="1"/>
        <pt x="201" y="-150" on="0"/>
        <pt x="262" y="-104" on="0"/>
        <pt x="299" y="-38" on="0"/>
        <pt x="320" y="19" on="0"/>
        <pt x="323" y="38" on="1"/>
        <pt x="319" y="38" on="1"/>
        <pt x="268" y="-12" on="0"/>
        <pt x="193" y="-12" on="1"/>
        <pt x="108" y="-12" on="0"/>
        <pt x="22" y="109" on="0"/>
        <pt x="22" y="197" on="1"/>
        <pt x="22" y="276" on="0"/>
        <pt x="82" y="415" on="0"/>
        <pt x="212" y="510" on="0"/>
        <pt x="300" y="510" on="1"/>
        <pt x="357" y="510" on="0"/>
        <pt x="402" y="490" on="1"/>
      </contour>
      <contour>
        <pt x="372" y="404" on="1"/>
        <pt x="326" y="426" on="0"/>
        <pt x="293" y="426" on="1"/>
        <pt x="254" y="426" on="0"/>
        <pt x="192" y="376" on="0"/>
        <pt x="160" y="302" on="0"/>
        <pt x="144" y="230" on="0"/>
        <pt x="144" y="200" on="1"/>
        <pt x="144" y="71" on="0"/>
        <pt x="217" y="71" on="1"/>
        <pt x="240" y="71" on="0"/>
        <pt x="278" y="95" on="0"/>
        <pt x="306" y="129" on="0"/>
        <pt x="330" y="189" on="0"/>
        <pt x="345" y="238" on="0"/>
        <pt x="360" y="317" on="0"/>
        <pt x="367" y="364" on="0"/>
      </contour>
    </TTGlyph>
    <TTGlyph name="germandbls" xMin="-203" yMin="-230" xMax="511" yMax="744">
      <contour>
        <pt x="511" y="221" on="1"/>
        <pt x="511" y="121" on="0"/>
        <pt x="376" y="-12" on="0"/>
        <pt x="276" y="-12" on="1"/>
        <pt x="214" y="-12" on="0"/>
        <pt x="156" y="18" on="1"/>
        <pt x="204" y="95" on="1"/>
        <pt x="247" y="78" on="0"/>
        <pt x="276" y="78" on="1"/>
        <pt x="322" y="78" on="0"/>
        <pt x="381" y="151" on="0"/>
        <pt x="381" y="197" on="1"/>
        <pt x="381" y="233" on="0"/>
        <pt x="329" y="282" on="0"/>
        <pt x="268" y="305" on="0"/>
        <pt x="216" y="347" on="0"/>
        <pt x="216" y="376" on="1"/>
        <pt x="216" y="404" on="0"/>
        <pt x="249" y="448" on="0"/>
        <pt x="296" y="478" on="0"/>
        <pt x="343" y="508" on="0"/>
        <pt x="376" y="556" on="0"/>
        <pt x="376" y="587" on="1"/>
        <pt x="376" y="611" on="0"/>
        <pt x="342" y="647" on="0"/>
        <pt x="318" y="647" on="1"/>
        <pt x="218" y="647" on="0"/>
        <pt x="192" y="464" on="1"/>
        <pt x="124" y="-42" on="1"/>
        <pt x="112" y="-131" on="0"/>
        <pt x="11" y="-230" on="0"/>
        <pt x="-72" y="-230" on="1"/>
        <pt x="-110" y="-230" on="0"/>
        <pt x="-176" y="-208" on="0"/>
        <pt x="-190" y="-196" on="1"/>
        <pt x="-203" y="-185" on="1"/>
        <pt x="-156" y="-101" on="1"/>
        <pt x="-120" y="-140" on="0"/>
        <pt x="-80" y="-140" on="1"/>
        <pt x="-41" y="-140" on="0"/>
        <pt x="-2" y="-99" on="0"/>
        <pt x="5" y="-44" on="1"/>
        <pt x="66" y="406" on="1"/>
        <pt x="-6" y="406" on="1"/>
        <pt x="6" y="497" on="1"/>
        <pt x="78" y="497" on="1"/>
        <pt x="79" y="502" on="1"/>
        <pt x="94" y="613" on="0"/>
        <pt x="227" y="744" on="0"/>
        <pt x="330" y="744" on="1"/>
        <pt x="405" y="744" on="0"/>
        <pt x="504" y="673" on="0"/>
        <pt x="504" y="602" on="1"/>
        <pt x="504" y="558" on="0"/>
        <pt x="472" y="493" on="0"/>
        <pt x="427" y="459" on="0"/>
        <pt x="382" y="436" on="0"/>
        <pt x="350" y="416" on="0"/>
        <pt x="350" y="405" on="1"/>
        <pt x="350" y="392" on="0"/>
        <pt x="400" y="365" on="0"/>
        <pt x="461" y="338" on="0"/>
        <pt x="511" y="270" on="0"/>
      </contour>
    </TTGlyph>
    <TTGlyph name="grave" xMin="4" yMin="590" xMax="258" yMax="755">
      <contour>
        <pt x="258" y="590" on="1"/>
        <pt x="155" y="590" on="1"/>
        <pt x="4" y="755" on="1"/>
        <pt x="149" y="755" on="1"/>
      </contour>
    </TTGlyph>
    <TTGlyph name="greater" xMin="66" yMin="-12" xMax="564" yMax="509">
      <contour>
        <pt x="564" y="223" on="1"/>
        <pt x="66" y="-12" on="1"/>
        <pt x="66" y="76" on="1"/>
        <pt x="434" y="249" on="1"/>
        <pt x="66" y="419" on="1"/>
        <pt x="66" y="509" on="1"/>
        <pt x="564" y="275" on="1"/>
      </contour>
    </TTGlyph>
    <TTGlyph name="greaterequal" xMin="66" yMin="1" xMax="565" yMax="511">
      <contour>
        <pt x="565" y="283" on="1"/>
        <pt x="66" y="106" on="1"/>
        <pt x="66" y="198" on="1"/>
        <pt x="326" y="290" on="1"/>
        <pt x="378" y="308" on="0"/>
        <pt x="431" y="309" on="1"/>
        <pt x="369" y="314" on="0"/>
        <pt x="324" y="330" on="1"/>
        <pt x="66" y="421" on="1"/>
        <pt x="66" y="511" on="1"/>
        <pt x="565" y="335" on="1"/>
      </contour>
      <contour>
        <pt x="563" y="1" on="1"/>
        <pt x="67" y="1" on="1"/>
        <pt x="67" y="89" on="1"/>
        <pt x="563" y="89" on="1"/>
      </contour>
    </TTGlyph>
    <TTGlyph name="guillemotleft" xMin="23" yMin="162" xMax="444" yMax="504">
      <component glyphName="guilsinglleft" x="-10" y="0" flags="0x4"/>
      <component glyphName="guilsinglleft" x="160" y="0" flags="0x4"/>
    </TTGlyph>
    <TTGlyph name="guillemotright" xMin="15" yMin="162" xMax="437" yMax="504">
      <component glyphName="guilsinglright" x="-11" y="0" flags="0x4"/>
      <component glyphName="guilsinglright" x="157" y="0" flags="0x4"/>
    </TTGlyph>
    <TTGlyph name="guilsinglleft" xMin="33" yMin="162" xMax="284" yMax="504">
      <contour>
        <pt x="284" y="490" on="1"/>
        <pt x="143" y="332" on="1"/>
        <pt x="242" y="173" on="1"/>
        <pt x="165" y="162" on="1"/>
        <pt x="33" y="332" on="1"/>
        <pt x="209" y="504" on="1"/>
      </contour>
    </TTGlyph>
    <TTGlyph name="guilsinglright" xMin="26" yMin="162" xMax="280" yMax="504">
      <contour>
        <pt x="280" y="332" on="1"/>
        <pt x="100" y="162" on="1"/>
        <pt x="26" y="173" on="1"/>
        <pt x="171" y="332" on="1"/>
        <pt x="73" y="490" on="1"/>
        <pt x="152" y="504" on="1"/>
      </contour>
    </TTGlyph>
    <TTGlyph name="h" xMin="27" yMin="0" xMax="466" yMax="769">
      <contour>
        <pt x="466" y="387" on="1"/>
        <pt x="466" y="360" on="0"/>
        <pt x="463" y="336" on="1"/>
        <pt x="425" y="54" on="1"/>
        <pt x="428" y="0" on="1"/>
        <pt x="302" y="0" on="1"/>
        <pt x="346" y="324" on="1"/>
        <pt x="349" y="342" on="0"/>
        <pt x="349" y="360" on="1"/>
        <pt x="349" y="414" on="0"/>
        <pt x="299" y="414" on="1"/>
        <pt x="277" y="414" on="0"/>
        <pt x="207" y="378" on="0"/>
        <pt x="189" y="361" on="1"/>
        <pt x="141" y="0" on="1"/>
        <pt x="27" y="0" on="1"/>
        <pt x="122" y="715" on="1"/>
        <pt x="118" y="769" on="1"/>
        <pt x="244" y="769" on="1"/>
        <pt x="200" y="450" on="1"/>
        <pt x="279" y="511" on="0"/>
        <pt x="345" y="511" on="1"/>
        <pt x="466" y="511" on="0"/>
      </contour>
    </TTGlyph>
    <TTGlyph name="hungarumlaut" xMin="0" yMin="590" xMax="381" yMax="732">
      <contour>
        <pt x="381" y="732" on="1"/>
        <pt x="250" y="590" on="1"/>
        <pt x="157" y="590" on="1"/>
        <pt x="246" y="732" on="1"/>
      </contour>
      <contour>
        <pt x="224" y="732" on="1"/>
        <pt x="93" y="590" on="1"/>
        <pt x="0" y="590" on="1"/>
        <pt x="89" y="732" on="1"/>
      </contour>
    </TTGlyph>
    <TTGlyph name="hyphen" xMin="43" yMin="210" xMax="277" yMax="305">
      <contour>
        <pt x="277" y="305" on="1"/>
        <pt x="264" y="210" on="1"/>
        <pt x="43" y="210" on="1"/>
        <pt x="56" y="305" on="1"/>
      </contour>
    </TTGlyph>
    <TTGlyph name="i" xMin="27" yMin="0" xMax="248" yMax="757">
      <contour>
        <pt x="248" y="692" on="1"/>
        <pt x="248" y="658" on="0"/>
        <pt x="199" y="604" on="0"/>
        <pt x="165" y="604" on="1"/>
        <pt x="138" y="604" on="0"/>
        <pt x="102" y="643" on="0"/>
        <pt x="102" y="670" on="1"/>
        <pt x="102" y="704" on="0"/>
        <pt x="152" y="757" on="0"/>
        <pt x="186" y="757" on="1"/>
        <pt x="213" y="757" on="0"/>
        <pt x="248" y="719" on="0"/>
      </contour>
      <contour>
        <pt x="207" y="497" on="1"/>
        <pt x="148" y="55" on="1"/>
        <pt x="151" y="0" on="1"/>
        <pt x="27" y="0" on="1"/>
        <pt x="86" y="443" on="1"/>
        <pt x="83" y="497" on="1"/>
      </contour>
    </TTGlyph>
    <TTGlyph name="iacute" xMin="27" yMin="0" xMax="364" yMax="757">
      <component glyphName="dotlessi" x="0" y="0" flags="0x4"/>
      <component glyphName="acute" x="66" y="2" flags="0x4"/>
    </TTGlyph>
    <TTGlyph name="icircumflex" xMin="7" yMin="0" xMax="300" yMax="737">
      <component glyphName="circumflex" x="25" y="4" flags="0x4"/>
      <component glyphName="dotlessi" x="0" y="0" flags="0x4"/>
    </TTGlyph>
    <TTGlyph name="idieresis" xMin="14" yMin="0" xMax="297" yMax="684">
      <component glyphName="dotlessi" x="1" y="0" flags="0x4"/>
      <component glyphName="dieresis" x="20" y="0" flags="0x4"/>
    </TTGlyph>
    <TTGlyph name="igrave" xMin="-31" yMin="0" xMax="223" yMax="757">
      <component glyphName="dotlessi" x="1" y="0" flags="0x4"/>
      <component glyphName="grave" x="-35" y="2" flags="0x4"/>
    </TTGlyph>
    <TTGlyph name="infinity" xMin="70" yMin="74" xMax="742" yMax="424">
      <contour>
        <pt x="406" y="181" on="1"/>
        <pt x="364" y="132" on="0"/>
        <pt x="283" y="74" on="0"/>
        <pt x="235" y="74" on="1"/>
        <pt x="159" y="74" on="0"/>
        <pt x="70" y="172" on="0"/>
        <pt x="70" y="326" on="0"/>
        <pt x="159" y="424" on="0"/>
        <pt x="235" y="424" on="1"/>
        <pt x="283" y="424" on="0"/>
        <pt x="364" y="366" on="0"/>
        <pt x="406" y="317" on="1"/>
        <pt x="448" y="366" on="0"/>
        <pt x="529" y="424" on="0"/>
        <pt x="577" y="424" on="1"/>
        <pt x="653" y="424" on="0"/>
        <pt x="742" y="326" on="0"/>
        <pt x="742" y="172" on="0"/>
        <pt x="653" y="74" on="0"/>
        <pt x="577" y="74" on="1"/>
        <pt x="529" y="74" on="0"/>
        <pt x="448" y="132" on="0"/>
      </contour>
      <contour>
        <pt x="466" y="249" on="1"/>
        <pt x="527" y="184" on="0"/>
        <pt x="578" y="184" on="1"/>
        <pt x="609" y="184" on="0"/>
        <pt x="643" y="219" on="0"/>
        <pt x="643" y="279" on="0"/>
        <pt x="609" y="314" on="0"/>
        <pt x="578" y="314" on="1"/>
        <pt x="527" y="314" on="0"/>
      </contour>
      <contour>
        <pt x="346" y="249" on="1"/>
        <pt x="285" y="314" on="0"/>
        <pt x="234" y="314" on="1"/>
        <pt x="203" y="314" on="0"/>
        <pt x="169" y="279" on="0"/>
        <pt x="169" y="219" on="0"/>
        <pt x="203" y="184" on="0"/>
        <pt x="234" y="184" on="1"/>
        <pt x="285" y="184" on="0"/>
      </contour>
    </TTGlyph>
    <TTGlyph name="integral" xMin="-23" yMin="-227" xMax="282" yMax="742">
      <contour>
        <pt x="-23" y="-227" on="1"/>
        <pt x="-23" y="-147" on="1"/>
        <pt x="25" y="-147" on="0"/>
        <pt x="77" y="-82" on="0"/>
        <pt x="77" y="-34" on="1"/>
        <pt x="77" y="525" on="1"/>
        <pt x="77" y="636" on="0"/>
        <pt x="168" y="742" on="0"/>
        <pt x="282" y="742" on="1"/>
        <pt x="282" y="662" on="1"/>
        <pt x="199" y="662" on="0"/>
        <pt x="199" y="549" on="1"/>
        <pt x="199" y="-10" on="1"/>
        <pt x="199" y="-121" on="0"/>
        <pt x="94" y="-227" on="0"/>
      </contour>
    </TTGlyph>
    <TTGlyph name="j" xMin="-205" yMin="-230" xMax="248" yMax="757">
      <contour>
        <pt x="248" y="692" on="1"/>
        <pt x="248" y="658" on="0"/>
        <pt x="198" y="604" on="0"/>
        <pt x="165" y="604" on="1"/>
        <pt x="138" y="604" on="0"/>
        <pt x="101" y="643" on="0"/>
        <pt x="101" y="670" on="1"/>
        <pt x="101" y="704" on="0"/>
        <pt x="152" y="757" on="0"/>
        <pt x="185" y="757" on="1"/>
        <pt x="212" y="757" on="0"/>
        <pt x="248" y="719" on="0"/>
      </contour>
      <contour>
        <pt x="209" y="497" on="1"/>
        <pt x="146" y="34" on="1"/>
        <pt x="141" y="-1" on="0"/>
        <pt x="134" y="-43" on="0"/>
        <pt x="119" y="-106" on="0"/>
        <pt x="101" y="-144" on="0"/>
        <pt x="70" y="-189" on="0"/>
        <pt x="32" y="-213" on="0"/>
        <pt x="-23" y="-230" on="0"/>
        <pt x="-57" y="-230" on="1"/>
        <pt x="-136" y="-230" on="0"/>
        <pt x="-205" y="-188" on="1"/>
        <pt x="-150" y="-108" on="1"/>
        <pt x="-137" y="-127" on="0"/>
        <pt x="-87" y="-150" on="0"/>
        <pt x="-63" y="-150" on="1"/>
        <pt x="-38" y="-150" on="0"/>
        <pt x="-3" y="-116" on="0"/>
        <pt x="17" y="-53" on="0"/>
        <pt x="25" y="-15" on="0"/>
        <pt x="29" y="15" on="1"/>
        <pt x="87" y="444" on="1"/>
        <pt x="83" y="497" on="1"/>
      </contour>
    </TTGlyph>
    <TTGlyph name="k" xMin="27" yMin="0" xMax="474" yMax="769">
      <contour>
        <pt x="474" y="497" on="1"/>
        <pt x="295" y="267" on="1"/>
        <pt x="429" y="0" on="1"/>
        <pt x="297" y="0" on="1"/>
        <pt x="177" y="255" on="1"/>
        <pt x="143" y="0" on="1"/>
        <pt x="27" y="0" on="1"/>
        <pt x="122" y="715" on="1"/>
        <pt x="117" y="769" on="1"/>
        <pt x="246" y="769" on="1"/>
        <pt x="179" y="269" on="1"/>
        <pt x="346" y="497" on="1"/>
      </contour>
    </TTGlyph>
    <TTGlyph name="l" xMin="27" yMin="0" xMax="247" yMax="769">
      <contour>
        <pt x="247" y="769" on="1"/>
        <pt x="151" y="54" on="1"/>
        <pt x="154" y="0" on="1"/>
        <pt x="27" y="0" on="1"/>
        <pt x="122" y="715" on="1"/>
        <pt x="119" y="769" on="1"/>
      </contour>
    </TTGlyph>
    <TTGlyph name="less" xMin="66" yMin="-12" xMax="564" yMax="509">
      <contour>
        <pt x="564" y="-12" on="1"/>
        <pt x="66" y="223" on="1"/>
        <pt x="66" y="275" on="1"/>
        <pt x="564" y="509" on="1"/>
        <pt x="564" y="419" on="1"/>
        <pt x="196" y="249" on="1"/>
        <pt x="564" y="76" on="1"/>
      </contour>
    </TTGlyph>
    <TTGlyph name="lessequal" xMin="66" yMin="1" xMax="565" yMax="511">
      <contour>
        <pt x="564" y="106" on="1"/>
        <pt x="66" y="283" on="1"/>
        <pt x="66" y="335" on="1"/>
        <pt x="564" y="511" on="1"/>
        <pt x="564" y="421" on="1"/>
        <pt x="306" y="330" on="1"/>
        <pt x="263" y="314" on="0"/>
        <pt x="200" y="309" on="1"/>
        <pt x="253" y="307" on="0"/>
        <pt x="304" y="290" on="1"/>
        <pt x="564" y="198" on="1"/>
      </contour>
      <contour>
        <pt x="565" y="1" on="1"/>
        <pt x="69" y="1" on="1"/>
        <pt x="69" y="89" on="1"/>
        <pt x="565" y="89" on="1"/>
      </contour>
    </TTGlyph>
    <TTGlyph name="logicalnot" xMin="70" yMin="79" xMax="568" yMax="350">
      <contour>
        <pt x="568" y="79" on="1"/>
        <pt x="482" y="79" on="1"/>
        <pt x="482" y="267" on="1"/>
        <pt x="70" y="267" on="1"/>
        <pt x="70" y="350" on="1"/>
        <pt x="568" y="350" on="1"/>
      </contour>
    </TTGlyph>
    <TTGlyph name="lozenge" xMin="25" yMin="-14" xMax="479" yMax="739">
      <contour>
        <pt x="273" y="-14" on="1"/>
        <pt x="231" y="-14" on="1"/>
        <pt x="25" y="362" on="1"/>
        <pt x="231" y="739" on="1"/>
        <pt x="273" y="739" on="1"/>
        <pt x="479" y="362" on="1"/>
      </contour>
      <contour>
        <pt x="254" y="101" on="1"/>
        <pt x="390" y="362" on="1"/>
        <pt x="254" y="624" on="1"/>
        <pt x="250" y="624" on="1"/>
        <pt x="113" y="362" on="1"/>
        <pt x="250" y="101" on="1"/>
      </contour>
    </TTGlyph>
    <TTGlyph name="lslash" xMin="-9" yMin="0" xMax="252" yMax="768">
      <contour>
        <pt x="131" y="0" on="1"/>
        <pt x="15" y="0" on="1"/>
        <pt x="51" y="274" on="1"/>
        <pt x="-9" y="246" on="1"/>
        <pt x="3" y="343" on="1"/>
        <pt x="64" y="371" on="1"/>
        <pt x="109" y="715" on="1"/>
        <pt x="106" y="768" on="1"/>
        <pt x="232" y="768" on="1"/>
        <pt x="187" y="428" on="1"/>
        <pt x="252" y="458" on="1"/>
        <pt x="239" y="360" on="1"/>
        <pt x="174" y="330" on="1"/>
      </contour>
    </TTGlyph>
    <TTGlyph name="m" xMin="27" yMin="0" xMax="733" yMax="510">
      <contour>
        <pt x="733" y="389" on="1"/>
        <pt x="733" y="371" on="0"/>
        <pt x="729" y="339" on="1"/>
        <pt x="691" y="53" on="1"/>
        <pt x="694" y="0" on="1"/>
        <pt x="570" y="0" on="1"/>
        <pt x="614" y="332" on="1"/>
        <pt x="616" y="350" on="0"/>
        <pt x="616" y="360" on="1"/>
        <pt x="616" y="388" on="0"/>
        <pt x="591" y="414" on="0"/>
        <pt x="563" y="414" on="1"/>
        <pt x="517" y="414" on="0"/>
        <pt x="460" y="362" on="1"/>
        <pt x="412" y="0" on="1"/>
        <pt x="297" y="0" on="1"/>
        <pt x="342" y="335" on="1"/>
        <pt x="344" y="351" on="0"/>
        <pt x="344" y="359" on="1"/>
        <pt x="344" y="414" on="0"/>
        <pt x="293" y="414" on="1"/>
        <pt x="269" y="414" on="0"/>
        <pt x="211" y="382" on="0"/>
        <pt x="190" y="361" on="1"/>
        <pt x="141" y="0" on="1"/>
        <pt x="27" y="0" on="1"/>
        <pt x="75" y="356" on="1"/>
        <pt x="78" y="385" on="0"/>
        <pt x="78" y="414" on="1"/>
        <pt x="78" y="471" on="0"/>
        <pt x="64" y="493" on="1"/>
        <pt x="185" y="508" on="1"/>
        <pt x="193" y="480" on="0"/>
        <pt x="193" y="444" on="1"/>
        <pt x="273" y="510" on="0"/>
        <pt x="347" y="510" on="1"/>
        <pt x="435" y="510" on="0"/>
        <pt x="455" y="437" on="1"/>
        <pt x="533" y="510" on="0"/>
        <pt x="619" y="510" on="1"/>
        <pt x="733" y="510" on="0"/>
      </contour>
    </TTGlyph>
    <TTGlyph name="macron" xMin="-28" yMin="595" xMax="302" yMax="659">
      <contour>
        <pt x="302" y="595" on="1"/>
        <pt x="-28" y="595" on="1"/>
        <pt x="-28" y="659" on="1"/>
        <pt x="302" y="659" on="1"/>
      </contour>
    </TTGlyph>
    <TTGlyph name="minus" xMin="70" yMin="205" xMax="566" yMax="293">
      <contour>
        <pt x="566" y="205" on="1"/>
        <pt x="70" y="205" on="1"/>
        <pt x="70" y="293" on="1"/>
        <pt x="566" y="293" on="1"/>
      </contour>
    </TTGlyph>
    <TTGlyph name="mu" xMin="39" yMin="-187" xMax="547" yMax="497">
      <contour>
        <pt x="547" y="18" on="1"/>
        <pt x="541" y="16" on="0"/>
        <pt x="485" y="-1" on="0"/>
        <pt x="449" y="-9" on="0"/>
        <pt x="433" y="-9" on="1"/>
        <pt x="405" y="-9" on="0"/>
        <pt x="370" y="28" on="0"/>
        <pt x="368" y="57" on="1"/>
        <pt x="302" y="-11" on="0"/>
        <pt x="242" y="-11" on="1"/>
        <pt x="209" y="-11" on="0"/>
        <pt x="182" y="4" on="1"/>
        <pt x="156" y="-187" on="1"/>
        <pt x="39" y="-187" on="1"/>
        <pt x="123" y="444" on="1"/>
        <pt x="120" y="497" on="1"/>
        <pt x="245" y="497" on="1"/>
        <pt x="203" y="186" on="1"/>
        <pt x="200" y="168" on="0"/>
        <pt x="200" y="149" on="1"/>
        <pt x="200" y="83" on="0"/>
        <pt x="252" y="83" on="1"/>
        <pt x="309" y="83" on="0"/>
        <pt x="358" y="130" on="1"/>
        <pt x="400" y="444" on="1"/>
        <pt x="396" y="497" on="1"/>
        <pt x="522" y="497" on="1"/>
        <pt x="474" y="131" on="1"/>
        <pt x="472" y="119" on="0"/>
        <pt x="472" y="108" on="1"/>
        <pt x="472" y="79" on="0"/>
        <pt x="490" y="79" on="1"/>
        <pt x="495" y="79" on="0"/>
        <pt x="537" y="91" on="1"/>
      </contour>
    </TTGlyph>
    <TTGlyph name="multiply" xMin="60" yMin="42" xMax="474" yMax="455">
      <contour>
        <pt x="474" y="104" on="1"/>
        <pt x="412" y="42" on="1"/>
        <pt x="267" y="186" on="1"/>
        <pt x="122" y="42" on="1"/>
        <pt x="60" y="104" on="1"/>
        <pt x="205" y="248" on="1"/>
        <pt x="60" y="393" on="1"/>
        <pt x="122" y="455" on="1"/>
        <pt x="267" y="311" on="1"/>
        <pt x="412" y="455" on="1"/>
        <pt x="474" y="393" on="1"/>
        <pt x="329" y="248" on="1"/>
      </contour>
    </TTGlyph>
    <TTGlyph name="n" xMin="27" yMin="0" xMax="467" yMax="511">
      <contour>
        <pt x="467" y="387" on="1"/>
        <pt x="467" y="360" on="0"/>
        <pt x="464" y="336" on="1"/>
        <pt x="426" y="54" on="1"/>
        <pt x="429" y="0" on="1"/>
        <pt x="304" y="0" on="1"/>
        <pt x="347" y="324" on="1"/>
        <pt x="350" y="342" on="0"/>
        <pt x="350" y="360" on="1"/>
        <pt x="350" y="414" on="0"/>
        <pt x="300" y="414" on="1"/>
        <pt x="278" y="414" on="0"/>
        <pt x="207" y="378" on="0"/>
        <pt x="190" y="361" on="1"/>
        <pt x="141" y="0" on="1"/>
        <pt x="27" y="0" on="1"/>
        <pt x="75" y="356" on="1"/>
        <pt x="78" y="385" on="0"/>
        <pt x="78" y="414" on="1"/>
        <pt x="78" y="471" on="0"/>
        <pt x="64" y="493" on="1"/>
        <pt x="185" y="508" on="1"/>
        <pt x="193" y="480" on="0"/>
        <pt x="193" y="444" on="1"/>
        <pt x="274" y="511" on="0"/>
        <pt x="346" y="511" on="1"/>
        <pt x="467" y="511" on="0"/>
      </contour>
    </TTGlyph>
    <TTGlyph name="nine" xMin="7" yMin="-214" xMax="517" yMax="511">
      <contour>
        <pt x="517" y="297" on="1"/>
        <pt x="517" y="204" on="0"/>
        <pt x="431" y="34" on="0"/>
        <pt x="289" y="-94" on="0"/>
        <pt x="117" y="-187" on="0"/>
        <pt x="24" y="-214" on="1"/>
        <pt x="7" y="-149" on="1"/>
        <pt x="107" y="-115" on="0"/>
        <pt x="290" y="25" on="0"/>
        <pt x="344" y="115" on="1"/>
        <pt x="285" y="78" on="0"/>
        <pt x="229" y="78" on="1"/>
        <pt x="149" y="78" on="0"/>
        <pt x="52" y="173" on="0"/>
        <pt x="52" y="252" on="1"/>
        <pt x="52" y="361" on="0"/>
        <pt x="209" y="511" on="0"/>
        <pt x="310" y="511" on="1"/>
        <pt x="406" y="511" on="0"/>
        <pt x="517" y="393" on="0"/>
      </contour>
      <contour>
        <pt x="378" y="217" on="1"/>
        <pt x="389" y="265" on="0"/>
        <pt x="389" y="301" on="1"/>
        <pt x="389" y="354" on="0"/>
        <pt x="346" y="428" on="0"/>
        <pt x="300" y="428" on="1"/>
        <pt x="245" y="428" on="0"/>
        <pt x="182" y="325" on="0"/>
        <pt x="182" y="266" on="1"/>
        <pt x="182" y="222" on="0"/>
        <pt x="224" y="164" on="0"/>
        <pt x="266" y="164" on="1"/>
        <pt x="323" y="164" on="0"/>
      </contour>
    </TTGlyph>
    <TTGlyph name="notequal" xMin="66" yMin="0" xMax="564" yMax="497">
      <contour>
        <pt x="564" y="109" on="1"/>
        <pt x="293" y="109" on="1"/>
        <pt x="242" y="0" on="1"/>
        <pt x="147" y="0" on="1"/>
        <pt x="198" y="109" on="1"/>
        <pt x="66" y="109" on="1"/>
        <pt x="66" y="197" on="1"/>
        <pt x="239" y="197" on="1"/>
        <pt x="287" y="302" on="1"/>
        <pt x="66" y="302" on="1"/>
        <pt x="66" y="390" on="1"/>
        <pt x="328" y="390" on="1"/>
        <pt x="378" y="497" on="1"/>
        <pt x="476" y="497" on="1"/>
        <pt x="426" y="390" on="1"/>
        <pt x="564" y="390" on="1"/>
        <pt x="564" y="302" on="1"/>
        <pt x="384" y="302" on="1"/>
        <pt x="335" y="197" on="1"/>
        <pt x="564" y="197" on="1"/>
      </contour>
    </TTGlyph>
    <TTGlyph name="ntilde" xMin="27" yMin="0" xMax="471" yMax="685">
      <component glyphName="tilde" x="158" y="1" flags="0x4"/>
      <component glyphName="n" x="0" y="0" flags="0x4"/>
    </TTGlyph>
    <TTGlyph name="numbersign" xMin="60" yMin="0" xMax="582" yMax="732">
      <contour>
        <pt x="582" y="425" on="1"/>
        <pt x="468" y="425" on="1"/>
        <pt x="450" y="297" on="1"/>
        <pt x="556" y="297" on="1"/>
        <pt x="556" y="208" on="1"/>
        <pt x="438" y="208" on="1"/>
        <pt x="410" y="0" on="1"/>
        <pt x="321" y="0" on="1"/>
        <pt x="349" y="208" on="1"/>
        <pt x="255" y="208" on="1"/>
        <pt x="227" y="0" on="1"/>
        <pt x="138" y="0" on="1"/>
        <pt x="166" y="208" on="1"/>
        <pt x="60" y="208" on="1"/>
        <pt x="60" y="297" on="1"/>
        <pt x="178" y="297" on="1"/>
        <pt x="196" y="425" on="1"/>
        <pt x="86" y="425" on="1"/>
        <pt x="86" y="514" on="1"/>
        <pt x="208" y="514" on="1"/>
        <pt x="237" y="732" on="1"/>
        <pt x="326" y="732" on="1"/>
        <pt x="297" y="514" on="1"/>
        <pt x="391" y="514" on="1"/>
        <pt x="420" y="732" on="1"/>
        <pt x="509" y="732" on="1"/>
        <pt x="480" y="514" on="1"/>
        <pt x="582" y="514" on="1"/>
      </contour>
      <contour>
        <pt x="379" y="425" on="1"/>
        <pt x="285" y="425" on="1"/>
        <pt x="267" y="297" on="1"/>
        <pt x="361" y="297" on="1"/>
      </contour>
    </TTGlyph>
    <TTGlyph name="o" xMin="21" yMin="-12" xMax="487" yMax="510">
      <contour>
        <pt x="487" y="295" on="1"/>
        <pt x="487" y="217" on="0"/>
        <pt x="423" y="78" on="0"/>
        <pt x="298" y="-12" on="0"/>
        <pt x="219" y="-12" on="1"/>
        <pt x="126" y="-12" on="0"/>
        <pt x="21" y="108" on="0"/>
        <pt x="21" y="203" on="1"/>
        <pt x="21" y="324" on="0"/>
        <pt x="171" y="510" on="0"/>
        <pt x="289" y="510" on="1"/>
        <pt x="382" y="510" on="0"/>
        <pt x="487" y="390" on="0"/>
      </contour>
      <contour>
        <pt x="362" y="305" on="1"/>
        <pt x="362" y="428" on="0"/>
        <pt x="278" y="428" on="1"/>
        <pt x="242" y="428" on="0"/>
        <pt x="187" y="379" on="0"/>
        <pt x="159" y="303" on="0"/>
        <pt x="146" y="230" on="0"/>
        <pt x="146" y="197" on="1"/>
        <pt x="146" y="68" on="0"/>
        <pt x="230" y="68" on="1"/>
        <pt x="267" y="68" on="0"/>
        <pt x="323" y="118" on="0"/>
        <pt x="350" y="196" on="0"/>
        <pt x="362" y="270" on="0"/>
      </contour>
    </TTGlyph>
    <TTGlyph name="oacute" xMin="21" yMin="-12" xMax="511" yMax="756">
      <component glyphName="acute" x="213" y="1" flags="0x4"/>
      <component glyphName="o" x="0" y="0" flags="0x4"/>
    </TTGlyph>
    <TTGlyph name="ocircumflex" xMin="21" yMin="-12" xMax="487" yMax="736">
      <component glyphName="circumflex" x="177" y="3" flags="0x4"/>
      <component glyphName="o" x="0" y="0" flags="0x4"/>
    </TTGlyph>
    <TTGlyph name="odieresis" xMin="21" yMin="-12" xMax="487" yMax="694">
      <component glyphName="dieresis" x="168" y="10" flags="0x4"/>
      <component glyphName="o" x="0" y="0" flags="0x4"/>
    </TTGlyph>
    <TTGlyph name="oe" xMin="21" yMin="-12" xMax="787" yMax="510">
      <contour>
        <pt x="787" y="394" on="1"/>
        <pt x="787" y="362" on="0"/>
        <pt x="758" y="298" on="0"/>
        <pt x="694" y="235" on="0"/>
        <pt x="569" y="195" on="0"/>
        <pt x="484" y="194" on="1"/>
        <pt x="488" y="137" on="0"/>
        <pt x="544" y="76" on="0"/>
        <pt x="585" y="76" on="1"/>
        <pt x="649" y="76" on="0"/>
        <pt x="729" y="137" on="1"/>
        <pt x="771" y="54" on="1"/>
        <pt x="768" y="51" on="0"/>
        <pt x="756" y="42" on="0"/>
        <pt x="717" y="20" on="0"/>
        <pt x="674" y="2" on="0"/>
        <pt x="607" y="-12" on="0"/>
        <pt x="573" y="-12" on="1"/>
        <pt x="459" y="-12" on="0"/>
        <pt x="399" y="65" on="1"/>
        <pt x="325" y="-12" on="0"/>
        <pt x="219" y="-12" on="1"/>
        <pt x="126" y="-12" on="0"/>
        <pt x="21" y="108" on="0"/>
        <pt x="21" y="203" on="1"/>
        <pt x="21" y="324" on="0"/>
        <pt x="171" y="510" on="0"/>
        <pt x="289" y="510" on="1"/>
        <pt x="396" y="510" on="0"/>
        <pt x="449" y="431" on="1"/>
        <pt x="526" y="510" on="0"/>
        <pt x="634" y="510" on="1"/>
        <pt x="702" y="510" on="0"/>
        <pt x="787" y="450" on="0"/>
      </contour>
      <contour>
        <pt x="664" y="392" on="1"/>
        <pt x="664" y="426" on="0"/>
        <pt x="625" y="426" on="1"/>
        <pt x="592" y="426" on="0"/>
        <pt x="506" y="352" on="0"/>
        <pt x="490" y="279" on="1"/>
        <pt x="568" y="281" on="0"/>
        <pt x="664" y="346" on="0"/>
      </contour>
      <contour>
        <pt x="362" y="305" on="1"/>
        <pt x="362" y="428" on="0"/>
        <pt x="278" y="428" on="1"/>
        <pt x="242" y="428" on="0"/>
        <pt x="187" y="379" on="0"/>
        <pt x="159" y="303" on="0"/>
        <pt x="146" y="230" on="0"/>
        <pt x="146" y="197" on="1"/>
        <pt x="146" y="68" on="0"/>
        <pt x="230" y="68" on="1"/>
        <pt x="267" y="68" on="0"/>
        <pt x="323" y="118" on="0"/>
        <pt x="350" y="196" on="0"/>
        <pt x="362" y="270" on="0"/>
      </contour>
    </TTGlyph>
    <TTGlyph name="ogonek" xMin="23" yMin="-211" xMax="272" yMax="33">
      <contour>
        <pt x="272" y="14" on="1"/>
        <pt x="269" y="12" on="0"/>
        <pt x="214" y="-15" on="0"/>
        <pt x="186" y="-32" on="0"/>
        <pt x="144" y="-62" on="0"/>
        <pt x="124" y="-93" on="0"/>
        <pt x="124" y="-109" on="1"/>
        <pt x="124" y="-140" on="0"/>
        <pt x="161" y="-140" on="1"/>
        <pt x="192" y="-140" on="0"/>
        <pt x="249" y="-104" on="1"/>
        <pt x="265" y="-154" on="1"/>
        <pt x="186" y="-211" on="0"/>
        <pt x="115" y="-211" on="1"/>
        <pt x="75" y="-211" on="0"/>
        <pt x="23" y="-172" on="0"/>
        <pt x="23" y="-134" on="1"/>
        <pt x="23" y="-91" on="0"/>
        <pt x="102" y="-15" on="0"/>
        <pt x="198" y="26" on="0"/>
        <pt x="240" y="33" on="1"/>
      </contour>
    </TTGlyph>
    <TTGlyph name="ograve" xMin="21" yMin="-12" xMax="487" yMax="757">
      <component glyphName="o" x="0" y="0" flags="0x204"/>
      <component glyphName="grave" x="86" y="2" flags="0x4"/>
    </TTGlyph>
    <TTGlyph name="one" xMin="11" yMin="0" xMax="341" yMax="498">
      <contour>
        <pt x="328" y="0" on="1"/>
        <pt x="11" y="0" on="1"/>
        <pt x="24" y="99" on="1"/>
        <pt x="127" y="99" on="1"/>
        <pt x="163" y="378" on="1"/>
        <pt x="57" y="349" on="1"/>
        <pt x="45" y="413" on="1"/>
        <pt x="220" y="498" on="1"/>
        <pt x="294" y="498" on="1"/>
        <pt x="242" y="99" on="1"/>
        <pt x="341" y="99" on="1"/>
      </contour>
    </TTGlyph>
    <TTGlyph name="onehalf" xMin="70" yMin="-27" xMax="1028" yMax="753">
      <contour>
        <pt x="961" y="0" on="1"/>
        <pt x="638" y="0" on="1"/>
        <pt x="638" y="52" on="1"/>
        <pt x="648" y="60" on="1"/>
        <pt x="701" y="103" on="0"/>
        <pt x="804" y="196" on="0"/>
        <pt x="906" y="323" on="0"/>
        <pt x="906" y="361" on="1"/>
        <pt x="906" y="383" on="0"/>
        <pt x="876" y="409" on="0"/>
        <pt x="853" y="409" on="1"/>
        <pt x="799" y="409" on="0"/>
        <pt x="730" y="357" on="1"/>
        <pt x="697" y="426" on="1"/>
        <pt x="793" y="497" on="0"/>
        <pt x="889" y="497" on="1"/>
        <pt x="950" y="497" on="0"/>
        <pt x="1028" y="441" on="0"/>
        <pt x="1028" y="384" on="1"/>
        <pt x="1028" y="311" on="0"/>
        <pt x="900" y="160" on="0"/>
        <pt x="819" y="106" on="1"/>
        <pt x="1001" y="106" on="1"/>
      </contour>
      <contour>
        <pt x="400" y="-27" on="1"/>
        <pt x="321" y="-27" on="1"/>
        <pt x="720" y="753" on="1"/>
        <pt x="800" y="753" on="1"/>
      </contour>
      <contour>
        <pt x="407" y="246" on="1"/>
        <pt x="70" y="246" on="1"/>
        <pt x="80" y="325" on="1"/>
        <pt x="207" y="325" on="1"/>
        <pt x="247" y="628" on="1"/>
        <pt x="123" y="593" on="1"/>
        <pt x="108" y="663" on="1"/>
        <pt x="200" y="691" on="0"/>
        <pt x="287" y="732" on="1"/>
        <pt x="368" y="732" on="1"/>
        <pt x="315" y="325" on="1"/>
        <pt x="417" y="325" on="1"/>
      </contour>
    </TTGlyph>
    <TTGlyph name="onequarter" xMin="69" yMin="-27" xMax="971" yMax="753">
      <contour>
        <pt x="880" y="0" on="1"/>
        <pt x="772" y="0" on="1"/>
        <pt x="785" y="101" on="1"/>
        <pt x="578" y="101" on="1"/>
        <pt x="578" y="153" on="1"/>
        <pt x="837" y="486" on="1"/>
        <pt x="944" y="486" on="1"/>
        <pt x="903" y="180" on="1"/>
        <pt x="971" y="180" on="1"/>
        <pt x="960" y="101" on="1"/>
        <pt x="893" y="101" on="1"/>
      </contour>
      <contour>
        <pt x="795" y="180" on="1"/>
        <pt x="811" y="297" on="1"/>
        <pt x="812" y="306" on="0"/>
        <pt x="821" y="350" on="0"/>
        <pt x="826" y="368" on="1"/>
        <pt x="830" y="386" on="1"/>
        <pt x="807" y="333" on="0"/>
        <pt x="769" y="283" on="1"/>
        <pt x="690" y="180" on="1"/>
      </contour>
      <contour>
        <pt x="399" y="-27" on="1"/>
        <pt x="320" y="-27" on="1"/>
        <pt x="719" y="753" on="1"/>
        <pt x="799" y="753" on="1"/>
      </contour>
      <contour>
        <pt x="406" y="246" on="1"/>
        <pt x="69" y="246" on="1"/>
        <pt x="79" y="325" on="1"/>
        <pt x="206" y="325" on="1"/>
        <pt x="246" y="628" on="1"/>
        <pt x="122" y="593" on="1"/>
        <pt x="107" y="663" on="1"/>
        <pt x="199" y="691" on="0"/>
        <pt x="286" y="732" on="1"/>
        <pt x="367" y="732" on="1"/>
        <pt x="314" y="325" on="1"/>
        <pt x="416" y="325" on="1"/>
      </contour>
    </TTGlyph>
    <TTGlyph name="onesuperior" xMin="38" yMin="438" xMax="385" yMax="924">
      <contour>
        <pt x="375" y="438" on="1"/>
        <pt x="38" y="438" on="1"/>
        <pt x="48" y="517" on="1"/>
        <pt x="175" y="517" on="1"/>
        <pt x="215" y="820" on="1"/>
        <pt x="91" y="785" on="1"/>
        <pt x="76" y="855" on="1"/>
        <pt x="168" y="883" on="0"/>
        <pt x="255" y="924" on="1"/>
        <pt x="336" y="924" on="1"/>
        <pt x="283" y="517" on="1"/>
        <pt x="385" y="517" on="1"/>
      </contour>
    </TTGlyph>
    <TTGlyph name="ordfeminine" xMin="31" yMin="252" xMax="370" yMax="715">
      <contour>
        <pt x="370" y="391" on="1"/>
        <pt x="335" y="370" on="0"/>
        <pt x="299" y="370" on="1"/>
        <pt x="279" y="370" on="0"/>
        <pt x="249" y="396" on="0"/>
        <pt x="245" y="416" on="1"/>
        <pt x="241" y="416" on="1"/>
        <pt x="205" y="368" on="0"/>
        <pt x="145" y="368" on="1"/>
        <pt x="89" y="368" on="0"/>
        <pt x="31" y="449" on="0"/>
        <pt x="31" y="507" on="1"/>
        <pt x="31" y="589" on="0"/>
        <pt x="128" y="715" on="0"/>
        <pt x="210" y="715" on="1"/>
        <pt x="257" y="715" on="0"/>
        <pt x="290" y="682" on="1"/>
        <pt x="305" y="709" on="1"/>
        <pt x="347" y="709" on="1"/>
        <pt x="311" y="463" on="1"/>
        <pt x="310" y="458" on="0"/>
        <pt x="310" y="449" on="1"/>
        <pt x="310" y="425" on="0"/>
        <pt x="326" y="425" on="1"/>
        <pt x="337" y="425" on="0"/>
        <pt x="358" y="433" on="1"/>
      </contour>
      <contour>
        <pt x="300" y="310" on="1"/>
        <pt x="292" y="252" on="1"/>
        <pt x="65" y="252" on="1"/>
        <pt x="73" y="310" on="1"/>
      </contour>
      <contour>
        <pt x="262" y="634" on="1"/>
        <pt x="235" y="660" on="0"/>
        <pt x="205" y="660" on="1"/>
        <pt x="172" y="660" on="0"/>
        <pt x="127" y="601" on="0"/>
        <pt x="112" y="536" on="0"/>
        <pt x="112" y="507" on="1"/>
        <pt x="112" y="424" on="0"/>
        <pt x="160" y="424" on="1"/>
        <pt x="184" y="424" on="0"/>
        <pt x="220" y="461" on="0"/>
        <pt x="243" y="530" on="0"/>
        <pt x="256" y="591" on="0"/>
      </contour>
    </TTGlyph>
    <TTGlyph name="ordmasculine" xMin="18" yMin="252" xMax="335" yMax="715">
      <contour>
        <pt x="335" y="573" on="1"/>
        <pt x="335" y="488" on="0"/>
        <pt x="235" y="366" on="0"/>
        <pt x="152" y="366" on="1"/>
        <pt x="89" y="366" on="0"/>
        <pt x="18" y="443" on="0"/>
        <pt x="18" y="508" on="1"/>
        <pt x="18" y="592" on="0"/>
        <pt x="118" y="715" on="0"/>
        <pt x="200" y="715" on="1"/>
        <pt x="264" y="715" on="0"/>
        <pt x="335" y="637" on="0"/>
      </contour>
      <contour>
        <pt x="258" y="310" on="1"/>
        <pt x="250" y="252" on="1"/>
        <pt x="23" y="252" on="1"/>
        <pt x="31" y="310" on="1"/>
      </contour>
      <contour>
        <pt x="250" y="576" on="1"/>
        <pt x="250" y="660" on="0"/>
        <pt x="192" y="660" on="1"/>
        <pt x="159" y="660" on="0"/>
        <pt x="116" y="602" on="0"/>
        <pt x="102" y="537" on="0"/>
        <pt x="102" y="505" on="1"/>
        <pt x="102" y="421" on="0"/>
        <pt x="161" y="421" on="1"/>
        <pt x="193" y="421" on="0"/>
        <pt x="236" y="478" on="0"/>
        <pt x="250" y="543" on="0"/>
      </contour>
    </TTGlyph>
    <TTGlyph name="oslash" xMin="5" yMin="-73" xMax="524" yMax="556">
      <contour>
        <pt x="524" y="512" on="1"/>
        <pt x="463" y="433" on="1"/>
        <pt x="503" y="376" on="0"/>
        <pt x="503" y="295" on="1"/>
        <pt x="503" y="217" on="0"/>
        <pt x="439" y="78" on="0"/>
        <pt x="314" y="-12" on="0"/>
        <pt x="235" y="-12" on="1"/>
        <pt x="178" y="-12" on="0"/>
        <pt x="137" y="11" on="1"/>
        <pt x="72" y="-73" on="1"/>
        <pt x="5" y="-29" on="1"/>
        <pt x="77" y="64" on="1"/>
        <pt x="37" y="121" on="0"/>
        <pt x="37" y="203" on="1"/>
        <pt x="37" y="324" on="0"/>
        <pt x="187" y="510" on="0"/>
        <pt x="305" y="510" on="1"/>
        <pt x="361" y="510" on="0"/>
        <pt x="404" y="487" on="1"/>
        <pt x="457" y="556" on="1"/>
      </contour>
      <contour>
        <pt x="344" y="410" on="1"/>
        <pt x="324" y="428" on="0"/>
        <pt x="294" y="428" on="1"/>
        <pt x="258" y="428" on="0"/>
        <pt x="203" y="379" on="0"/>
        <pt x="175" y="303" on="0"/>
        <pt x="162" y="230" on="0"/>
        <pt x="162" y="197" on="1"/>
        <pt x="162" y="175" on="1"/>
      </contour>
      <contour>
        <pt x="378" y="305" on="1"/>
        <pt x="378" y="323" on="1"/>
        <pt x="195" y="87" on="1"/>
        <pt x="216" y="68" on="0"/>
        <pt x="246" y="68" on="1"/>
        <pt x="283" y="68" on="0"/>
        <pt x="339" y="118" on="0"/>
        <pt x="366" y="196" on="0"/>
        <pt x="378" y="270" on="0"/>
      </contour>
    </TTGlyph>
    <TTGlyph name="otilde" xMin="21" yMin="-12" xMax="487" yMax="685">
      <component glyphName="tilde" x="166" y="1" flags="0x4"/>
      <component glyphName="o" x="0" y="0" flags="0x4"/>
    </TTGlyph>
    <TTGlyph name="p" xMin="-2" yMin="-225" xMax="505" yMax="510">
      <contour>
        <pt x="505" y="301" on="1"/>
        <pt x="505" y="178" on="0"/>
        <pt x="365" y="-11" on="0"/>
        <pt x="246" y="-11" on="1"/>
        <pt x="178" y="-11" on="0"/>
        <pt x="145" y="21" on="1"/>
        <pt x="120" y="-170" on="1"/>
        <pt x="125" y="-225" on="1"/>
        <pt x="-2" y="-225" on="1"/>
        <pt x="76" y="356" on="1"/>
        <pt x="80" y="381" on="0"/>
        <pt x="80" y="413" on="1"/>
        <pt x="80" y="466" on="0"/>
        <pt x="67" y="492" on="1"/>
        <pt x="184" y="507" on="1"/>
        <pt x="192" y="479" on="0"/>
        <pt x="194" y="447" on="1"/>
        <pt x="217" y="475" on="0"/>
        <pt x="296" y="510" on="0"/>
        <pt x="334" y="510" on="1"/>
        <pt x="419" y="510" on="0"/>
        <pt x="505" y="389" on="0"/>
      </contour>
      <contour>
        <pt x="383" y="297" on="1"/>
        <pt x="383" y="426" on="0"/>
        <pt x="310" y="426" on="1"/>
        <pt x="287" y="426" on="0"/>
        <pt x="249" y="404" on="0"/>
        <pt x="222" y="373" on="0"/>
        <pt x="198" y="317" on="0"/>
        <pt x="184" y="272" on="0"/>
        <pt x="169" y="196" on="0"/>
        <pt x="162" y="150" on="0"/>
        <pt x="157" y="111" on="1"/>
        <pt x="197" y="71" on="0"/>
        <pt x="243" y="71" on="1"/>
        <pt x="273" y="71" on="0"/>
        <pt x="323" y="105" on="0"/>
        <pt x="354" y="155" on="0"/>
        <pt x="375" y="219" on="0"/>
        <pt x="383" y="274" on="0"/>
      </contour>
    </TTGlyph>
    <TTGlyph name="paragraph" xMin="5" yMin="-231" xMax="523" yMax="764">
      <contour>
        <pt x="523" y="764" on="1"/>
        <pt x="515" y="710" on="1"/>
        <pt x="459" y="710" on="1"/>
        <pt x="351" y="-63" on="1"/>
        <pt x="345" y="-108" on="0"/>
        <pt x="272" y="-174" on="0"/>
        <pt x="227" y="-174" on="1"/>
        <pt x="222" y="-174" on="0"/>
        <pt x="208" y="-172" on="1"/>
        <pt x="168" y="-231" on="0"/>
        <pt x="101" y="-231" on="1"/>
        <pt x="60" y="-231" on="0"/>
        <pt x="5" y="-177" on="0"/>
        <pt x="5" y="-136" on="1"/>
        <pt x="5" y="-85" on="0"/>
        <pt x="82" y="-9" on="0"/>
        <pt x="133" y="-9" on="1"/>
        <pt x="125" y="-63" on="1"/>
        <pt x="99" y="-63" on="0"/>
        <pt x="59" y="-102" on="0"/>
        <pt x="59" y="-128" on="1"/>
        <pt x="59" y="-149" on="0"/>
        <pt x="88" y="-177" on="0"/>
        <pt x="109" y="-177" on="1"/>
        <pt x="133" y="-177" on="0"/>
        <pt x="170" y="-143" on="0"/>
        <pt x="173" y="-120" on="1"/>
        <pt x="242" y="378" on="1"/>
        <pt x="171" y="378" on="0"/>
        <pt x="78" y="467" on="0"/>
        <pt x="78" y="538" on="1"/>
        <pt x="78" y="644" on="0"/>
        <pt x="223" y="764" on="0"/>
        <pt x="331" y="764" on="1"/>
      </contour>
      <contour>
        <pt x="405" y="710" on="1"/>
        <pt x="344" y="710" on="1"/>
        <pt x="228" y="-120" on="1"/>
        <pt x="232" y="-120" on="1"/>
        <pt x="256" y="-120" on="0"/>
        <pt x="294" y="-86" on="0"/>
        <pt x="297" y="-63" on="1"/>
      </contour>
    </TTGlyph>
    <TTGlyph name="parenleft" xMin="45" yMin="-146" xMax="379" yMax="743">
      <contour>
        <pt x="379" y="727" on="1"/>
        <pt x="267" y="607" on="0"/>
        <pt x="157" y="354" on="0"/>
        <pt x="157" y="199" on="1"/>
        <pt x="157" y="31" on="0"/>
        <pt x="265" y="-130" on="1"/>
        <pt x="172" y="-146" on="1"/>
        <pt x="45" y="30" on="0"/>
        <pt x="45" y="222" on="1"/>
        <pt x="45" y="494" on="0"/>
        <pt x="290" y="743" on="1"/>
      </contour>
    </TTGlyph>
    <TTGlyph name="parenright" xMin="-21" yMin="-146" xMax="313" yMax="743">
      <contour>
        <pt x="313" y="375" on="1"/>
        <pt x="313" y="103" on="0"/>
        <pt x="68" y="-146" on="1"/>
        <pt x="-21" y="-130" on="1"/>
        <pt x="90" y="-11" on="0"/>
        <pt x="201" y="242" on="0"/>
        <pt x="201" y="397" on="1"/>
        <pt x="201" y="563" on="0"/>
        <pt x="94" y="727" on="1"/>
        <pt x="186" y="743" on="1"/>
        <pt x="313" y="567" on="0"/>
      </contour>
    </TTGlyph>
    <TTGlyph name="partialdiff" xMin="19" yMin="-11" xMax="514" yMax="743">
      <contour>
        <pt x="369" y="385" on="1"/>
        <pt x="370" y="389" on="0"/>
        <pt x="372" y="436" on="1"/>
        <pt x="372" y="472" on="0"/>
        <pt x="361" y="538" on="0"/>
        <pt x="335" y="599" on="0"/>
        <pt x="285" y="636" on="0"/>
        <pt x="250" y="636" on="1"/>
        <pt x="220" y="636" on="0"/>
        <pt x="163" y="616" on="0"/>
        <pt x="150" y="606" on="1"/>
        <pt x="137" y="596" on="1"/>
        <pt x="100" y="671" on="1"/>
        <pt x="107" y="679" on="0"/>
        <pt x="136" y="703" on="0"/>
        <pt x="235" y="743" on="0"/>
        <pt x="291" y="743" on="1"/>
        <pt x="403" y="743" on="0"/>
        <pt x="514" y="588" on="0"/>
        <pt x="514" y="449" on="1"/>
        <pt x="514" y="339" on="0"/>
        <pt x="467" y="168" on="0"/>
        <pt x="398" y="72" on="0"/>
        <pt x="308" y="10" on="0"/>
        <pt x="235" y="-11" on="0"/>
        <pt x="201" y="-11" on="1"/>
        <pt x="171" y="-11" on="0"/>
        <pt x="113" y="6" on="0"/>
        <pt x="55" y="43" on="0"/>
        <pt x="19" y="117" on="0"/>
        <pt x="19" y="167" on="1"/>
        <pt x="19" y="225" on="0"/>
        <pt x="57" y="318" on="0"/>
        <pt x="112" y="373" on="0"/>
        <pt x="182" y="409" on="0"/>
        <pt x="239" y="423" on="0"/>
        <pt x="263" y="423" on="1"/>
        <pt x="282" y="423" on="0"/>
        <pt x="316" y="417" on="0"/>
        <pt x="339" y="406" on="0"/>
        <pt x="354" y="397" on="0"/>
        <pt x="368" y="386" on="0"/>
      </contour>
      <contour>
        <pt x="355" y="293" on="1"/>
        <pt x="330" y="325" on="0"/>
        <pt x="274" y="325" on="1"/>
        <pt x="242" y="325" on="0"/>
        <pt x="191" y="293" on="0"/>
        <pt x="163" y="245" on="0"/>
        <pt x="150" y="208" on="0"/>
        <pt x="148" y="196" on="1"/>
        <pt x="146" y="188" on="0"/>
        <pt x="146" y="171" on="1"/>
        <pt x="146" y="88" on="0"/>
        <pt x="217" y="88" on="1"/>
        <pt x="250" y="88" on="0"/>
        <pt x="305" y="142" on="0"/>
        <pt x="336" y="219" on="0"/>
        <pt x="353" y="276" on="0"/>
      </contour>
    </TTGlyph>
    <TTGlyph name="percent" xMin="30" yMin="-12" xMax="764" yMax="713">
      <contour>
        <pt x="764" y="245" on="1"/>
        <pt x="764" y="145" on="0"/>
        <pt x="661" y="-4" on="0"/>
        <pt x="566" y="-4" on="1"/>
        <pt x="494" y="-4" on="0"/>
        <pt x="422" y="84" on="0"/>
        <pt x="422" y="157" on="1"/>
        <pt x="422" y="257" on="0"/>
        <pt x="525" y="405" on="0"/>
        <pt x="620" y="405" on="1"/>
        <pt x="692" y="405" on="0"/>
        <pt x="764" y="318" on="0"/>
      </contour>
      <contour>
        <pt x="638" y="699" on="1"/>
        <pt x="214" y="-12" on="1"/>
        <pt x="147" y="-12" on="1"/>
        <pt x="540" y="645" on="1"/>
        <pt x="353" y="645" on="1"/>
        <pt x="373" y="608" on="0"/>
        <pt x="373" y="554" on="1"/>
        <pt x="373" y="454" on="0"/>
        <pt x="270" y="304" on="0"/>
        <pt x="174" y="304" on="1"/>
        <pt x="103" y="304" on="0"/>
        <pt x="30" y="392" on="0"/>
        <pt x="30" y="465" on="1"/>
        <pt x="30" y="565" on="0"/>
        <pt x="133" y="713" on="0"/>
        <pt x="229" y="713" on="1"/>
        <pt x="269" y="713" on="0"/>
        <pt x="298" y="699" on="1"/>
      </contour>
      <contour>
        <pt x="661" y="247" on="1"/>
        <pt x="661" y="326" on="0"/>
        <pt x="610" y="326" on="1"/>
        <pt x="585" y="326" on="0"/>
        <pt x="550" y="288" on="0"/>
        <pt x="532" y="230" on="0"/>
        <pt x="525" y="178" on="0"/>
        <pt x="525" y="155" on="1"/>
        <pt x="525" y="75" on="0"/>
        <pt x="576" y="75" on="1"/>
        <pt x="601" y="75" on="0"/>
        <pt x="636" y="113" on="0"/>
        <pt x="654" y="171" on="0"/>
        <pt x="661" y="224" on="0"/>
      </contour>
      <contour>
        <pt x="270" y="555" on="1"/>
        <pt x="270" y="634" on="0"/>
        <pt x="218" y="634" on="1"/>
        <pt x="193" y="634" on="0"/>
        <pt x="158" y="597" on="0"/>
        <pt x="141" y="538" on="0"/>
        <pt x="134" y="486" on="0"/>
        <pt x="134" y="463" on="1"/>
        <pt x="134" y="383" on="0"/>
        <pt x="185" y="383" on="1"/>
        <pt x="210" y="383" on="0"/>
        <pt x="245" y="421" on="0"/>
        <pt x="263" y="479" on="0"/>
        <pt x="270" y="532" on="0"/>
      </contour>
    </TTGlyph>
    <TTGlyph name="period" xMin="30" yMin="-12" xMax="185" yMax="143">
      <contour>
        <pt x="107" y="-12" on="1"/>
        <pt x="76" y="-12" on="0"/>
        <pt x="30" y="34" on="0"/>
        <pt x="30" y="65" on="1"/>
        <pt x="30" y="97" on="0"/>
        <pt x="75" y="143" on="0"/>
        <pt x="107" y="143" on="1"/>
        <pt x="139" y="143" on="0"/>
        <pt x="185" y="97" on="0"/>
        <pt x="185" y="33" on="0"/>
        <pt x="139" y="-12" on="0"/>
      </contour>
    </TTGlyph>
    <TTGlyph name="periodcentered" xMin="67" yMin="181" xMax="222" yMax="336">
      <contour>
        <pt x="144" y="181" on="1"/>
        <pt x="113" y="181" on="0"/>
        <pt x="67" y="227" on="0"/>
        <pt x="67" y="258" on="1"/>
        <pt x="67" y="290" on="0"/>
        <pt x="112" y="336" on="0"/>
        <pt x="144" y="336" on="1"/>
        <pt x="176" y="336" on="0"/>
        <pt x="222" y="290" on="0"/>
        <pt x="222" y="226" on="0"/>
        <pt x="176" y="181" on="0"/>
      </contour>
    </TTGlyph>
    <TTGlyph name="perthousand" xMin="25" yMin="-12" xMax="1053" yMax="713">
      <contour>
        <pt x="1053" y="245" on="1"/>
        <pt x="1053" y="145" on="0"/>
        <pt x="950" y="-4" on="0"/>
        <pt x="855" y="-4" on="1"/>
        <pt x="783" y="-4" on="0"/>
        <pt x="711" y="84" on="0"/>
        <pt x="711" y="157" on="1"/>
        <pt x="711" y="257" on="0"/>
        <pt x="814" y="405" on="0"/>
        <pt x="909" y="405" on="1"/>
        <pt x="981" y="405" on="0"/>
        <pt x="1053" y="318" on="0"/>
      </contour>
      <contour>
        <pt x="697" y="245" on="1"/>
        <pt x="697" y="145" on="0"/>
        <pt x="594" y="-4" on="0"/>
        <pt x="499" y="-4" on="1"/>
        <pt x="427" y="-4" on="0"/>
        <pt x="355" y="84" on="0"/>
        <pt x="355" y="157" on="1"/>
        <pt x="355" y="257" on="0"/>
        <pt x="458" y="405" on="0"/>
        <pt x="553" y="405" on="1"/>
        <pt x="625" y="405" on="0"/>
        <pt x="697" y="318" on="0"/>
      </contour>
      <contour>
        <pt x="601" y="699" on="1"/>
        <pt x="177" y="-12" on="1"/>
        <pt x="110" y="-12" on="1"/>
        <pt x="503" y="645" on="1"/>
        <pt x="348" y="645" on="1"/>
        <pt x="368" y="608" on="0"/>
        <pt x="368" y="554" on="1"/>
        <pt x="368" y="454" on="0"/>
        <pt x="265" y="304" on="0"/>
        <pt x="169" y="304" on="1"/>
        <pt x="98" y="304" on="0"/>
        <pt x="25" y="392" on="0"/>
        <pt x="25" y="465" on="1"/>
        <pt x="25" y="565" on="0"/>
        <pt x="128" y="713" on="0"/>
        <pt x="224" y="713" on="1"/>
        <pt x="264" y="713" on="0"/>
        <pt x="293" y="699" on="1"/>
      </contour>
      <contour>
        <pt x="950" y="247" on="1"/>
        <pt x="950" y="326" on="0"/>
        <pt x="899" y="326" on="1"/>
        <pt x="874" y="326" on="0"/>
        <pt x="839" y="288" on="0"/>
        <pt x="821" y="230" on="0"/>
        <pt x="814" y="178" on="0"/>
        <pt x="814" y="155" on="1"/>
        <pt x="814" y="75" on="0"/>
        <pt x="865" y="75" on="1"/>
        <pt x="890" y="75" on="0"/>
        <pt x="925" y="113" on="0"/>
        <pt x="943" y="171" on="0"/>
        <pt x="950" y="224" on="0"/>
      </contour>
      <contour>
        <pt x="594" y="247" on="1"/>
        <pt x="594" y="326" on="0"/>
        <pt x="543" y="326" on="1"/>
        <pt x="518" y="326" on="0"/>
        <pt x="483" y="288" on="0"/>
        <pt x="465" y="230" on="0"/>
        <pt x="458" y="178" on="0"/>
        <pt x="458" y="155" on="1"/>
        <pt x="458" y="75" on="0"/>
        <pt x="509" y="75" on="1"/>
        <pt x="534" y="75" on="0"/>
        <pt x="569" y="113" on="0"/>
        <pt x="587" y="171" on="0"/>
        <pt x="594" y="224" on="0"/>
      </contour>
      <contour>
        <pt x="265" y="555" on="1"/>
        <pt x="265" y="634" on="0"/>
        <pt x="213" y="634" on="1"/>
        <pt x="188" y="634" on="0"/>
        <pt x="153" y="597" on="0"/>
        <pt x="136" y="538" on="0"/>
        <pt x="129" y="486" on="0"/>
        <pt x="129" y="463" on="1"/>
        <pt x="129" y="383" on="0"/>
        <pt x="180" y="383" on="1"/>
        <pt x="205" y="383" on="0"/>
        <pt x="240" y="421" on="0"/>
        <pt x="258" y="479" on="0"/>
        <pt x="265" y="532" on="0"/>
      </contour>
    </TTGlyph>
    <TTGlyph name="pi" xMin="44" yMin="-30" xMax="666" yMax="520">
      <contour>
        <pt x="551" y="98" on="1"/>
        <pt x="572" y="31" on="1"/>
        <pt x="528" y="-10" on="0"/>
        <pt x="464" y="-10" on="1"/>
        <pt x="408" y="-10" on="0"/>
        <pt x="356" y="68" on="0"/>
        <pt x="356" y="128" on="1"/>
        <pt x="356" y="191" on="0"/>
        <pt x="404" y="363" on="0"/>
        <pt x="441" y="407" on="1"/>
        <pt x="316" y="407" on="1"/>
        <pt x="312" y="380" on="1"/>
        <pt x="306" y="335" on="0"/>
        <pt x="298" y="284" on="0"/>
        <pt x="281" y="198" on="0"/>
        <pt x="262" y="144" on="0"/>
        <pt x="228" y="74" on="0"/>
        <pt x="187" y="28" on="0"/>
        <pt x="127" y="-16" on="0"/>
        <pt x="91" y="-30" on="1"/>
        <pt x="64" y="25" on="1"/>
        <pt x="105" y="51" on="0"/>
        <pt x="162" y="134" on="0"/>
        <pt x="169" y="181" on="1"/>
        <pt x="194" y="371" on="1"/>
        <pt x="195" y="377" on="0"/>
        <pt x="205" y="405" on="0"/>
        <pt x="206" y="407" on="1"/>
        <pt x="195" y="407" on="1"/>
        <pt x="166" y="407" on="0"/>
        <pt x="115" y="359" on="0"/>
        <pt x="105" y="326" on="1"/>
        <pt x="44" y="344" on="1"/>
        <pt x="60" y="417" on="0"/>
        <pt x="158" y="497" on="0"/>
        <pt x="229" y="497" on="1"/>
        <pt x="541" y="497" on="1"/>
        <pt x="573" y="497" on="0"/>
        <pt x="610" y="505" on="0"/>
        <pt x="642" y="520" on="1"/>
        <pt x="666" y="462" on="1"/>
        <pt x="630" y="417" on="0"/>
        <pt x="537" y="407" on="1"/>
        <pt x="467" y="235" on="0"/>
        <pt x="467" y="150" on="1"/>
        <pt x="467" y="90" on="0"/>
        <pt x="513" y="90" on="1"/>
        <pt x="530" y="90" on="0"/>
      </contour>
    </TTGlyph>
    <TTGlyph name="plus" xMin="67" yMin="0" xMax="565" yMax="497">
      <contour>
        <pt x="565" y="205" on="1"/>
        <pt x="360" y="205" on="1"/>
        <pt x="360" y="0" on="1"/>
        <pt x="272" y="0" on="1"/>
        <pt x="272" y="204" on="1"/>
        <pt x="67" y="204" on="1"/>
        <pt x="67" y="292" on="1"/>
        <pt x="272" y="292" on="1"/>
        <pt x="272" y="497" on="1"/>
        <pt x="360" y="497" on="1"/>
        <pt x="360" y="293" on="1"/>
        <pt x="565" y="293" on="1"/>
      </contour>
    </TTGlyph>
    <TTGlyph name="plusminus" xMin="67" yMin="1" xMax="565" yMax="497">
      <contour>
        <pt x="565" y="267" on="1"/>
        <pt x="360" y="267" on="1"/>
        <pt x="360" y="120" on="1"/>
        <pt x="272" y="120" on="1"/>
        <pt x="272" y="266" on="1"/>
        <pt x="67" y="266" on="1"/>
        <pt x="67" y="351" on="1"/>
        <pt x="272" y="351" on="1"/>
        <pt x="272" y="497" on="1"/>
        <pt x="360" y="497" on="1"/>
        <pt x="360" y="352" on="1"/>
        <pt x="565" y="352" on="1"/>
      </contour>
      <contour>
        <pt x="565" y="1" on="1"/>
        <pt x="69" y="1" on="1"/>
        <pt x="69" y="89" on="1"/>
        <pt x="565" y="89" on="1"/>
      </contour>
    </TTGlyph>
    <TTGlyph name="product" xMin="38" yMin="-229" xMax="795" yMax="732">
      <contour>
        <pt x="693" y="-229" on="1"/>
        <pt x="558" y="-229" on="1"/>
        <pt x="558" y="633" on="1"/>
        <pt x="274" y="633" on="1"/>
        <pt x="274" y="-229" on="1"/>
        <pt x="138" y="-229" on="1"/>
        <pt x="138" y="633" on="1"/>
        <pt x="38" y="633" on="1"/>
        <pt x="38" y="732" on="1"/>
        <pt x="795" y="732" on="1"/>
        <pt x="795" y="633" on="1"/>
        <pt x="693" y="633" on="1"/>
      </contour>
    </TTGlyph>
    <TTGlyph name="q" xMin="21" yMin="-224" xMax="501" yMax="537">
      <contour>
        <pt x="501" y="537" on="1"/>
        <pt x="408" y="-169" on="1"/>
        <pt x="413" y="-224" on="1"/>
        <pt x="286" y="-224" on="1"/>
        <pt x="321" y="39" on="1"/>
        <pt x="269" y="-12" on="0"/>
        <pt x="192" y="-12" on="1"/>
        <pt x="107" y="-12" on="0"/>
        <pt x="21" y="109" on="0"/>
        <pt x="21" y="197" on="1"/>
        <pt x="21" y="275" on="0"/>
        <pt x="81" y="415" on="0"/>
        <pt x="207" y="509" on="0"/>
        <pt x="290" y="509" on="1"/>
        <pt x="362" y="509" on="0"/>
        <pt x="411" y="460" on="1"/>
        <pt x="454" y="537" on="1"/>
      </contour>
      <contour>
        <pt x="368" y="387" on="1"/>
        <pt x="328" y="427" on="0"/>
        <pt x="282" y="427" on="1"/>
        <pt x="244" y="427" on="0"/>
        <pt x="186" y="376" on="0"/>
        <pt x="156" y="300" on="0"/>
        <pt x="142" y="227" on="0"/>
        <pt x="142" y="197" on="1"/>
        <pt x="142" y="71" on="0"/>
        <pt x="215" y="71" on="1"/>
        <pt x="251" y="71" on="0"/>
        <pt x="305" y="127" on="0"/>
        <pt x="340" y="230" on="0"/>
        <pt x="359" y="324" on="0"/>
      </contour>
    </TTGlyph>
    <TTGlyph name="question" xMin="19" yMin="-15" xMax="405" yMax="732">
      <contour>
        <pt x="405" y="601" on="1"/>
        <pt x="405" y="552" on="0"/>
        <pt x="353" y="476" on="0"/>
        <pt x="280" y="432" on="0"/>
        <pt x="206" y="398" on="0"/>
        <pt x="154" y="361" on="0"/>
        <pt x="154" y="341" on="1"/>
        <pt x="154" y="312" on="0"/>
        <pt x="228" y="290" on="0"/>
        <pt x="266" y="290" on="1"/>
        <pt x="281" y="290" on="1"/>
        <pt x="255" y="197" on="1"/>
        <pt x="203" y="200" on="0"/>
        <pt x="113" y="227" on="0"/>
        <pt x="40" y="298" on="0"/>
        <pt x="40" y="350" on="1"/>
        <pt x="40" y="394" on="0"/>
        <pt x="90" y="459" on="0"/>
        <pt x="161" y="497" on="0"/>
        <pt x="232" y="531" on="0"/>
        <pt x="282" y="578" on="0"/>
        <pt x="282" y="608" on="1"/>
        <pt x="282" y="627" on="0"/>
        <pt x="247" y="651" on="0"/>
        <pt x="228" y="651" on="1"/>
        <pt x="187" y="651" on="0"/>
        <pt x="137" y="628" on="1"/>
        <pt x="112" y="712" on="1"/>
        <pt x="182" y="732" on="0"/>
        <pt x="238" y="732" on="1"/>
        <pt x="304" y="732" on="0"/>
        <pt x="405" y="664" on="0"/>
      </contour>
      <contour>
        <pt x="96" y="-15" on="1"/>
        <pt x="65" y="-15" on="0"/>
        <pt x="19" y="31" on="0"/>
        <pt x="19" y="62" on="1"/>
        <pt x="19" y="94" on="0"/>
        <pt x="64" y="140" on="0"/>
        <pt x="96" y="140" on="1"/>
        <pt x="128" y="140" on="0"/>
        <pt x="174" y="94" on="0"/>
        <pt x="174" y="30" on="0"/>
        <pt x="128" y="-15" on="0"/>
      </contour>
    </TTGlyph>
    <TTGlyph name="questiondown" xMin="13" yMin="-132" xMax="393" yMax="616">
      <contour>
        <pt x="378" y="250" on="1"/>
        <pt x="378" y="206" on="0"/>
        <pt x="328" y="141" on="0"/>
        <pt x="257" y="103" on="0"/>
        <pt x="186" y="69" on="0"/>
        <pt x="136" y="22" on="0"/>
        <pt x="136" y="-8" on="1"/>
        <pt x="136" y="-27" on="0"/>
        <pt x="171" y="-51" on="0"/>
        <pt x="190" y="-51" on="1"/>
        <pt x="237" y="-51" on="0"/>
        <pt x="281" y="-28" on="1"/>
        <pt x="306" y="-112" on="1"/>
        <pt x="236" y="-132" on="0"/>
        <pt x="180" y="-132" on="1"/>
        <pt x="114" y="-132" on="0"/>
        <pt x="13" y="-64" on="0"/>
        <pt x="13" y="-1" on="1"/>
        <pt x="13" y="48" on="0"/>
        <pt x="65" y="124" on="0"/>
        <pt x="138" y="168" on="0"/>
        <pt x="212" y="202" on="0"/>
        <pt x="264" y="239" on="0"/>
        <pt x="264" y="259" on="1"/>
        <pt x="264" y="278" on="0"/>
        <pt x="222" y="303" on="0"/>
        <pt x="178" y="310" on="0"/>
        <pt x="157" y="310" on="1"/>
        <pt x="137" y="310" on="1"/>
        <pt x="163" y="403" on="1"/>
        <pt x="215" y="400" on="0"/>
        <pt x="305" y="373" on="0"/>
        <pt x="378" y="302" on="0"/>
      </contour>
      <contour>
        <pt x="315" y="461" on="1"/>
        <pt x="284" y="461" on="0"/>
        <pt x="238" y="507" on="0"/>
        <pt x="238" y="538" on="1"/>
        <pt x="238" y="570" on="0"/>
        <pt x="283" y="616" on="0"/>
        <pt x="315" y="616" on="1"/>
        <pt x="347" y="616" on="0"/>
        <pt x="393" y="570" on="0"/>
        <pt x="393" y="506" on="0"/>
        <pt x="347" y="461" on="0"/>
      </contour>
    </TTGlyph>
    <TTGlyph name="quotedbl" xMin="52" yMin="449" xMax="317" yMax="732">
      <contour>
        <pt x="317" y="732" on="1"/>
        <pt x="293" y="559" on="1"/>
        <pt x="250" y="473" on="0"/>
        <pt x="241" y="449" on="1"/>
        <pt x="219" y="449" on="1"/>
        <pt x="219" y="452" on="0"/>
        <pt x="208" y="507" on="0"/>
        <pt x="199" y="558" on="0"/>
        <pt x="199" y="559" on="1"/>
        <pt x="223" y="732" on="1"/>
      </contour>
      <contour>
        <pt x="170" y="732" on="1"/>
        <pt x="146" y="559" on="1"/>
        <pt x="103" y="473" on="0"/>
        <pt x="94" y="449" on="1"/>
        <pt x="73" y="449" on="1"/>
        <pt x="73" y="452" on="0"/>
        <pt x="62" y="507" on="0"/>
        <pt x="57" y="533" on="1"/>
        <pt x="52" y="559" on="1"/>
        <pt x="76" y="732" on="1"/>
      </contour>
    </TTGlyph>
    <TTGlyph name="quotedblbase" xMin="5" yMin="-132" xMax="371" yMax="139">
      <contour>
        <pt x="181" y="62" on="1"/>
        <pt x="181" y="7" on="0"/>
        <pt x="97" y="-95" on="0"/>
        <pt x="40" y="-132" on="1"/>
        <pt x="5" y="-93" on="1"/>
        <pt x="24" y="-78" on="0"/>
        <pt x="61" y="-31" on="0"/>
        <pt x="61" y="-15" on="1"/>
        <pt x="61" y="-9" on="0"/>
        <pt x="25" y="34" on="0"/>
        <pt x="25" y="60" on="1"/>
        <pt x="25" y="93" on="0"/>
        <pt x="73" y="139" on="0"/>
        <pt x="104" y="139" on="1"/>
        <pt x="138" y="139" on="0"/>
        <pt x="181" y="95" on="0"/>
      </contour>
      <contour>
        <pt x="371" y="62" on="1"/>
        <pt x="371" y="7" on="0"/>
        <pt x="287" y="-95" on="0"/>
        <pt x="230" y="-132" on="1"/>
        <pt x="195" y="-93" on="1"/>
        <pt x="214" y="-78" on="0"/>
        <pt x="251" y="-31" on="0"/>
        <pt x="251" y="-15" on="1"/>
        <pt x="251" y="-9" on="0"/>
        <pt x="215" y="34" on="0"/>
        <pt x="215" y="60" on="1"/>
        <pt x="215" y="93" on="0"/>
        <pt x="263" y="139" on="0"/>
        <pt x="294" y="139" on="1"/>
        <pt x="328" y="139" on="0"/>
        <pt x="371" y="95" on="0"/>
      </contour>
    </TTGlyph>
    <TTGlyph name="quotedblleft" xMin="30" yMin="467" xMax="396" yMax="738">
      <component glyphName="quoteleft" x="-3" y="0" flags="0x4"/>
      <component glyphName="quoteleft" x="187" y="0" flags="0x4"/>
    </TTGlyph>
    <TTGlyph name="quotedblright" xMin="33" yMin="467" xMax="399" yMax="738">
      <contour>
        <pt x="209" y="661" on="1"/>
        <pt x="209" y="606" on="0"/>
        <pt x="125" y="504" on="0"/>
        <pt x="68" y="467" on="1"/>
        <pt x="33" y="506" on="1"/>
        <pt x="52" y="521" on="0"/>
        <pt x="89" y="568" on="0"/>
        <pt x="89" y="584" on="1"/>
        <pt x="89" y="590" on="0"/>
        <pt x="53" y="633" on="0"/>
        <pt x="53" y="659" on="1"/>
        <pt x="53" y="692" on="0"/>
        <pt x="101" y="738" on="0"/>
        <pt x="132" y="738" on="1"/>
        <pt x="166" y="738" on="0"/>
        <pt x="209" y="694" on="0"/>
      </contour>
      <contour>
        <pt x="399" y="661" on="1"/>
        <pt x="399" y="606" on="0"/>
        <pt x="315" y="504" on="0"/>
        <pt x="258" y="467" on="1"/>
        <pt x="223" y="506" on="1"/>
        <pt x="242" y="521" on="0"/>
        <pt x="279" y="568" on="0"/>
        <pt x="279" y="584" on="1"/>
        <pt x="279" y="590" on="0"/>
        <pt x="243" y="633" on="0"/>
        <pt x="243" y="659" on="1"/>
        <pt x="243" y="692" on="0"/>
        <pt x="291" y="738" on="0"/>
        <pt x="322" y="738" on="1"/>
        <pt x="356" y="738" on="0"/>
        <pt x="399" y="694" on="0"/>
      </contour>
    </TTGlyph>
    <TTGlyph name="quoteleft" xMin="33" yMin="467" xMax="209" yMax="738">
      <contour>
        <pt x="209" y="698" on="1"/>
        <pt x="191" y="684" on="0"/>
        <pt x="153" y="637" on="0"/>
        <pt x="153" y="621" on="1"/>
        <pt x="153" y="615" on="0"/>
        <pt x="189" y="572" on="0"/>
        <pt x="189" y="546" on="1"/>
        <pt x="189" y="512" on="0"/>
        <pt x="142" y="467" on="0"/>
        <pt x="110" y="467" on="1"/>
        <pt x="77" y="467" on="0"/>
        <pt x="33" y="511" on="0"/>
        <pt x="33" y="544" on="1"/>
        <pt x="33" y="598" on="0"/>
        <pt x="117" y="701" on="0"/>
        <pt x="174" y="738" on="1"/>
      </contour>
    </TTGlyph>
    <TTGlyph name="quoteright" xMin="33" yMin="467" xMax="209" yMax="738">
      <contour>
        <pt x="209" y="661" on="1"/>
        <pt x="209" y="606" on="0"/>
        <pt x="125" y="504" on="0"/>
        <pt x="68" y="467" on="1"/>
        <pt x="33" y="506" on="1"/>
        <pt x="52" y="521" on="0"/>
        <pt x="89" y="568" on="0"/>
        <pt x="89" y="584" on="1"/>
        <pt x="89" y="590" on="0"/>
        <pt x="53" y="633" on="0"/>
        <pt x="53" y="659" on="1"/>
        <pt x="53" y="692" on="0"/>
        <pt x="101" y="738" on="0"/>
        <pt x="132" y="738" on="1"/>
        <pt x="166" y="738" on="0"/>
        <pt x="209" y="694" on="0"/>
      </contour>
    </TTGlyph>
    <TTGlyph name="quotesinglbase" xMin="5" yMin="-134" xMax="181" yMax="139">
      <component glyphName="comma" x="0" y="0" flags="0x4"/>
    </TTGlyph>
    <TTGlyph name="quotesingle" xMin="52" yMin="449" xMax="170" yMax="732">
      <contour>
        <pt x="170" y="732" on="1"/>
        <pt x="146" y="559" on="1"/>
        <pt x="103" y="473" on="0"/>
        <pt x="94" y="449" on="1"/>
        <pt x="73" y="449" on="1"/>
        <pt x="73" y="452" on="0"/>
        <pt x="62" y="507" on="0"/>
        <pt x="57" y="533" on="1"/>
        <pt x="52" y="559" on="1"/>
        <pt x="76" y="732" on="1"/>
      </contour>
    </TTGlyph>
    <TTGlyph name="r" xMin="27" yMin="0" xMax="365" yMax="507">
      <contour>
        <pt x="365" y="507" on="1"/>
        <pt x="330" y="388" on="1"/>
        <pt x="326" y="388" on="1"/>
        <pt x="251" y="388" on="0"/>
        <pt x="181" y="296" on="1"/>
        <pt x="141" y="0" on="1"/>
        <pt x="27" y="0" on="1"/>
        <pt x="75" y="363" on="1"/>
        <pt x="79" y="389" on="0"/>
        <pt x="79" y="413" on="1"/>
        <pt x="79" y="471" on="0"/>
        <pt x="63" y="497" on="1"/>
        <pt x="185" y="507" on="1"/>
        <pt x="195" y="473" on="0"/>
        <pt x="195" y="431" on="1"/>
        <pt x="195" y="411" on="0"/>
        <pt x="194" y="402" on="1"/>
        <pt x="225" y="445" on="0"/>
        <pt x="318" y="507" on="0"/>
      </contour>
    </TTGlyph>
    <TTGlyph name="radical" xMin="-59" yMin="-230" xMax="648" yMax="968">
      <contour>
        <pt x="306" y="-230" on="1"/>
        <pt x="196" y="-230" on="1"/>
        <pt x="56" y="206" on="1"/>
        <pt x="-34" y="176" on="1"/>
        <pt x="-59" y="257" on="1"/>
        <pt x="131" y="324" on="1"/>
        <pt x="258" y="-78" on="1"/>
        <pt x="555" y="968" on="1"/>
        <pt x="648" y="968" on="1"/>
      </contour>
    </TTGlyph>
    <TTGlyph name="registered" xMin="21" yMin="399" xMax="442" yMax="821">
      <contour>
        <pt x="380" y="759" on="1"/>
        <pt x="442" y="697" on="0"/>
        <pt x="442" y="523" on="0"/>
        <pt x="318" y="399" on="0"/>
        <pt x="231" y="399" on="1"/>
        <pt x="144" y="399" on="0"/>
        <pt x="21" y="523" on="0"/>
        <pt x="21" y="697" on="0"/>
        <pt x="144" y="821" on="0"/>
        <pt x="231" y="821" on="1"/>
        <pt x="318" y="821" on="0"/>
      </contour>
      <contour>
        <pt x="407" y="610" on="1"/>
        <pt x="407" y="682" on="0"/>
        <pt x="304" y="785" on="0"/>
        <pt x="231" y="785" on="1"/>
        <pt x="159" y="785" on="0"/>
        <pt x="56" y="683" on="0"/>
        <pt x="56" y="537" on="0"/>
        <pt x="159" y="435" on="0"/>
        <pt x="231" y="435" on="1"/>
        <pt x="304" y="435" on="0"/>
        <pt x="407" y="537" on="0"/>
      </contour>
      <contour>
        <pt x="337" y="497" on="1"/>
        <pt x="265" y="497" on="1"/>
        <pt x="214" y="593" on="1"/>
        <pt x="203" y="593" on="1"/>
        <pt x="190" y="497" on="1"/>
        <pt x="130" y="497" on="1"/>
        <pt x="163" y="732" on="1"/>
        <pt x="256" y="732" on="1"/>
        <pt x="330" y="732" on="0"/>
        <pt x="330" y="677" on="1"/>
        <pt x="330" y="625" on="0"/>
        <pt x="278" y="604" on="1"/>
      </contour>
      <contour>
        <pt x="269" y="668" on="1"/>
        <pt x="269" y="685" on="0"/>
        <pt x="242" y="685" on="1"/>
        <pt x="216" y="685" on="1"/>
        <pt x="210" y="640" on="1"/>
        <pt x="229" y="640" on="1"/>
        <pt x="269" y="640" on="0"/>
      </contour>
    </TTGlyph>
    <TTGlyph name="ring" xMin="34" yMin="531" xMax="249" yMax="745">
      <contour>
        <pt x="217" y="713" on="1"/>
        <pt x="249" y="682" on="0"/>
        <pt x="249" y="594" on="0"/>
        <pt x="185" y="531" on="0"/>
        <pt x="141" y="531" on="1"/>
        <pt x="97" y="531" on="0"/>
        <pt x="34" y="594" on="0"/>
        <pt x="34" y="682" on="0"/>
        <pt x="97" y="745" on="0"/>
        <pt x="141" y="745" on="1"/>
        <pt x="185" y="745" on="0"/>
      </contour>
      <contour>
        <pt x="141" y="678" on="1"/>
        <pt x="124" y="678" on="0"/>
        <pt x="100" y="654" on="0"/>
        <pt x="100" y="622" on="0"/>
        <pt x="124" y="597" on="0"/>
        <pt x="141" y="597" on="1"/>
        <pt x="157" y="597" on="0"/>
        <pt x="181" y="621" on="0"/>
        <pt x="181" y="655" on="0"/>
        <pt x="157" y="678" on="0"/>
      </contour>
    </TTGlyph>
    <TTGlyph name="s" xMin="-15" yMin="-12" xMax="379" yMax="510">
      <contour>
        <pt x="379" y="479" on="1"/>
        <pt x="327" y="395" on="1"/>
        <pt x="295" y="426" on="0"/>
        <pt x="238" y="426" on="1"/>
        <pt x="208" y="426" on="0"/>
        <pt x="166" y="397" on="0"/>
        <pt x="166" y="369" on="1"/>
        <pt x="166" y="348" on="0"/>
        <pt x="203" y="317" on="0"/>
        <pt x="256" y="294" on="0"/>
        <pt x="309" y="265" on="0"/>
        <pt x="346" y="211" on="0"/>
        <pt x="346" y="172" on="1"/>
        <pt x="346" y="84" on="0"/>
        <pt x="225" y="-12" on="0"/>
        <pt x="137" y="-12" on="1"/>
        <pt x="53" y="-12" on="0"/>
        <pt x="-15" y="32" on="1"/>
        <pt x="37" y="114" on="1"/>
        <pt x="102" y="71" on="0"/>
        <pt x="139" y="71" on="1"/>
        <pt x="172" y="71" on="0"/>
        <pt x="219" y="113" on="0"/>
        <pt x="219" y="147" on="1"/>
        <pt x="219" y="174" on="0"/>
        <pt x="162" y="214" on="0"/>
        <pt x="95" y="238" on="0"/>
        <pt x="38" y="297" on="0"/>
        <pt x="38" y="342" on="1"/>
        <pt x="38" y="425" on="0"/>
        <pt x="157" y="510" on="0"/>
        <pt x="243" y="510" on="1"/>
        <pt x="321" y="510" on="0"/>
      </contour>
    </TTGlyph>
    <TTGlyph name="scaron" xMin="-15" yMin="-12" xMax="392" yMax="737">
      <component glyphName="caron" x="97" y="4" flags="0x4"/>
      <component glyphName="s" x="0" y="0" flags="0x4"/>
    </TTGlyph>
    <TTGlyph name="section" xMin="-34" yMin="-230" xMax="497" yMax="775">
      <contour>
        <pt x="497" y="754" on="1"/>
        <pt x="468" y="676" on="1"/>
        <pt x="432" y="694" on="0"/>
        <pt x="397" y="694" on="1"/>
        <pt x="330" y="694" on="0"/>
        <pt x="330" y="578" on="1"/>
        <pt x="330" y="539" on="0"/>
        <pt x="344" y="418" on="1"/>
        <pt x="371" y="150" on="0"/>
        <pt x="371" y="60" on="1"/>
        <pt x="371" y="-10" on="0"/>
        <pt x="298" y="-94" on="0"/>
        <pt x="230" y="-103" on="1"/>
        <pt x="219" y="-166" on="0"/>
        <pt x="127" y="-230" on="0"/>
        <pt x="61" y="-230" on="1"/>
        <pt x="8" y="-230" on="0"/>
        <pt x="-34" y="-209" on="1"/>
        <pt x="-2" y="-134" on="1"/>
        <pt x="42" y="-151" on="0"/>
        <pt x="64" y="-151" on="1"/>
        <pt x="126" y="-151" on="0"/>
        <pt x="126" y="-54" on="1"/>
        <pt x="126" y="-13" on="0"/>
        <pt x="120" y="88" on="0"/>
        <pt x="114" y="145" on="0"/>
        <pt x="100" y="280" on="0"/>
        <pt x="98" y="295" on="1"/>
        <pt x="87" y="407" on="0"/>
        <pt x="87" y="449" on="1"/>
        <pt x="87" y="635" on="0"/>
        <pt x="232" y="649" on="1"/>
        <pt x="259" y="775" on="0"/>
        <pt x="401" y="775" on="1"/>
        <pt x="440" y="775" on="0"/>
      </contour>
      <contour>
        <pt x="264" y="71" on="1"/>
        <pt x="264" y="159" on="0"/>
        <pt x="228" y="488" on="0"/>
        <pt x="225" y="559" on="1"/>
        <pt x="192" y="535" on="0"/>
        <pt x="192" y="453" on="1"/>
        <pt x="192" y="427" on="0"/>
        <pt x="205" y="287" on="1"/>
        <pt x="230" y="35" on="0"/>
        <pt x="232" y="-18" on="1"/>
        <pt x="264" y="3" on="0"/>
      </contour>
    </TTGlyph>
    <TTGlyph name="semicolon" xMin="5" yMin="-134" xMax="223" yMax="432">
      <contour>
        <pt x="145" y="277" on="1"/>
        <pt x="114" y="277" on="0"/>
        <pt x="68" y="323" on="0"/>
        <pt x="68" y="354" on="1"/>
        <pt x="68" y="386" on="0"/>
        <pt x="113" y="432" on="0"/>
        <pt x="145" y="432" on="1"/>
        <pt x="177" y="432" on="0"/>
        <pt x="223" y="386" on="0"/>
        <pt x="223" y="322" on="0"/>
        <pt x="177" y="277" on="0"/>
      </contour>
      <contour>
        <pt x="181" y="62" on="1"/>
        <pt x="181" y="7" on="0"/>
        <pt x="95" y="-97" on="0"/>
        <pt x="38" y="-134" on="1"/>
        <pt x="5" y="-93" on="1"/>
        <pt x="61" y="-46" on="0"/>
        <pt x="61" y="-16" on="1"/>
        <pt x="61" y="-10" on="0"/>
        <pt x="25" y="33" on="0"/>
        <pt x="25" y="59" on="1"/>
        <pt x="25" y="93" on="0"/>
        <pt x="72" y="139" on="0"/>
        <pt x="104" y="139" on="1"/>
        <pt x="138" y="139" on="0"/>
        <pt x="181" y="94" on="0"/>
      </contour>
    </TTGlyph>
    <TTGlyph name="seven" xMin="0" yMin="-189" xMax="417" yMax="497">
      <contour>
        <pt x="417" y="434" on="1"/>
        <pt x="146" y="-189" on="1"/>
        <pt x="17" y="-189" on="1"/>
        <pt x="274" y="386" on="1"/>
        <pt x="0" y="386" on="1"/>
        <pt x="30" y="497" on="1"/>
        <pt x="417" y="497" on="1"/>
      </contour>
    </TTGlyph>
    <TTGlyph name="six" xMin="17" yMin="-12" xMax="525" yMax="730">
      <contour>
        <pt x="482" y="246" on="1"/>
        <pt x="482" y="143" on="0"/>
        <pt x="337" y="-12" on="0"/>
        <pt x="225" y="-12" on="1"/>
        <pt x="129" y="-12" on="0"/>
        <pt x="17" y="105" on="0"/>
        <pt x="17" y="201" on="1"/>
        <pt x="17" y="280" on="0"/>
        <pt x="75" y="426" on="0"/>
        <pt x="177" y="544" on="0"/>
        <pt x="296" y="636" on="0"/>
        <pt x="366" y="672" on="1"/>
        <pt x="452" y="716" on="0"/>
        <pt x="507" y="730" on="1"/>
        <pt x="525" y="665" on="1"/>
        <pt x="429" y="632" on="0"/>
        <pt x="243" y="476" on="0"/>
        <pt x="190" y="384" on="1"/>
        <pt x="249" y="421" on="0"/>
        <pt x="305" y="421" on="1"/>
        <pt x="385" y="421" on="0"/>
        <pt x="482" y="325" on="0"/>
      </contour>
      <contour>
        <pt x="234" y="71" on="1"/>
        <pt x="289" y="71" on="0"/>
        <pt x="353" y="172" on="0"/>
        <pt x="353" y="233" on="1"/>
        <pt x="353" y="277" on="0"/>
        <pt x="311" y="335" on="0"/>
        <pt x="269" y="335" on="1"/>
        <pt x="210" y="335" on="0"/>
        <pt x="157" y="282" on="1"/>
        <pt x="145" y="234" on="0"/>
        <pt x="145" y="198" on="1"/>
        <pt x="145" y="145" on="0"/>
        <pt x="188" y="71" on="0"/>
      </contour>
    </TTGlyph>
    <TTGlyph name="slash" xMin="-18" yMin="0" xMax="345" yMax="732">
      <contour>
        <pt x="345" y="732" on="1"/>
        <pt x="75" y="0" on="1"/>
        <pt x="-18" y="0" on="1"/>
        <pt x="251" y="732" on="1"/>
      </contour>
    </TTGlyph>
    <TTGlyph name="sterling" xMin="-4" yMin="0" xMax="565" yMax="744">
      <contour>
        <pt x="565" y="629" on="1"/>
        <pt x="464" y="575" on="1"/>
        <pt x="439" y="648" on="0"/>
        <pt x="380" y="648" on="1"/>
        <pt x="341" y="648" on="0"/>
        <pt x="293" y="594" on="0"/>
        <pt x="287" y="552" on="1"/>
        <pt x="272" y="441" on="1"/>
        <pt x="395" y="441" on="1"/>
        <pt x="382" y="342" on="1"/>
        <pt x="258" y="342" on="1"/>
        <pt x="226" y="100" on="1"/>
        <pt x="505" y="100" on="1"/>
        <pt x="491" y="0" on="1"/>
        <pt x="-4" y="0" on="1"/>
        <pt x="10" y="100" on="1"/>
        <pt x="98" y="100" on="1"/>
        <pt x="130" y="342" on="1"/>
        <pt x="57" y="342" on="1"/>
        <pt x="70" y="441" on="1"/>
        <pt x="144" y="441" on="1"/>
        <pt x="157" y="538" on="1"/>
        <pt x="169" y="635" on="0"/>
        <pt x="300" y="744" on="0"/>
        <pt x="394" y="744" on="1"/>
        <pt x="511" y="744" on="0"/>
      </contour>
    </TTGlyph>
    <TTGlyph name="summation" xMin="56" yMin="-229" xMax="670" yMax="732">
      <contour>
        <pt x="670" y="-229" on="1"/>
        <pt x="56" y="-229" on="1"/>
        <pt x="56" y="-99" on="1"/>
        <pt x="328" y="277" on="1"/>
        <pt x="56" y="633" on="1"/>
        <pt x="56" y="732" on="1"/>
        <pt x="660" y="732" on="1"/>
        <pt x="660" y="633" on="1"/>
        <pt x="211" y="633" on="1"/>
        <pt x="256" y="585" on="0"/>
        <pt x="260" y="580" on="1"/>
        <pt x="468" y="310" on="1"/>
        <pt x="216" y="-41" on="1"/>
        <pt x="208" y="-52" on="0"/>
        <pt x="173" y="-88" on="0"/>
        <pt x="169" y="-92" on="1"/>
        <pt x="670" y="-92" on="1"/>
      </contour>
    </TTGlyph>
    <TTGlyph name="t" xMin="25" yMin="-10" xMax="335" yMax="633">
      <contour>
        <pt x="335" y="497" on="1"/>
        <pt x="323" y="414" on="1"/>
        <pt x="208" y="414" on="1"/>
        <pt x="172" y="139" on="1"/>
        <pt x="170" y="121" on="0"/>
        <pt x="170" y="111" on="1"/>
        <pt x="170" y="72" on="0"/>
        <pt x="203" y="72" on="1"/>
        <pt x="238" y="72" on="0"/>
        <pt x="278" y="82" on="1"/>
        <pt x="289" y="13" on="1"/>
        <pt x="218" y="-10" on="0"/>
        <pt x="155" y="-10" on="1"/>
        <pt x="100" y="-10" on="0"/>
        <pt x="51" y="36" on="0"/>
        <pt x="51" y="82" on="1"/>
        <pt x="51" y="98" on="0"/>
        <pt x="54" y="116" on="1"/>
        <pt x="94" y="414" on="1"/>
        <pt x="25" y="414" on="1"/>
        <pt x="36" y="497" on="1"/>
        <pt x="105" y="497" on="1"/>
        <pt x="124" y="633" on="1"/>
        <pt x="251" y="633" on="1"/>
        <pt x="220" y="497" on="1"/>
      </contour>
    </TTGlyph>
    <TTGlyph name="thorn" xMin="14" yMin="-217" xMax="517" yMax="768">
      <contour>
        <pt x="257" y="768" on="1"/>
        <pt x="216" y="457" on="1"/>
        <pt x="280" y="508" on="0"/>
        <pt x="355" y="508" on="1"/>
        <pt x="434" y="508" on="0"/>
        <pt x="517" y="384" on="0"/>
        <pt x="517" y="297" on="1"/>
        <pt x="517" y="170" on="0"/>
        <pt x="378" y="-12" on="0"/>
        <pt x="257" y="-12" on="1"/>
        <pt x="198" y="-12" on="0"/>
        <pt x="159" y="18" on="1"/>
        <pt x="128" y="-217" on="1"/>
        <pt x="14" y="-217" on="1"/>
        <pt x="136" y="715" on="1"/>
        <pt x="136" y="753" on="0"/>
        <pt x="133" y="768" on="1"/>
      </contour>
      <contour>
        <pt x="205" y="368" on="1"/>
        <pt x="183" y="205" on="1"/>
        <pt x="181" y="194" on="0"/>
        <pt x="181" y="172" on="1"/>
        <pt x="181" y="127" on="0"/>
        <pt x="221" y="70" on="0"/>
        <pt x="264" y="70" on="1"/>
        <pt x="300" y="70" on="0"/>
        <pt x="353" y="121" on="0"/>
        <pt x="379" y="195" on="0"/>
        <pt x="391" y="258" on="0"/>
        <pt x="391" y="281" on="1"/>
        <pt x="391" y="336" on="0"/>
        <pt x="349" y="416" on="0"/>
        <pt x="304" y="416" on="1"/>
        <pt x="251" y="416" on="0"/>
      </contour>
    </TTGlyph>
    <TTGlyph name="three" xMin="-102" yMin="-198" xMax="384" yMax="511">
      <contour>
        <pt x="365" y="112" on="1"/>
        <pt x="365" y="50" on="0"/>
        <pt x="307" y="-55" on="0"/>
        <pt x="213" y="-125" on="0"/>
        <pt x="92" y="-175" on="0"/>
        <pt x="-31" y="-198" on="0"/>
        <pt x="-90" y="-198" on="1"/>
        <pt x="-98" y="-198" on="1"/>
        <pt x="-102" y="-128" on="1"/>
        <pt x="-51" y="-126" on="0"/>
        <pt x="50" y="-106" on="0"/>
        <pt x="161" y="-61" on="0"/>
        <pt x="230" y="29" on="0"/>
        <pt x="230" y="90" on="1"/>
        <pt x="230" y="148" on="0"/>
        <pt x="171" y="148" on="1"/>
        <pt x="140" y="148" on="0"/>
        <pt x="103" y="134" on="1"/>
        <pt x="78" y="206" on="1"/>
        <pt x="138" y="233" on="0"/>
        <pt x="249" y="340" on="0"/>
        <pt x="249" y="394" on="1"/>
        <pt x="249" y="428" on="0"/>
        <pt x="218" y="428" on="1"/>
        <pt x="173" y="428" on="0"/>
        <pt x="118" y="379" on="1"/>
        <pt x="72" y="435" on="1"/>
        <pt x="106" y="471" on="0"/>
        <pt x="213" y="511" on="0"/>
        <pt x="262" y="511" on="1"/>
        <pt x="313" y="511" on="0"/>
        <pt x="384" y="467" on="0"/>
        <pt x="384" y="421" on="1"/>
        <pt x="384" y="363" on="0"/>
        <pt x="272" y="256" on="0"/>
        <pt x="204" y="223" on="1"/>
        <pt x="224" y="225" on="0"/>
        <pt x="234" y="225" on="1"/>
        <pt x="294" y="225" on="0"/>
        <pt x="365" y="168" on="0"/>
      </contour>
    </TTGlyph>
    <TTGlyph name="threequarters" xMin="62" yMin="-27" xMax="928" yMax="753">
      <contour>
        <pt x="751" y="180" on="1"/>
        <pt x="767" y="297" on="1"/>
        <pt x="787" y="386" on="1"/>
        <pt x="762" y="332" on="0"/>
        <pt x="725" y="283" on="1"/>
        <pt x="647" y="180" on="1"/>
      </contour>
      <contour>
        <pt x="68" y="233" on="1"/>
        <pt x="62" y="302" on="1"/>
        <pt x="180" y="308" on="0"/>
        <pt x="310" y="376" on="0"/>
        <pt x="310" y="429" on="1"/>
        <pt x="310" y="480" on="0"/>
        <pt x="220" y="480" on="1"/>
        <pt x="187" y="478" on="1"/>
        <pt x="184" y="536" on="1"/>
        <pt x="322" y="565" on="0"/>
        <pt x="322" y="632" on="1"/>
        <pt x="322" y="647" on="0"/>
        <pt x="298" y="664" on="0"/>
        <pt x="279" y="664" on="1"/>
        <pt x="249" y="664" on="0"/>
        <pt x="176" y="635" on="0"/>
        <pt x="150" y="614" on="1"/>
        <pt x="117" y="675" on="1"/>
        <pt x="156" y="704" on="0"/>
        <pt x="261" y="743" on="0"/>
        <pt x="306" y="743" on="1"/>
        <pt x="358" y="743" on="0"/>
        <pt x="428" y="706" on="0"/>
        <pt x="428" y="663" on="1"/>
        <pt x="428" y="621" on="0"/>
        <pt x="376" y="561" on="0"/>
        <pt x="334" y="546" on="1"/>
        <pt x="420" y="529" on="0"/>
        <pt x="420" y="450" on="1"/>
        <pt x="420" y="429" on="0"/>
        <pt x="408" y="383" on="0"/>
        <pt x="363" y="321" on="0"/>
        <pt x="291" y="274" on="0"/>
        <pt x="156" y="236" on="0"/>
      </contour>
      <contour>
        <pt x="917" y="101" on="1"/>
        <pt x="849" y="101" on="1"/>
        <pt x="836" y="0" on="1"/>
        <pt x="728" y="0" on="1"/>
        <pt x="741" y="101" on="1"/>
        <pt x="534" y="101" on="1"/>
        <pt x="534" y="153" on="1"/>
        <pt x="793" y="486" on="1"/>
        <pt x="900" y="486" on="1"/>
        <pt x="859" y="180" on="1"/>
        <pt x="928" y="180" on="1"/>
      </contour>
      <contour>
        <pt x="356" y="-27" on="1"/>
        <pt x="277" y="-27" on="1"/>
        <pt x="676" y="753" on="1"/>
        <pt x="756" y="753" on="1"/>
      </contour>
    </TTGlyph>
    <TTGlyph name="threesuperior" xMin="32" yMin="425" xMax="398" yMax="935">
      <contour>
        <pt x="37" y="425" on="1"/>
        <pt x="32" y="494" on="1"/>
        <pt x="148" y="500" on="0"/>
        <pt x="280" y="569" on="0"/>
        <pt x="280" y="621" on="1"/>
        <pt x="280" y="672" on="0"/>
        <pt x="189" y="672" on="1"/>
        <pt x="156" y="670" on="1"/>
        <pt x="153" y="728" on="1"/>
        <pt x="291" y="756" on="0"/>
        <pt x="291" y="825" on="1"/>
        <pt x="291" y="839" on="0"/>
        <pt x="267" y="856" on="0"/>
        <pt x="249" y="856" on="1"/>
        <pt x="184" y="856" on="0"/>
        <pt x="119" y="806" on="1"/>
        <pt x="86" y="867" on="1"/>
        <pt x="124" y="896" on="0"/>
        <pt x="229" y="935" on="0"/>
        <pt x="274" y="935" on="1"/>
        <pt x="326" y="935" on="0"/>
        <pt x="398" y="897" on="0"/>
        <pt x="398" y="854" on="1"/>
        <pt x="398" y="812" on="0"/>
        <pt x="346" y="753" on="0"/>
        <pt x="302" y="738" on="1"/>
        <pt x="390" y="721" on="0"/>
        <pt x="390" y="642" on="1"/>
        <pt x="390" y="621" on="0"/>
        <pt x="377" y="575" on="0"/>
        <pt x="332" y="513" on="0"/>
        <pt x="259" y="465" on="0"/>
        <pt x="125" y="428" on="0"/>
      </contour>
    </TTGlyph>
    <TTGlyph name="tilde" xMin="-42" yMin="577" xMax="313" yMax="684">
      <contour>
        <pt x="313" y="652" on="1"/>
        <pt x="311" y="649" on="0"/>
        <pt x="305" y="639" on="0"/>
        <pt x="282" y="613" on="0"/>
        <pt x="256" y="593" on="0"/>
        <pt x="214" y="577" on="0"/>
        <pt x="192" y="577" on="1"/>
        <pt x="162" y="577" on="0"/>
        <pt x="79" y="606" on="0"/>
        <pt x="60" y="606" on="1"/>
        <pt x="39" y="606" on="0"/>
        <pt x="8" y="581" on="1"/>
        <pt x="-42" y="608" on="1"/>
        <pt x="-40" y="611" on="0"/>
        <pt x="-34" y="621" on="0"/>
        <pt x="-10" y="648" on="0"/>
        <pt x="18" y="668" on="0"/>
        <pt x="63" y="684" on="0"/>
        <pt x="88" y="684" on="1"/>
        <pt x="118" y="684" on="0"/>
        <pt x="198" y="656" on="0"/>
        <pt x="211" y="656" on="1"/>
        <pt x="230" y="656" on="0"/>
        <pt x="267" y="683" on="1"/>
      </contour>
    </TTGlyph>
    <TTGlyph name="trademark" xMin="51" yMin="497" xMax="523" yMax="732">
      <contour>
        <pt x="523" y="732" on="1"/>
        <pt x="490" y="497" on="1"/>
        <pt x="431" y="497" on="1"/>
        <pt x="448" y="625" on="1"/>
        <pt x="422" y="575" on="0"/>
        <pt x="380" y="497" on="1"/>
        <pt x="344" y="497" on="1"/>
        <pt x="310" y="631" on="1"/>
        <pt x="292" y="497" on="1"/>
        <pt x="240" y="497" on="1"/>
        <pt x="273" y="732" on="1"/>
        <pt x="347" y="732" on="1"/>
        <pt x="379" y="596" on="1"/>
        <pt x="450" y="732" on="1"/>
      </contour>
      <contour>
        <pt x="261" y="732" on="1"/>
        <pt x="255" y="686" on="1"/>
        <pt x="182" y="686" on="1"/>
        <pt x="156" y="497" on="1"/>
        <pt x="95" y="497" on="1"/>
        <pt x="122" y="686" on="1"/>
        <pt x="51" y="686" on="1"/>
        <pt x="57" y="732" on="1"/>
      </contour>
    </TTGlyph>
    <TTGlyph name="two" xMin="13" yMin="0" xMax="432" yMax="512">
      <contour>
        <pt x="432" y="99" on="1"/>
        <pt x="392" y="0" on="1"/>
        <pt x="13" y="0" on="1"/>
        <pt x="13" y="54" on="1"/>
        <pt x="59" y="98" on="0"/>
        <pt x="234" y="280" on="0"/>
        <pt x="251" y="297" on="1"/>
        <pt x="291" y="337" on="0"/>
        <pt x="291" y="373" on="1"/>
        <pt x="291" y="395" on="0"/>
        <pt x="263" y="421" on="0"/>
        <pt x="241" y="421" on="1"/>
        <pt x="186" y="421" on="0"/>
        <pt x="114" y="355" on="1"/>
        <pt x="65" y="419" on="1"/>
        <pt x="176" y="512" on="0"/>
        <pt x="286" y="512" on="1"/>
        <pt x="346" y="512" on="0"/>
        <pt x="430" y="452" on="0"/>
        <pt x="430" y="395" on="1"/>
        <pt x="430" y="321" on="0"/>
        <pt x="362" y="256" on="1"/>
        <pt x="339" y="234" on="0"/>
        <pt x="183" y="99" on="1"/>
      </contour>
    </TTGlyph>
    <TTGlyph name="twosuperior" xMin="25" yMin="438" xMax="409" yMax="935">
      <contour>
        <pt x="351" y="438" on="1"/>
        <pt x="25" y="438" on="1"/>
        <pt x="25" y="489" on="1"/>
        <pt x="36" y="497" on="0"/>
        <pt x="73" y="526" on="0"/>
        <pt x="166" y="608" on="0"/>
        <pt x="237" y="682" on="0"/>
        <pt x="296" y="773" on="0"/>
        <pt x="296" y="805" on="1"/>
        <pt x="296" y="828" on="0"/>
        <pt x="267" y="856" on="0"/>
        <pt x="244" y="856" on="1"/>
        <pt x="219" y="856" on="0"/>
        <pt x="156" y="827" on="0"/>
        <pt x="137" y="812" on="1"/>
        <pt x="118" y="798" on="1"/>
        <pt x="85" y="864" on="1"/>
        <pt x="94" y="872" on="0"/>
        <pt x="127" y="896" on="0"/>
        <pt x="226" y="935" on="0"/>
        <pt x="274" y="935" on="1"/>
        <pt x="341" y="935" on="0"/>
        <pt x="409" y="873" on="0"/>
        <pt x="409" y="823" on="1"/>
        <pt x="409" y="774" on="0"/>
        <pt x="352" y="673" on="0"/>
        <pt x="263" y="591" on="0"/>
        <pt x="211" y="551" on="0"/>
        <pt x="187" y="536" on="1"/>
        <pt x="183" y="533" on="1"/>
        <pt x="389" y="533" on="1"/>
      </contour>
    </TTGlyph>
    <TTGlyph name="u" xMin="27" yMin="-11" xMax="504" yMax="497">
      <contour>
        <pt x="504" y="22" on="1"/>
        <pt x="457" y="-9" on="0"/>
        <pt x="396" y="-9" on="1"/>
        <pt x="366" y="-9" on="0"/>
        <pt x="320" y="29" on="0"/>
        <pt x="314" y="59" on="1"/>
        <pt x="310" y="59" on="1"/>
        <pt x="285" y="26" on="0"/>
        <pt x="197" y="-11" on="0"/>
        <pt x="153" y="-11" on="1"/>
        <pt x="27" y="-11" on="0"/>
        <pt x="27" y="111" on="1"/>
        <pt x="27" y="128" on="0"/>
        <pt x="30" y="146" on="1"/>
        <pt x="70" y="453" on="1"/>
        <pt x="65" y="497" on="1"/>
        <pt x="192" y="497" on="1"/>
        <pt x="149" y="169" on="1"/>
        <pt x="147" y="151" on="0"/>
        <pt x="147" y="142" on="1"/>
        <pt x="147" y="84" on="0"/>
        <pt x="196" y="84" on="1"/>
        <pt x="227" y="84" on="0"/>
        <pt x="277" y="130" on="0"/>
        <pt x="307" y="205" on="0"/>
        <pt x="325" y="273" on="0"/>
        <pt x="329" y="307" on="1"/>
        <pt x="348" y="453" on="1"/>
        <pt x="342" y="497" on="1"/>
        <pt x="470" y="497" on="1"/>
        <pt x="416" y="130" on="1"/>
        <pt x="414" y="116" on="0"/>
        <pt x="414" y="109" on="1"/>
        <pt x="414" y="73" on="0"/>
        <pt x="439" y="73" on="1"/>
        <pt x="456" y="73" on="0"/>
        <pt x="487" y="85" on="1"/>
      </contour>
    </TTGlyph>
    <TTGlyph name="uacute" xMin="27" yMin="-11" xMax="504" yMax="756">
      <component glyphName="acute" x="205" y="1" flags="0x4"/>
      <component glyphName="u" x="0" y="0" flags="0x4"/>
    </TTGlyph>
    <TTGlyph name="ucircumflex" xMin="27" yMin="-11" xMax="504" yMax="736">
      <component glyphName="circumflex" x="147" y="3" flags="0x4"/>
      <component glyphName="u" x="0" y="0" flags="0x4"/>
    </TTGlyph>
    <TTGlyph name="udieresis" xMin="27" yMin="-11" xMax="504" yMax="694">
      <component glyphName="dieresis" x="138" y="10" flags="0x4"/>
      <component glyphName="u" x="0" y="0" flags="0x4"/>
    </TTGlyph>
    <TTGlyph name="ugrave" xMin="27" yMin="-11" xMax="504" yMax="757">
      <contour>
        <pt x="504" y="22" on="1"/>
        <pt x="457" y="-9" on="0"/>
        <pt x="396" y="-9" on="1"/>
        <pt x="366" y="-9" on="0"/>
        <pt x="320" y="29" on="0"/>
        <pt x="314" y="59" on="1"/>
        <pt x="310" y="59" on="1"/>
        <pt x="285" y="26" on="0"/>
        <pt x="197" y="-11" on="0"/>
        <pt x="153" y="-11" on="1"/>
        <pt x="27" y="-11" on="0"/>
        <pt x="27" y="111" on="1"/>
        <pt x="27" y="128" on="0"/>
        <pt x="30" y="146" on="1"/>
        <pt x="70" y="453" on="1"/>
        <pt x="65" y="497" on="1"/>
        <pt x="192" y="497" on="1"/>
        <pt x="149" y="169" on="1"/>
        <pt x="147" y="160" on="0"/>
        <pt x="147" y="142" on="1"/>
        <pt x="147" y="84" on="0"/>
        <pt x="196" y="84" on="1"/>
        <pt x="227" y="84" on="0"/>
        <pt x="277" y="130" on="0"/>
        <pt x="307" y="205" on="0"/>
        <pt x="325" y="273" on="0"/>
        <pt x="329" y="307" on="1"/>
        <pt x="348" y="453" on="1"/>
        <pt x="342" y="497" on="1"/>
        <pt x="470" y="497" on="1"/>
        <pt x="416" y="130" on="1"/>
        <pt x="414" y="123" on="0"/>
        <pt x="414" y="109" on="1"/>
        <pt x="414" y="73" on="0"/>
        <pt x="439" y="73" on="1"/>
        <pt x="456" y="73" on="0"/>
        <pt x="487" y="85" on="1"/>
      </contour>
      <contour>
        <pt x="324" y="592" on="1"/>
        <pt x="221" y="592" on="1"/>
        <pt x="70" y="757" on="1"/>
        <pt x="215" y="757" on="1"/>
      </contour>
    </TTGlyph>
    <TTGlyph name="underscore" xMin="-12" yMin="-143" xMax="509" yMax="-47">
      <contour>
        <pt x="509" y="-47" on="1"/>
        <pt x="496" y="-143" on="1"/>
        <pt x="-12" y="-143" on="1"/>
        <pt x="1" y="-47" on="1"/>
      </contour>
    </TTGlyph>
    <TTGlyph name="uni00A0" xMin="0" yMin="0" xMax="0" yMax="0">
      <component glyphName="space" x="0" y="0" flags="0x204"/>
    </TTGlyph>
    <TTGlyph name="uni00AD" xMin="49" yMin="210" xMax="270" yMax="305">
      <contour>
        <pt x="270" y="210" on="1"/>
        <pt x="49" y="210" on="1"/>
        <pt x="49" y="305" on="1"/>
        <pt x="270" y="305" on="1"/>
      </contour>
    </TTGlyph>
    <TTGlyph name="v" xMin="15" yMin="-4" xMax="459" yMax="497">
      <contour>
        <pt x="459" y="497" on="1"/>
        <pt x="227" y="-4" on="1"/>
        <pt x="121" y="-4" on="1"/>
        <pt x="15" y="497" on="1"/>
        <pt x="137" y="497" on="1"/>
        <pt x="190" y="235" on="1"/>
        <pt x="196" y="206" on="0"/>
        <pt x="200" y="151" on="1"/>
        <pt x="220" y="222" on="0"/>
        <pt x="226" y="235" on="1"/>
        <pt x="342" y="497" on="1"/>
      </contour>
    </TTGlyph>
    <TTGlyph name="w" xMin="15" yMin="-4" xMax="678" yMax="497">
      <contour>
        <pt x="678" y="497" on="1"/>
        <pt x="459" y="-4" on="1"/>
        <pt x="360" y="-4" on="1"/>
        <pt x="322" y="258" on="1"/>
        <pt x="320" y="335" on="1"/>
        <pt x="310" y="281" on="0"/>
        <pt x="303" y="266" on="1"/>
        <pt x="188" y="-4" on="1"/>
        <pt x="89" y="-4" on="1"/>
        <pt x="15" y="497" on="1"/>
        <pt x="137" y="497" on="1"/>
        <pt x="170" y="266" on="1"/>
        <pt x="172" y="250" on="0"/>
        <pt x="172" y="218" on="1"/>
        <pt x="172" y="189" on="0"/>
        <pt x="171" y="173" on="1"/>
        <pt x="184" y="231" on="0"/>
        <pt x="195" y="258" on="1"/>
        <pt x="296" y="497" on="1"/>
        <pt x="408" y="497" on="1"/>
        <pt x="441" y="266" on="1"/>
        <pt x="443" y="252" on="0"/>
        <pt x="443" y="214" on="1"/>
        <pt x="443" y="185" on="0"/>
        <pt x="442" y="173" on="1"/>
        <pt x="458" y="239" on="0"/>
        <pt x="466" y="258" on="1"/>
        <pt x="563" y="497" on="1"/>
      </contour>
    </TTGlyph>
    <TTGlyph name="x" xMin="-20" yMin="0" xMax="484" yMax="497">
      <contour>
        <pt x="484" y="497" on="1"/>
        <pt x="305" y="267" on="1"/>
        <pt x="439" y="0" on="1"/>
        <pt x="306" y="0" on="1"/>
        <pt x="230" y="165" on="1"/>
        <pt x="110" y="0" on="1"/>
        <pt x="-20" y="0" on="1"/>
        <pt x="187" y="264" on="1"/>
        <pt x="67" y="497" on="1"/>
        <pt x="199" y="497" on="1"/>
        <pt x="260" y="365" on="1"/>
        <pt x="355" y="497" on="1"/>
      </contour>
    </TTGlyph>
</ttFont>
